<svg width="163" height="270" viewBox="0 0 163 270" fill="none" xmlns="http://www.w3.org/2000/svg">
<g clip-path="url(#clip0_473_13)">
<path fill-rule="evenodd" clip-rule="evenodd" d="M139.414 267.768C139.414 267.272 139.911 267.272 139.662 266.527C138.918 266.031 138.173 265.287 137.428 264.791C137.428 265.287 135.442 264.295 134.697 264.295C134.697 263.551 133.704 263.055 132.214 261.815C130.228 260.326 130.725 260.078 131.718 260.326C130.228 259.086 128.739 257.846 127.497 256.606C128.739 257.102 130.476 258.59 131.718 259.334C133.207 260.326 136.435 262.807 137.676 263.303C137.676 263.055 136.931 262.311 136.931 262.063C136.931 261.815 137.676 262.311 137.925 262.311C138.669 262.311 137.925 261.567 136.435 260.574C136.187 260.326 136.435 260.078 136.435 260.078C136.435 259.582 136.187 258.838 136.187 258.342C138.421 259.582 141.152 262.063 143.138 263.055C143.138 263.055 143.138 262.807 143.138 262.559L143.387 263.055C143.635 262.559 143.387 261.815 143.883 261.319C142.642 260.326 141.4 259.582 140.159 258.838C139.414 257.598 140.159 257.102 138.669 255.862C137.428 255.118 134.697 253.381 136.187 253.877C133.207 251.397 129.98 249.165 127.001 246.932C130.228 249.165 135.442 252.637 138.669 254.125C137.676 253.133 136.187 251.397 136.683 251.397C137.676 251.893 138.421 252.389 139.414 252.885C139.911 253.133 141.152 253.877 141.4 253.877C141.649 253.877 141.4 253.629 141.649 253.629C142.145 253.629 142.145 253.629 142.89 254.125C143.387 254.373 144.628 255.118 144.628 255.118L144.131 254.373C144.131 254.125 144.131 254.125 144.131 253.877C144.131 253.629 143.883 253.133 143.635 252.637C145.373 253.877 147.607 255.366 147.359 254.621C147.359 254.125 147.359 253.629 147.111 252.885C146.862 252.885 145.621 252.637 144.876 251.893C144.38 251.397 144.876 251.397 144.876 251.149L142.642 249.661C142.642 249.165 141.897 248.669 141.4 247.924C142.145 248.42 145.621 250.653 145.621 250.405C145.869 250.157 143.138 247.676 142.642 247.18C143.883 247.924 145.621 249.165 146.117 248.917C146.366 248.669 145.124 247.428 145.373 247.18C147.359 248.421 149.345 250.653 151.331 251.645C151.083 251.397 151.083 251.149 151.083 250.901C152.076 251.397 152.821 251.397 152.573 250.901C152.324 250.405 151.083 249.661 151.828 249.661C151.083 248.917 150.338 248.172 149.593 247.428C148.848 247.18 148.352 247.428 147.359 246.932C146.862 246.436 146.862 246.188 146.366 245.692C145.869 245.196 144.628 244.204 143.883 243.708C144.131 243.956 144.628 244.204 144.876 244.204C144.38 243.46 143.635 242.964 143.138 242.22C144.628 243.212 146.117 244.204 147.607 244.948C148.6 245.444 149.097 245.692 149.345 245.692C149.345 245.692 149.097 245.444 149.345 245.444C149.842 245.444 150.835 246.188 150.586 245.692C150.586 245.196 148.6 243.708 147.855 242.964C148.848 243.46 150.586 244.7 151.083 244.7C151.579 244.948 152.324 245.444 152.821 245.692C152.324 245.196 152.573 245.196 152.573 244.948C152.821 244.7 153.069 244.7 152.076 243.956C153.317 244.7 155.055 245.692 153.317 243.956C153.069 243.708 152.573 243.46 152.076 242.964C151.579 242.716 151.331 242.468 150.835 241.971C148.6 240.235 146.117 238.747 143.883 237.011C141.649 235.274 139.662 233.29 137.18 232.05C135.69 231.306 135.194 231.554 133.704 230.562C131.966 229.321 129.235 227.089 127.497 225.601C124.518 223.368 121.042 220.888 118.311 218.408C117.566 217.664 116.822 216.919 116.077 216.175C115.332 215.431 114.587 214.687 113.594 213.695C111.608 211.959 109.622 210.966 107.636 209.23C105.898 207.742 105.898 207.246 104.656 206.006C103.415 204.765 102.422 204.269 101.181 203.277C98.6978 201.541 96.4634 199.309 94.9737 197.324C94.4772 196.828 94.4772 196.332 93.9807 195.588C92.9876 194.596 91.498 193.604 90.2566 192.611C88.2705 190.627 86.036 188.395 84.0499 186.659C83.0568 185.666 82.0637 185.17 81.0706 184.178C80.0775 183.186 79.0844 182.194 78.0914 181.202C77.0983 180.21 76.3535 179.217 75.3604 178.225C71.3881 174.505 68.1605 170.784 64.4365 166.815C63.4434 165.575 62.202 164.583 61.209 163.591C60.2159 162.599 59.2228 161.358 58.2297 160.366C56.2435 158.134 54.5056 155.902 52.5195 153.421C51.5264 152.181 50.0368 150.197 48.5472 148.956C46.3127 146.724 46.561 147.716 44.5748 144.492C42.3404 140.771 40.8508 139.283 37.8715 136.058C36.6302 134.57 35.6371 133.33 34.3958 131.842C33.1544 130.353 30.6717 128.617 30.4234 127.129C28.6855 126.385 26.4511 124.649 24.2166 122.664C24.2166 121.672 23.9684 120.432 23.9684 119.44C21.4857 116.215 18.0099 112.991 16.0237 109.518C15.2789 108.278 15.2789 107.286 14.5341 106.046C13.2927 103.813 11.3066 100.837 9.32039 98.1083C7.33423 95.1318 5.09981 92.4034 3.61018 89.923C2.36883 87.6906 0.879212 85.4582 -0.362144 83.2259C-0.85868 82.4818 -1.10697 81.4896 -1.60352 80.7455C-2.5966 79.0092 -3.83794 78.0171 -4.83102 76.2808C-6.32064 74.0484 -7.06546 71.32 -8.30681 69.3357C-9.05162 68.0955 -10.0447 67.1033 -11.0378 65.6151C-11.5343 64.8709 -11.7826 64.1268 -12.0309 63.3827C-13.5205 60.9023 -14.7618 58.4219 -16.0032 55.9415C-17.2445 53.4611 -18.7342 50.9807 -19.7272 48.5003C-20.9686 48.0042 -22.4582 46.0199 -24.1961 44.5317C-24.1961 43.2915 -24.1961 42.2993 -24.6927 40.8111C-24.9409 40.067 -25.1892 39.5709 -25.1892 38.8267C-26.9271 36.3463 -28.665 33.3699 -30.1546 30.1453C-31.1477 27.913 -31.1477 26.9208 -31.8925 24.9365C-32.3891 24.4404 -32.8856 24.6885 -33.3821 24.1924C-34.1269 22.9522 -34.3752 21.464 -35.12 20.2238C-35.8648 18.7355 -36.6096 16.9992 -37.3545 15.511C-38.8441 12.5345 -40.0854 9.31 -41.5751 6.33352C-42.0716 5.09332 -42.8164 3.85313 -43.313 2.36488C-44.0578 1.12469 -44.5543 0.380562 -45.2991 -0.859642C-46.2922 -2.59592 -46.2922 -3.34004 -46.5405 -5.07632C-46.7887 -6.31652 -50.5128 -12.5175 -51.0093 -13.2616C-50.2645 -12.0214 -50.0163 -16.4862 -50.2645 -17.2303C-50.5128 -19.7107 -52.0024 -22.4391 -52.499 -25.1676C-53.492 -25.6636 -54.4851 -25.9117 -55.4782 -25.9117C-55.2299 -25.9117 -54.9817 -27.3999 -54.9817 -27.896C-54.7334 -29.1362 -54.9817 -29.8803 -55.7265 -32.1127C-56.4713 -34.345 -56.9678 -37.0735 -57.9609 -39.3058C-58.2092 -39.5539 -58.4575 -40.0499 -58.4575 -40.298C-59.9471 -43.5225 -60.6919 -45.5068 -61.4367 -48.9794C-61.9332 -50.9637 -62.6781 -53.1961 -63.4229 -55.4284C-64.1677 -57.6608 -64.6642 -59.8931 -65.1608 -61.8775L-67.8917 -72.2951C-68.3883 -73.7834 -68.8848 -76.7599 -69.6296 -77.504C-70.6227 -78.4961 -69.8779 -76.0157 -69.3814 -74.5275C-69.6296 -74.5275 -69.6296 -74.7755 -69.8779 -74.7755C-70.1262 -74.7755 -70.1262 -74.2795 -70.3744 -73.7834C-70.6227 -73.2873 -71.1193 -74.2795 -71.6158 -75.5197C-70.1262 -75.7677 -70.6227 -75.5197 -70.6227 -75.0236C-70.6227 -74.2795 -69.3814 -69.3187 -69.1331 -68.0785C-69.6296 -69.3187 -70.1262 -70.8069 -70.6227 -72.2951C-70.6227 -72.7912 -71.1193 -74.2795 -71.3675 -74.5275C-71.6158 -75.2716 -72.3606 -75.7677 -72.1123 -74.7755C-72.1123 -74.2795 -71.6158 -73.0393 -71.6158 -72.5432L-71.1193 -70.5589C-70.6227 -69.0706 -70.3744 -67.5824 -69.8779 -66.0941C-68.8848 -62.6216 -67.6435 -58.901 -66.8987 -55.4284C-67.6435 -57.6608 -68.3883 -60.1412 -69.1331 -62.3735C-70.1262 -65.35 -70.871 -68.0785 -71.8641 -71.0549C-72.1123 -71.7991 -72.3606 -73.0393 -72.6089 -73.7834C-73.1054 -75.0236 -73.1054 -72.5432 -73.602 -72.5432C-73.602 -72.5432 -73.602 -72.7912 -73.8502 -72.7912C-74.0985 -73.0393 -74.595 -74.0314 -75.0916 -74.7755C-75.3399 -75.2716 -76.3329 -77.504 -76.5812 -77.504C-76.5812 -77.504 -76.5812 -77.2559 -76.5812 -77.0079C-76.5812 -76.7599 -76.5812 -76.5118 -76.3329 -76.0157C-76.3329 -75.2716 -76.0847 -74.5275 -76.0847 -74.2795C-75.8364 -73.5353 -75.3399 -71.7991 -75.8364 -72.0471C-75.0916 -68.3265 -73.8502 -64.1098 -72.8572 -60.3892C-72.1123 -57.9088 -71.6158 -55.4284 -70.871 -53.1961C-70.6227 -52.4519 -70.3744 -51.7078 -70.1262 -50.9637C-71.1193 -53.1961 -71.6158 -55.6765 -72.3606 -58.1569C-72.6089 -58.901 -72.8571 -59.8931 -73.1054 -60.6373C-73.1054 -60.1412 -73.1054 -60.1412 -73.1054 -60.3892C-73.3537 -61.3814 -73.602 -62.3735 -73.8502 -63.3657C-74.0985 -64.3579 -74.3468 -64.8539 -74.595 -65.5981C-74.8433 -65.8461 -74.8433 -65.8461 -74.8433 -66.3422C-75.0916 -66.5902 -75.0916 -67.3343 -75.0916 -67.5824C-75.5881 -67.8304 -75.5881 -67.8304 -75.8364 -67.8304C-76.3329 -69.0706 -76.5812 -70.5589 -77.0777 -71.551C-77.5743 -72.2951 -77.5743 -71.7991 -78.0708 -72.0471C-78.3191 -73.0393 -78.8156 -74.0314 -79.3122 -75.0236C-78.5674 -72.5432 -77.8226 -69.5667 -77.0777 -67.0863C-77.326 -67.8304 -77.5743 -68.3265 -77.8226 -69.0706C-78.0708 -70.0628 -78.5674 -71.303 -78.8156 -72.0471C-79.0639 -72.2951 -79.0639 -72.5432 -79.3122 -72.7912C-79.0639 -72.2951 -80.057 -72.5432 -80.057 -72.5432C-80.057 -72.5432 -80.3053 -72.2951 -80.3053 -72.0471V-71.303C-80.5535 -71.303 -80.5535 -70.0628 -80.3053 -69.0706C-80.5535 -70.0628 -81.2983 -71.551 -81.5466 -72.5432C-81.5466 -73.0393 -81.5466 -73.2873 -81.7949 -73.5353C-82.0432 -74.0314 -82.0432 -74.2795 -82.2914 -74.7755C-82.5397 -75.2716 -82.5397 -76.2638 -82.788 -76.7599C-82.788 -75.2716 -83.0362 -74.2795 -83.2845 -73.7834C-83.7811 -73.2873 -83.7811 -72.7912 -83.2845 -70.3108C-83.7811 -70.3108 -84.2776 -71.0549 -84.5259 -71.0549C-84.2776 -69.5667 -84.0293 -67.8304 -83.7811 -66.5902C-83.7811 -67.3343 -85.5189 -69.0706 -85.7672 -69.3187C-86.0155 -70.0628 -86.512 -71.0549 -86.7603 -72.0471C-86.2638 -69.8147 -85.7672 -67.5824 -85.2707 -65.5981C-85.0224 -64.6059 -84.5259 -63.3657 -84.5259 -62.3735C-84.7741 -63.1177 -86.2638 -68.0785 -86.512 -68.3265C-86.7603 -68.5745 -86.7603 -67.8304 -86.7603 -67.3343C-86.7603 -67.0863 -87.0086 -67.0863 -87.0086 -66.8383C-87.0086 -65.8461 -86.512 -63.6137 -86.0155 -62.3735C-86.512 -63.8618 -87.2568 -68.0785 -88.0017 -68.0785C-88.7465 -68.0785 -87.2568 -63.3657 -86.7603 -61.8775C-86.2638 -60.1412 -85.5189 -57.9088 -85.2707 -56.1725C-86.2638 -59.3971 -87.0086 -62.8696 -88.2499 -66.0941C-88.7465 -67.5824 -88.7465 -67.8304 -89.243 -67.5824C-89.4913 -67.3343 -89.7395 -67.0863 -89.4913 -65.8461C-89.243 -64.1098 -88.4982 -62.1255 -88.2499 -60.1412C-88.9947 -62.1255 -89.7395 -65.102 -90.7326 -66.5902C-90.7326 -68.0785 -90.7326 -67.8304 -91.2292 -68.0785C-91.4774 -68.3265 -91.7257 -68.5745 -91.7257 -68.8226C-92.2223 -69.0706 -91.974 -68.8226 -91.974 -67.5824C-91.974 -66.8383 -91.7257 -66.0941 -91.7257 -65.35C-92.7188 -67.8304 -93.9601 -72.2951 -95.2015 -73.7834C-94.9532 -72.2951 -94.705 -70.5589 -94.4567 -69.3187C-95.2015 -70.0628 -94.9532 -69.0706 -94.9532 -67.8304C-95.2015 -68.3265 -95.4498 -68.5745 -95.4498 -68.8226C-95.698 -69.0706 -95.9463 -68.5745 -96.1946 -68.5745C-96.1946 -67.8304 -95.9463 -66.8383 -95.698 -66.0941C-96.1946 -66.8383 -97.4359 -69.0706 -97.6842 -68.5745C-97.6842 -68.3265 -97.6842 -68.3265 -97.6842 -68.0785L-95.2015 -59.149C-93.9601 -54.9323 -92.9671 -50.4676 -91.7257 -46.2509C-90.4844 -42.0343 -88.9947 -37.8176 -87.7534 -33.6009C-87.2568 -31.8646 -86.7603 -30.1284 -86.0155 -28.6401C-85.2707 -25.9117 -85.0224 -24.4234 -84.5259 -22.1911C-83.7811 -18.7185 -82.2914 -16.2381 -80.8018 -13.2616C-80.8018 -12.2695 -80.3053 -11.2773 -79.8087 -9.78908C-78.3191 -6.06848 -77.326 -2.84396 -76.3329 0.87664C-75.5881 1.12468 -74.8433 1.62076 -74.0985 1.62076C-73.8502 3.35703 -73.602 5.34136 -73.8502 6.08549C-72.1123 10.0541 -70.3744 14.2708 -68.3883 18.2394C-67.8917 19.4796 -68.14 18.9836 -67.3952 20.2238C-66.1538 22.4561 -63.6711 25.6806 -62.6781 28.6571C-62.1815 30.1454 -62.6781 31.3856 -62.6781 32.1297C-61.1884 34.6101 -59.9471 37.3385 -58.4575 39.8189C-57.4644 41.3072 -56.7196 42.7954 -55.7265 44.2836C-54.7334 46.0199 -54.2369 47.0121 -53.492 48.9964C-52.0024 52.717 -50.0163 56.4376 -48.2784 60.1582C-47.5336 61.8945 -46.0439 64.3749 -45.0508 66.1111C-45.0508 66.3592 -43.0647 70.3278 -42.8164 70.5759C-41.8233 71.8161 -41.0785 71.8161 -40.8302 71.32C-39.8372 73.8004 -39.8372 75.2886 -38.8441 77.521C-38.3475 78.7612 -36.1131 82.7298 -35.3683 84.218C-34.6235 85.4583 -33.8787 85.9543 -33.1339 87.1945C-32.3891 88.4347 -31.396 90.419 -30.6512 91.9073C-28.4167 95.8759 -25.6857 99.8446 -23.203 103.565C-22.21 105.053 -21.7134 106.294 -20.7203 107.534C-18.2376 111.254 -15.5066 112.991 -13.2722 116.215C-10.7895 119.688 -6.81717 127.625 -5.07928 126.881C-4.33447 128.865 -4.08621 131.098 -2.84486 133.578C-1.35523 135.066 1.12749 137.795 2.36884 140.027C2.36884 140.027 2.12056 140.027 2.12056 140.275C5.34808 143.5 9.32041 145.732 12.0514 150.693C13.0445 152.429 16.272 160.614 18.7547 160.614C19.4995 161.606 20.4926 162.599 21.2374 163.839C21.9822 164.831 22.9753 165.823 23.9684 166.815C25.7063 168.8 27.4442 170.784 29.4303 172.768C31.1682 174.505 32.4096 175.993 34.1475 177.481C34.3957 177.729 35.3888 178.473 36.3819 179.217C36.8784 179.713 37.375 179.961 37.6232 180.209C37.8715 180.458 38.1198 180.706 38.1198 180.706C40.3542 184.178 42.3404 186.907 44.3266 190.131C45.0714 191.371 45.3197 191.867 45.5679 192.611C45.8162 192.86 46.8093 194.844 47.3058 195.34C49.0437 196.332 51.2781 197.572 53.2643 199.805C54.0091 200.549 54.7539 201.789 55.4987 202.533C55.9953 203.029 56.2435 202.781 56.4918 202.781C57.2366 203.029 57.9814 203.029 58.478 203.277C58.9745 204.021 59.2228 204.517 59.7193 205.262C60.9607 206.998 63.6917 209.23 65.4296 210.966C67.4157 212.703 69.4019 215.431 71.6363 216.919C72.8777 217.664 73.3742 217.664 74.119 217.664C75.1121 218.904 75.8569 220.144 76.85 221.384C77.8431 222.624 79.0844 223.865 80.3258 225.105C82.0637 226.593 84.2981 227.585 85.5395 228.825C86.2843 229.569 86.7808 230.314 87.5256 231.058C88.767 232.298 90.7531 233.786 92.2428 235.026C93.4841 236.267 94.7255 237.259 95.9668 238.499C97.2082 239.739 98.2013 240.731 99.6909 241.971C100.187 241.971 100.684 241.723 101.429 241.723C101.677 242.467 102.422 243.46 103.663 244.7C105.153 246.188 106.891 246.932 108.38 248.172C108.877 248.669 109.622 249.165 110.118 249.661C111.36 250.653 112.849 251.893 114.091 252.885C115.332 253.877 116.573 254.621 117.815 255.366C118.311 256.358 118.063 256.606 118.808 257.598C119.553 257.846 120.794 258.342 121.539 258.838C122.035 259.334 122.78 260.078 123.277 260.574C125.263 262.559 129.483 264.791 127.497 262.311C128.242 263.303 129.483 264.295 130.476 265.287C131.718 266.279 131.221 266.031 132.214 266.775C133.207 267.52 134.449 268.264 135.442 268.76C136.931 269.504 137.18 269.256 138.173 269.504C136.187 267.768 133.456 265.783 131.221 264.047C132.959 264.791 135.69 266.775 137.428 268.016C138.918 269.008 138.421 268.76 139.166 269.008C139.911 269.256 141.4 270.248 141.649 269.752C141.649 269.504 140.656 268.512 139.414 267.768Z" fill="#F4557B"/>
<path fill-rule="evenodd" clip-rule="evenodd" d="M-138.649 112.247C-138.4 112.495 -138.649 112.991 -138.4 113.487C-137.656 113.487 -137.159 113.735 -136.414 113.735C-136.414 113.239 -134.925 112.991 -134.428 112.495C-134.18 112.991 -133.187 112.991 -131.945 113.239C-130.208 113.487 -130.456 113.735 -131.201 114.231C-129.959 114.479 -128.47 114.727 -127.228 114.727C-128.221 114.975 -129.711 114.727 -130.952 114.975C-132.194 114.975 -135.173 114.727 -136.166 114.975C-135.918 114.975 -135.173 115.223 -135.173 115.471C-135.173 115.719 -135.67 115.719 -135.918 115.967C-136.414 116.463 -135.67 116.711 -134.428 116.463C-134.18 116.711 -134.18 116.711 -134.18 116.959C-134.18 117.455 -133.683 117.703 -133.187 118.199C-135.173 118.199 -137.656 117.951 -139.394 118.199C-139.394 118.199 -139.394 118.447 -139.145 118.447L-139.394 118.199C-139.394 118.696 -138.897 119.44 -139.145 119.936C-138.152 119.936 -136.911 119.936 -135.918 119.936C-135.173 120.432 -135.173 121.176 -133.932 121.672C-132.939 121.672 -130.456 121.424 -131.697 121.92C-128.966 122.168 -125.987 122.168 -123.256 122.416C-126.235 122.416 -130.704 122.664 -133.187 123.16C-132.194 123.408 -130.456 123.904 -130.952 124.4C-131.697 124.4 -132.442 124.4 -133.187 124.648C-133.683 124.648 -134.676 124.649 -134.925 124.897V125.145C-135.173 125.393 -135.173 125.393 -135.918 125.393C-136.166 125.393 -137.407 125.641 -137.407 125.641C-137.407 125.641 -136.911 125.889 -136.663 125.889C-136.414 125.889 -136.663 126.137 -136.663 126.385C-136.663 126.633 -136.166 126.881 -135.918 127.129C-137.407 127.129 -139.394 127.129 -138.897 127.625C-138.649 127.873 -138.4 128.617 -137.904 128.865C-137.656 128.617 -136.911 128.369 -136.166 128.369C-135.67 128.369 -135.918 128.865 -135.67 128.865H-133.683C-133.435 129.361 -132.69 129.361 -132.442 129.609C-132.939 129.609 -136.166 129.857 -136.166 130.105C-136.166 130.353 -133.435 130.85 -132.939 131.098C-133.932 131.098 -135.67 131.098 -135.67 131.594C-135.67 132.09 -134.428 132.338 -134.428 132.586C-136.166 132.586 -138.152 132.09 -139.89 132.338C-139.642 132.586 -139.394 132.586 -139.394 132.834C-140.138 132.834 -140.635 133.33 -140.387 133.578C-140.138 133.826 -138.897 133.826 -139.394 134.322C-138.649 134.57 -137.904 134.57 -137.159 134.818C-136.414 134.57 -136.414 134.074 -135.67 133.826C-135.173 134.074 -134.925 134.322 -134.676 134.322C-134.18 134.57 -132.939 134.57 -132.442 134.57C-132.69 134.57 -132.939 134.57 -133.435 134.57C-132.69 134.818 -131.945 134.818 -131.697 135.066C-132.939 135.314 -134.428 135.314 -135.67 135.314C-136.414 135.314 -136.911 135.314 -137.159 135.81L-136.911 136.058C-136.911 137.299 -137.656 137.051 -137.656 137.547C-137.407 138.043 -135.67 138.043 -134.925 138.043C-135.67 138.043 -137.407 138.291 -137.656 138.539C-138.152 138.539 -138.649 138.787 -139.145 138.787C-138.649 139.035 -138.649 139.035 -138.649 139.283C-138.649 139.531 -138.897 139.779 -137.904 140.027C-138.897 140.027 -140.387 140.275 -138.649 140.523C-138.152 140.523 -137.904 140.523 -137.656 140.523C-137.159 140.523 -136.911 140.523 -136.414 140.523C-134.18 140.523 -132.194 140.523 -129.959 140.771C-127.973 141.019 -125.739 141.515 -123.753 141.019C-122.511 140.771 -122.263 140.275 -121.022 140.275C-119.284 140.027 -116.801 140.275 -115.063 140.275C-112.332 140.275 -108.856 140.027 -106.125 140.523C-104.387 140.771 -102.898 141.019 -101.16 141.267C-99.1737 141.267 -97.4359 140.771 -95.4497 140.771C-93.7118 140.771 -93.4635 141.267 -92.2222 141.515C-90.9808 141.763 -89.9877 141.515 -88.9947 141.267C-86.7602 141.019 -84.5258 141.267 -82.5396 141.763C-82.0431 142.011 -81.7948 142.259 -81.05 142.259C-80.0569 142.259 -78.5673 142.011 -77.5742 142.011C-75.3398 142.011 -73.1053 142.259 -70.8709 142.011C-69.8778 142.011 -68.8848 141.763 -67.8917 141.763C-65.9055 141.763 -63.6711 142.011 -61.6849 141.763C-57.4643 141.267 -53.7402 141.763 -49.7679 141.515C-45.0508 141.515 -40.8302 141.267 -36.113 141.267C-34.8717 141.267 -32.8855 141.267 -31.6442 141.019C-29.1615 140.523 -29.9063 140.275 -27.1753 140.771C-23.6995 141.267 -22.4582 141.019 -18.9824 140.523C-17.4927 140.275 -16.4997 140.275 -15.01 140.275C-13.5204 140.027 -11.286 139.283 -10.5412 139.779C-9.29982 138.787 -7.31364 138.043 -5.07921 137.299C-4.58267 137.795 -3.58961 138.291 -2.8448 139.035C0.134447 138.787 3.61024 137.547 6.83777 137.795C8.07912 137.795 8.57567 138.291 9.81702 138.539C13.7894 139.035 20.2444 137.547 24.7133 137.05C26.6994 136.802 28.6856 136.802 30.6718 136.554C31.1683 136.554 32.1614 136.554 32.6579 136.554C34.1475 136.306 35.3889 135.81 36.8785 135.314C38.8647 134.818 41.0991 135.314 42.837 135.066C44.0784 134.818 45.0714 134.322 46.3128 134.322C47.0576 134.322 47.5542 134.322 48.299 134.322C52.7678 134.074 56.7402 132.834 61.209 132.586C61.9538 131.594 63.6917 130.85 65.1814 129.857C66.1744 130.105 66.9193 130.601 68.1606 130.601C68.9054 130.601 69.402 130.601 69.6502 130.849C71.8847 130.105 74.3674 129.113 77.0983 128.865C78.8362 128.617 79.581 128.865 81.3189 128.865C81.8155 128.369 81.8155 128.121 82.0638 127.625C83.0568 127.377 84.2982 127.377 85.2913 127.129C86.5326 126.881 88.0222 126.633 89.2636 126.137L96.7117 123.904C97.7048 123.656 98.9461 123.408 99.9392 122.912C100.932 122.416 101.677 122.168 102.67 121.672C104.16 121.176 104.656 121.176 106.146 121.424C107.139 121.424 112.104 118.696 112.849 118.199C111.856 118.696 115.332 119.44 116.077 119.44C118.063 119.44 120.297 118.448 122.532 118.199C122.78 117.207 123.028 116.215 123.028 115.471C123.028 115.719 124.27 115.967 124.518 116.215C125.511 116.463 126.256 116.463 127.994 115.967C129.732 115.471 131.966 114.975 133.704 113.983C133.952 113.735 134.201 113.487 134.449 113.487C136.932 112.247 138.421 111.502 141.152 110.758C142.642 110.262 144.38 109.766 146.118 109.022C147.855 108.278 149.593 107.534 151.083 107.038C153.566 106.046 156.297 105.053 158.779 103.813C159.772 103.317 162.007 102.573 162.503 101.829C163.248 100.837 161.262 101.581 160.021 102.077C160.021 101.829 160.269 101.829 160.269 101.581C160.269 101.333 159.772 101.333 159.524 101.333C159.028 101.085 159.772 100.589 160.517 100.093C160.517 99.8445 160.021 99.3484 159.524 99.3484C158.779 99.3484 155.304 100.837 154.31 101.333C155.304 100.837 156.297 100.093 157.29 99.5965C157.538 99.3484 158.779 98.8524 159.028 98.8524C159.524 98.6043 159.772 97.8602 159.028 98.1082C158.779 98.1082 157.786 98.6043 157.538 98.8524L155.8 99.5965C154.559 100.093 153.566 100.589 152.573 101.085C150.09 102.077 147.359 103.565 144.628 104.557C146.366 103.813 148.104 102.821 149.842 102.077C151.828 101.085 154.062 100.093 156.048 99.1004C156.545 98.8524 157.538 98.3563 158.035 98.1082C159.028 97.3641 157.041 97.6121 157.041 97.3641C157.041 97.3641 157.29 97.3641 157.29 97.1161C157.538 96.868 158.035 96.1239 158.531 95.8759C158.779 95.6278 160.517 94.3876 160.269 94.1396C160.269 94.1396 159.772 94.1396 159.276 94.3876C158.779 94.6357 158.283 94.6357 158.035 94.6357C157.538 94.8837 156.297 95.3798 156.297 94.8837C153.566 95.8759 150.586 97.3641 147.855 98.3563C146.118 99.1004 144.38 99.8445 142.642 100.589C142.145 100.837 141.649 100.837 140.904 101.085C142.642 100.341 144.38 99.5965 146.118 98.8524C146.614 98.6043 147.359 98.3563 147.855 98.1082C147.607 98.1082 147.359 98.1082 147.607 98.1082C148.352 97.8602 149.097 97.6121 149.842 97.3641C150.586 97.1161 150.835 96.868 151.331 96.62C151.579 96.372 151.579 96.372 151.828 96.372C152.076 96.1239 152.573 96.1239 152.573 95.8759C152.821 95.6278 152.821 95.6278 152.821 95.3798C153.566 94.8837 154.807 94.6357 155.552 93.8916C156.048 93.3955 155.552 93.3955 155.8 92.8994C156.545 92.6514 157.29 91.9072 157.786 91.6592C156.048 92.4033 154.062 93.3955 152.324 94.1396C152.821 93.8916 153.317 93.6435 153.814 93.3955C154.559 93.1474 155.304 92.6514 156.048 92.1553C156.297 91.9072 156.297 91.9072 156.545 91.6592C156.297 91.9072 156.048 91.1631 156.048 90.9151C156.048 90.9151 155.8 90.667 155.552 90.667C155.552 90.667 155.055 90.667 155.055 90.9151C155.055 90.667 154.062 90.667 153.317 90.9151C154.062 90.419 155.055 89.9229 155.8 89.6749C156.048 89.6749 156.297 89.6749 156.545 89.4268C156.793 89.1788 157.041 88.9308 157.29 88.9308C157.538 88.6827 158.283 88.4347 158.531 88.4347C157.29 88.4347 156.545 88.4347 156.048 87.9386C155.552 87.4425 155.055 87.4425 153.317 88.1866C153.317 87.6906 153.566 87.1945 153.566 86.9464C152.573 87.1945 151.331 87.6906 150.338 87.9386C150.835 87.9386 151.828 86.2023 152.076 85.9543C152.573 85.4582 153.317 85.2102 153.814 84.7141C152.324 85.2102 150.835 85.9543 149.345 86.4504C148.6 86.6984 147.855 87.1945 147.111 87.4425C147.607 87.1945 150.835 85.7062 151.083 85.2102C151.331 84.9621 150.586 84.9621 150.338 84.9621C150.09 84.9621 150.09 84.7141 149.842 84.7141C149.097 84.7141 147.607 85.4582 146.862 85.7062C147.855 85.2102 150.835 84.218 150.586 83.4739C150.338 82.7298 147.359 84.466 146.366 84.9621C145.124 85.4582 143.635 86.2023 142.642 86.4504C144.876 85.4582 147.359 84.466 149.345 83.4739C150.338 82.9778 150.338 82.7298 150.09 82.4817C149.842 82.2337 149.593 81.9856 148.849 82.2337C147.607 82.4817 146.366 83.2258 145.124 83.7219C146.366 82.9778 148.352 81.9856 149.097 81.2415C149.345 80.9935 149.345 80.7454 149.345 80.4974C149.345 80.2494 149.593 80.0013 149.593 80.0013C149.593 79.5052 149.345 79.7533 148.6 80.0013C148.104 80.0013 147.607 80.2494 147.111 80.4974C148.849 79.5052 151.579 78.017 152.324 77.0248C151.331 77.2729 150.338 77.769 149.345 78.017C149.593 77.5209 149.097 77.5209 148.104 77.769C148.352 77.5209 148.6 77.2729 148.6 77.2729C148.6 77.0248 148.352 76.7768 148.352 76.5288C147.855 76.5288 147.359 76.7768 146.862 77.0248C147.111 76.5288 148.6 75.2886 148.104 75.0405C148.104 75.0405 147.855 75.0405 147.855 75.2886C145.869 76.0327 144.131 77.0248 142.145 77.769C139.414 79.0092 136.683 80.0013 133.704 80.9935C130.973 81.9856 127.994 82.9778 125.263 84.218C124.021 84.7141 123.028 84.9621 121.787 85.4582C120.049 85.9543 118.808 86.2023 117.318 86.4504C114.835 86.9464 113.098 87.6906 111.36 88.9308C110.615 88.6827 109.87 88.9308 108.877 89.4268C106.394 90.171 103.912 90.9151 101.429 91.1631C101.429 91.9072 100.932 92.4033 100.932 93.1474C99.691 93.1474 98.4496 92.8994 97.7048 92.4033C94.7256 93.1474 91.7463 94.1396 89.0153 94.8837C88.2705 95.1317 88.5188 94.8837 87.5257 95.3798C85.7878 95.8759 83.5534 97.8602 81.3189 97.8602C80.3259 97.8602 79.581 97.1161 78.8362 96.868C77.0983 97.6122 75.1122 97.8602 73.126 98.6043C71.8847 98.8523 70.8916 99.3484 69.6502 99.8445C68.1606 100.341 67.6641 100.341 66.1744 100.589C63.4435 100.837 60.4642 101.333 57.7332 101.581C56.4919 101.829 54.5057 102.325 53.0161 102.573C53.0161 102.573 49.7886 102.821 49.5403 103.069C48.5472 103.565 48.299 104.061 48.5472 104.557C46.8093 104.557 45.8163 104.061 44.0784 104.061C43.0853 104.061 39.8578 104.061 38.8647 104.309C37.8716 104.557 37.375 104.805 36.382 105.053C35.3889 105.301 33.8993 105.053 32.6579 105.301C29.4304 105.549 26.4512 106.294 23.2236 106.542C21.9823 106.542 20.9892 106.542 19.9961 106.79C17.0169 107.286 15.0307 108.526 12.2997 109.022C9.32048 109.518 3.1137 108.526 2.86542 110.51C1.3758 110.014 -0.1138 109.27 -1.8517 108.774C-3.34132 109.27 -5.82402 109.766 -7.56192 109.518V109.27C-10.5412 110.262 -13.5204 111.998 -17.4927 111.254C-18.7341 111.006 -24.6926 108.774 -25.9339 110.758C-29.658 111.006 -33.3821 111.006 -37.1061 111.254C-38.844 111.502 -40.0854 111.502 -41.8233 111.75C-42.0715 111.75 -42.8163 111.998 -43.8094 112.247C-44.306 112.495 -44.5542 112.495 -45.0508 112.495C-45.299 112.495 -45.5473 112.743 -45.5473 112.743C-48.2783 112.247 -50.761 111.502 -53.492 111.006C-54.485 110.758 -54.7333 110.51 -55.4781 110.262C-55.7264 110.262 -57.216 109.518 -57.7126 109.766C-58.9539 110.262 -60.6918 111.254 -62.9263 111.006C-63.6711 111.006 -64.6641 110.51 -65.409 110.758C-65.9055 110.758 -65.9055 111.254 -66.1538 111.254C-66.6503 111.75 -66.8986 111.998 -67.3951 112.495C-68.1399 112.247 -68.3882 111.998 -69.133 111.998C-70.6226 111.75 -73.1053 111.75 -74.8432 111.998C-76.8294 111.998 -79.0638 111.75 -80.8017 111.998C-81.7948 112.247 -82.0431 112.495 -82.5396 112.991C-84.5258 112.495 -86.7602 111.75 -89.2429 111.75C-90.7326 111.75 -92.4704 112.495 -93.7118 112.247C-94.4566 112.247 -94.9532 111.998 -95.9462 111.75C-97.1876 111.75 -98.9255 111.75 -100.167 111.75C-101.408 111.75 -102.65 111.75 -103.643 111.502C-104.884 111.254 -105.877 111.006 -107.118 111.006C-107.367 111.254 -107.615 111.75 -107.863 112.247C-108.36 111.75 -109.105 111.502 -110.346 111.254C-111.836 111.006 -113.077 111.502 -114.567 111.254C-115.063 111.254 -115.56 111.254 -116.304 111.254C-117.546 111.254 -118.787 111.254 -120.028 111.006C-121.022 111.006 -122.263 111.006 -123.008 111.254C-123.753 111.006 -123.753 110.51 -124.497 110.014C-124.994 110.014 -125.987 110.51 -126.484 110.51C-126.98 110.51 -127.725 110.262 -128.221 110.014C-130.208 109.518 -133.435 110.014 -131.449 111.006C-132.194 110.758 -133.435 110.51 -134.428 110.262C-135.421 110.014 -135.173 110.014 -136.166 110.014C-137.159 110.014 -138.152 110.014 -138.897 110.262C-140.138 110.262 -140.138 110.758 -140.883 111.254C-139.145 111.75 -136.663 111.502 -134.676 111.75C-133.683 110.51 -135.918 110.51 -137.656 110.51C-138.897 110.51 -138.649 110.51 -139.145 110.758C-139.642 111.006 -141.131 111.006 -140.883 111.502C-140.635 111.998 -139.642 112.247 -138.649 112.247Z" fill="#F4557B"/>
<path fill-rule="evenodd" clip-rule="evenodd" d="M-53.2438 246.188C-52.7472 245.94 -52.499 246.188 -52.0024 245.94C-52.0024 245.444 -51.7542 244.7 -51.7542 244.204C-52.2507 244.204 -52.2507 242.716 -52.7472 242.467C-52.2507 242.219 -52.2507 241.475 -51.7542 240.235C-51.5059 238.747 -51.0093 238.995 -50.7611 239.491C-50.2645 238.251 -50.0163 237.011 -49.768 236.018C-49.768 236.763 -50.0163 238.251 -50.0163 239.243C-50.0163 240.235 -50.5128 242.964 -50.2645 243.956C-50.0163 243.956 -49.768 243.212 -49.768 243.212C-49.5197 243.212 -49.5197 243.708 -49.5197 243.956C-49.2714 244.452 -48.7749 243.708 -48.7749 242.716C-48.5266 242.467 -48.5266 242.467 -48.2784 242.467C-47.7818 242.467 -47.5336 241.971 -47.037 241.723C-47.037 243.46 -47.5335 245.692 -47.2853 247.18H-47.037L-47.2853 247.428C-46.7887 247.428 -46.0439 247.18 -45.5474 247.18C-45.5474 246.188 -45.2991 245.196 -45.2991 244.452C-44.5543 243.708 -44.0578 243.956 -43.313 242.716C-43.313 241.971 -43.3129 239.739 -42.8164 240.731C-42.3199 238.499 -41.8233 236.018 -41.3268 233.538C-41.5751 236.018 -42.0716 239.739 -41.5751 241.971C-41.3268 241.227 -40.582 239.739 -40.0854 240.235C-40.0854 240.979 -40.0854 241.475 -40.0854 242.219C-40.0854 242.467 -40.0854 243.46 -39.8372 243.708H-39.5889C-39.3406 243.956 -39.3406 243.956 -39.3406 244.452C-39.3406 244.7 -39.3406 245.692 -39.0924 245.692L-38.8441 245.196C-38.8441 245.196 -38.5958 245.196 -38.3475 245.196C-38.0993 245.196 -37.851 244.948 -37.6027 244.7C-37.851 245.94 -37.851 247.676 -37.3545 247.18C-37.1062 246.932 -36.3614 246.932 -36.1131 246.436C-36.3614 246.188 -36.6096 245.444 -36.3614 244.948C-36.1131 244.452 -35.8648 244.7 -35.6166 244.7L-35.3683 242.964C-34.8717 242.715 -34.8718 242.219 -34.6235 241.971C-34.6235 242.467 -34.6235 244.948 -34.3752 244.948C-34.1269 244.948 -33.3821 242.964 -33.1339 242.467C-33.1339 243.212 -33.1339 244.7 -32.8856 244.7C-32.389 244.7 -32.1408 243.956 -31.8925 243.708C-31.8925 245.196 -32.6373 246.684 -32.6373 248.172C-32.389 247.924 -32.1408 247.924 -32.1408 247.924C-32.1408 248.668 -31.6442 248.917 -31.396 248.668C-31.1477 248.42 -31.1477 247.676 -30.6512 247.924C-30.4029 247.428 -30.1546 246.932 -29.9063 246.188C-30.1546 245.692 -30.6512 245.444 -30.6512 244.948C-30.4029 244.7 -30.1546 244.452 -30.1546 244.204C-29.9063 243.708 -29.9063 242.964 -29.6581 242.467C-29.6581 242.716 -29.6581 242.964 -29.6581 243.212C-29.4098 242.716 -29.1615 242.219 -28.9133 241.971C-28.9133 242.964 -28.9133 244.204 -28.9133 245.196C-28.9133 245.94 -28.9133 246.188 -28.665 246.436L-28.4167 246.188C-28.1684 246.436 -28.4167 247.18 -27.9202 246.932C-27.4236 246.684 -27.4236 245.444 -27.1754 244.7C-27.1754 245.444 -27.1754 246.436 -26.9271 246.932C-26.9271 247.428 -26.9271 247.676 -26.6788 248.172C-26.4306 247.924 -26.4305 247.924 -26.1823 247.924C-25.934 247.924 -25.6857 248.172 -25.4375 247.428C-25.4375 248.172 -25.4375 249.413 -24.9409 248.172C-24.9409 247.924 -24.9409 247.676 -24.6927 247.428C-24.6927 247.18 -24.6927 246.932 -24.6927 246.684C-24.4444 245.196 -24.4444 243.46 -23.9478 241.971C-23.4513 240.483 -22.7065 238.995 -22.9548 237.259C-22.9548 236.266 -23.4513 236.018 -23.4513 235.026C-23.4513 233.786 -22.7065 231.802 -22.4582 230.562C-21.9617 228.329 -21.4651 225.849 -20.7203 223.864C-20.2238 222.624 -19.7272 221.632 -19.2307 220.392C-18.7342 218.904 -18.9824 217.415 -18.4859 215.927C-18.2376 214.687 -17.4928 214.439 -17.2445 213.695C-16.748 212.703 -16.748 212.207 -16.4997 211.214C-16.0032 209.478 -15.5067 207.742 -14.5136 206.502C-14.2653 206.254 -14.017 206.006 -13.7687 205.758C-13.5205 205.013 -13.2722 203.773 -13.0239 203.029C-12.5274 201.541 -11.5343 199.805 -11.0378 198.316C-10.7895 197.572 -10.7895 196.828 -10.293 196.084C-9.79645 194.596 -8.80337 193.108 -8.30682 191.619C-7.31374 188.395 -5.82412 185.914 -4.33449 182.938C-2.84487 179.465 -1.10698 176.489 0.630905 173.264C1.12745 172.272 1.87228 171.032 2.36882 170.04C3.11363 168.304 2.36881 168.552 3.85844 166.815C5.59633 164.583 6.09288 163.591 7.08596 161.11C7.5825 160.118 8.07904 159.374 8.57558 158.134C9.07212 157.142 9.32038 155.157 10.3135 154.909C10.0652 153.669 10.3135 151.685 10.81 149.949C11.5548 149.949 12.2997 149.453 13.2927 149.453C14.5341 147.22 15.0306 144.244 16.7685 142.259C17.5133 141.515 18.2581 141.267 18.7547 140.771C20.9891 138.291 22.9753 133.082 24.9614 130.105C25.9545 128.865 26.6993 127.377 27.6924 126.137C27.9407 125.641 28.4372 125.145 28.6855 124.897C29.4303 123.904 29.4303 122.664 29.9269 121.672C30.6717 120.184 32.1613 118.944 32.9061 117.703C33.4026 116.711 33.6509 115.967 34.1475 114.975C34.3957 114.479 34.8923 114.231 35.1405 113.735C37.1267 110.758 38.6163 107.534 40.8508 104.805C40.6025 103.813 40.8508 102.325 41.099 100.837C41.8438 100.589 42.5887 100.341 43.3335 99.5965C43.83 99.1004 43.83 98.8524 44.3266 98.8524C45.0714 96.8681 45.8162 94.8837 47.0575 93.1475C47.8023 91.9073 48.5472 91.6592 49.5402 90.6671C49.5402 90.171 49.292 89.9229 49.0437 89.4269C49.5402 88.6827 50.0368 87.9386 50.5333 87.1945C51.0299 86.2023 51.7747 85.2102 52.2712 84.218C53.2643 82.2337 54.2574 80.4974 55.2505 78.5131C55.747 77.769 56.2435 77.0249 56.4918 76.0327C56.7401 75.2886 56.9884 74.5445 57.2366 73.8003C57.7332 72.5601 58.2297 72.3121 59.2228 71.816C59.9676 71.3199 61.209 66.8552 61.209 66.1111C60.9607 67.1033 63.6917 65.615 64.1882 65.367C65.4296 64.3748 66.1744 62.3905 67.4157 61.1503C66.9192 60.4062 66.4226 59.414 65.9261 58.9179C66.1744 59.166 67.1674 58.6699 67.4157 58.6699C68.4088 58.4219 68.6571 57.9258 69.4019 56.6856C70.1467 55.4454 71.3881 53.9571 71.8846 52.7169C71.8846 52.4689 71.8846 52.2209 72.1329 51.9728C72.8777 49.7405 73.6225 48.5003 74.8638 46.764C76.3535 44.7797 78.0914 41.8032 79.3327 39.5708L82.8085 33.6179C83.305 32.8738 84.5464 31.1375 84.2981 30.6414C84.0499 29.6492 83.305 31.1375 82.8085 31.8816C82.5602 31.8816 82.8085 31.6336 82.5602 31.3855C82.312 31.1375 82.0637 31.3855 81.8154 31.3855C81.3189 31.3855 81.3189 30.6414 81.8154 29.8973C81.5671 29.8973 81.0706 29.6492 80.8223 29.8973C80.3258 30.1453 78.5879 32.8738 78.3396 33.6179C78.5879 32.8738 79.0844 31.8816 79.581 31.1375C79.581 30.8894 80.0775 30.1453 80.3258 29.6492C80.5741 29.1532 80.3258 28.6571 79.8292 28.9051C79.581 29.1532 79.3327 29.8973 79.0844 30.1453L78.3396 31.3855C77.8431 32.1296 77.3465 33.1218 76.85 33.8659C75.6087 35.8502 74.6156 38.0826 73.3742 40.0669C74.119 38.5787 74.6156 37.3385 75.3604 35.8502C76.1052 34.114 77.0983 32.3777 78.0914 30.6414C78.3396 30.1453 78.8362 29.6492 78.8362 29.1532C79.0844 28.161 77.8431 29.1532 77.5948 28.9051V28.6571C77.5948 28.409 77.5948 27.6649 77.8431 27.1688C77.8431 26.6728 78.3396 25.1845 78.0914 25.1845C78.0914 25.1845 76.85 26.4247 76.85 26.6728C76.6017 27.1688 76.1052 27.913 75.8569 27.6649C74.3673 29.6492 73.1259 31.8816 71.8846 34.114C71.1398 35.3542 70.395 36.8424 69.4019 38.0826C69.1536 38.5787 68.9053 38.8267 68.6571 39.3228L70.8915 35.1061C71.1398 34.61 71.6363 34.114 71.6363 33.6179C71.3881 33.8659 71.388 33.8659 71.388 33.6179C71.6363 33.1218 72.1329 32.6257 72.3811 32.1296C72.6294 31.6336 72.8777 31.3855 72.8777 30.8894C72.8777 30.6414 72.8777 30.6414 72.8777 30.3934C72.8777 30.1453 73.1259 29.8973 73.3742 29.6492C73.3742 29.4012 73.3742 29.4012 73.3742 29.1532C73.6225 28.409 74.3673 27.6649 74.3673 26.9208C74.3673 26.4247 74.119 26.4247 73.8707 26.1767C74.119 25.6806 74.3673 24.9365 74.6156 24.1924C73.6225 25.6806 72.8777 27.1688 72.1329 28.6571C72.3811 28.161 72.3811 27.913 72.6294 27.4169C72.8777 26.9208 73.3742 26.1767 73.3742 25.6806C73.3742 25.4326 73.3742 25.4326 73.6225 25.1845C73.6225 25.4326 72.8777 24.9365 72.8777 24.9365C72.8777 24.9365 72.6294 24.9365 72.3811 24.9365L72.1329 25.1845C71.8846 24.9365 71.1398 25.4326 70.8915 25.9286C71.1398 25.4326 71.3881 24.4404 71.8846 23.9443C72.1329 23.6963 72.1329 23.6963 72.3811 23.4482C72.6294 23.2002 72.6294 22.9522 72.6294 22.7041C72.8777 22.4561 73.1259 21.96 73.3742 21.712C72.6294 22.208 71.8846 22.7041 71.388 22.4561C70.6432 22.4561 70.395 22.4561 69.6502 23.9443C69.4019 23.6963 69.4019 22.9522 69.1536 22.7041C68.6571 23.4482 67.9123 24.1924 67.4157 24.9365C67.664 24.6884 67.4157 22.9522 67.4157 22.7041C67.4157 22.208 67.9123 21.4639 67.9123 20.9678C67.1675 22.208 66.4226 23.2002 65.6778 24.4404C65.4296 24.9365 64.933 25.6806 64.6847 26.1767C64.933 25.6806 66.4226 22.9522 66.1744 22.7041C66.1744 22.4561 65.6778 22.7041 65.4296 22.9522C65.1813 22.9522 65.1813 22.9522 64.933 22.9522C64.4365 23.2002 63.6917 24.4404 63.4434 25.1845C63.9399 24.1924 65.4296 22.208 64.933 21.712C64.4365 21.2159 63.1951 23.9443 62.6986 24.6884C62.202 25.6806 61.4572 26.9208 60.9607 27.6649C61.9538 25.6806 63.1951 23.9443 63.9399 21.96C64.4365 21.2159 64.4365 20.9678 63.9399 20.7198C63.6917 20.7198 63.4434 20.7198 62.9469 21.2159C62.202 21.96 61.7055 23.2002 60.9607 24.1924C61.4572 22.9522 62.4503 21.2159 62.4503 20.2237C62.4503 19.7276 62.202 19.7276 62.202 19.4796C62.202 19.2316 62.202 18.9835 62.202 18.7355C61.9538 18.4874 61.9538 18.4874 61.4572 18.9835C61.2089 19.2316 60.7124 19.7276 60.4641 19.9757C60.9607 18.2394 62.4503 16.007 62.202 14.7668C61.7055 15.511 60.9607 16.2551 60.4641 16.9992C60.4641 16.2551 59.9676 16.7512 59.4711 17.2472C59.4711 16.9992 59.4711 16.7512 59.4711 16.5031C59.4711 16.2551 58.9745 16.2551 58.7262 16.007C58.478 16.2551 57.9814 16.7512 57.9814 17.2472C57.9814 16.5031 58.478 15.0149 57.7332 15.0149C57.7332 15.0149 57.7332 15.2629 57.4849 15.2629L54.5057 19.9757C51.7747 24.4404 48.7954 29.1532 46.3127 33.6179C45.8162 34.61 45.3196 35.3542 44.5748 36.3463C43.5817 37.8346 42.8369 38.3306 42.0921 39.5708C40.6025 41.3071 40.106 42.7954 39.6094 44.7797C39.1129 45.0277 38.6163 45.5238 38.3681 46.516C37.1267 48.5003 35.8854 50.2365 34.644 52.2209C35.1405 52.7169 35.3888 53.4611 35.6371 53.9571C34.8923 54.7013 33.6509 55.1973 33.1544 55.4454C31.913 57.6777 30.4234 60.1581 29.182 62.3905C28.9338 63.1346 28.9338 62.6385 28.4372 63.6307C27.9407 65.1189 27.4442 67.5993 26.2028 69.0876C25.458 69.8317 24.4649 69.8317 23.9684 70.0797C23.2236 71.568 22.4787 73.0562 21.7339 74.7925C21.2374 75.7847 20.9891 76.7768 20.4926 77.769C19.996 79.0092 19.7478 79.5053 19.003 80.4974C17.5133 82.4817 16.0237 84.4661 14.7824 86.4504C14.0376 87.4425 13.2927 88.9308 12.7962 89.9229C12.7962 89.9229 11.3066 92.1553 11.0583 92.4033C10.81 93.3955 11.0583 93.8916 11.8031 94.1396C10.81 95.1318 9.56865 95.6279 8.82384 96.868C8.32729 97.6122 6.58942 99.5965 6.09288 100.589C5.8446 101.333 5.8446 101.829 5.34806 102.573C4.85151 103.317 4.10671 104.309 3.61017 105.301C2.12054 107.782 0.879177 110.262 -0.610447 112.495C-1.10698 113.239 -1.60352 113.983 -2.10006 114.975C-3.34142 117.455 -3.34141 119.44 -4.33449 121.424C-5.57584 123.656 -9.2999 127.625 -8.05855 128.865C-9.2999 129.609 -10.5412 130.105 -11.7826 131.346C-12.0309 132.586 -13.0239 134.818 -14.017 135.81L-14.2653 135.562C-15.0101 138.291 -14.7618 141.267 -17.4928 143.996C-18.2376 144.74 -23.203 147.964 -21.9617 149.949C-23.4513 152.925 -25.1892 155.654 -26.6788 158.878C-27.1754 160.118 -27.9202 161.358 -28.1685 162.599C-28.1685 162.847 -28.4167 163.591 -28.4167 164.335C-28.4167 164.831 -28.665 165.079 -28.665 165.327C-28.665 165.575 -28.665 165.823 -28.665 165.823C-30.1546 167.807 -31.8925 169.544 -33.3821 171.28C-33.8787 172.024 -34.3752 172.024 -34.8717 172.52C-35.12 172.52 -36.1131 173.512 -36.1131 174.008C-36.1131 175.249 -36.1131 176.985 -36.8579 178.721C-37.1062 179.465 -37.851 179.961 -38.0993 180.706C-38.0993 181.202 -37.851 181.202 -37.851 181.45C-37.6027 181.946 -37.6027 182.442 -37.3545 182.938C-37.851 183.434 -38.0993 183.682 -38.5958 183.93C-39.5889 185.17 -40.0854 187.155 -40.8302 188.643C-41.3268 190.379 -42.5681 192.115 -42.8164 193.604C-43.0647 194.596 -42.8164 194.844 -42.3199 195.34C-43.5612 196.828 -44.8026 198.564 -45.5474 200.797C-46.0439 202.037 -46.0439 203.773 -46.2922 205.013C-46.5405 205.51 -47.037 206.006 -47.2853 206.75C-47.7818 207.742 -48.0301 209.23 -48.2784 210.47C-48.5266 211.462 -49.0232 212.455 -49.5197 213.447C-50.0163 214.439 -50.2645 215.431 -50.7611 216.423C-50.5128 216.671 -50.0163 216.919 -49.768 217.415C-50.2645 217.663 -50.7611 218.408 -51.2576 219.4C-51.7542 220.64 -51.7542 221.88 -52.0024 223.12C-52.0024 223.616 -52.2507 224.113 -52.499 224.609C-52.7472 225.601 -52.9955 226.841 -53.2438 227.833C-53.492 228.825 -53.492 229.817 -53.492 230.562C-53.9886 231.058 -54.4851 231.058 -54.7334 231.802C-54.7334 232.298 -54.4851 233.29 -54.7334 233.786C-54.7334 234.282 -55.2299 234.778 -55.4782 235.274C-56.223 237.011 -55.9748 239.987 -54.9817 238.251C-55.4782 238.995 -55.7265 239.987 -55.9747 240.731C-56.223 241.723 -56.223 241.475 -56.223 242.219C-56.223 242.964 -56.223 243.956 -56.223 244.948C-56.223 245.94 -55.7265 246.188 -55.4782 246.932C-54.9817 245.196 -54.7334 242.964 -54.4851 241.227C-54.2369 242.467 -54.4851 244.7 -54.7334 245.94C-54.7334 247.18 -54.7334 246.684 -54.4851 247.18C-54.2369 247.676 -54.4851 248.917 -53.9886 248.917C-53.492 248.172 -53.2438 247.18 -53.2438 246.188Z" fill="#F4557B"/>
<path fill-rule="evenodd" clip-rule="evenodd" d="M145.373 187.651C145.124 187.155 145.621 186.907 145.373 186.41C144.628 186.162 144.131 185.914 143.387 185.666C143.387 186.162 141.649 185.914 141.152 186.162C140.904 185.418 140.159 185.418 138.669 184.674C136.931 183.93 137.18 183.682 137.925 183.434C136.683 182.69 135.194 182.194 133.704 181.698C134.697 181.946 136.435 182.442 137.676 182.69C138.918 182.938 142.145 184.178 143.138 184.178C143.138 183.93 142.393 183.682 142.393 183.434C142.393 183.186 142.89 183.434 143.138 183.186C143.883 182.938 143.138 182.442 141.649 182.194C141.4 181.946 141.649 181.946 141.649 181.698C141.649 181.202 141.152 180.706 140.904 180.209C142.89 180.706 145.621 181.698 147.359 181.946C147.359 181.946 147.359 181.698 147.359 181.45L147.607 181.698C147.855 181.202 147.359 180.458 147.855 179.961C146.614 179.713 145.621 179.217 144.38 178.969C143.635 178.225 143.883 177.481 142.642 176.737C141.649 176.489 138.918 175.993 140.407 175.745C137.428 174.753 134.449 173.76 131.718 172.768C134.697 173.512 139.662 174.753 142.393 175.001C141.4 174.505 139.911 173.512 140.407 173.016C141.152 173.264 141.897 173.264 142.89 173.512C143.387 173.512 144.38 173.76 144.628 173.76C144.876 173.76 144.628 173.512 144.628 173.512C144.876 173.512 144.876 173.512 145.869 173.512C146.117 173.512 147.359 173.76 147.607 173.76C147.607 173.76 147.111 173.264 146.862 173.264C146.862 173.016 146.862 173.016 146.862 172.768C146.862 172.52 146.614 172.272 146.366 171.776C147.855 172.272 150.09 173.016 149.842 172.272C149.593 171.776 149.593 171.28 149.345 170.784C149.097 171.032 148.104 171.032 147.359 170.536C146.862 170.288 147.111 170.04 147.111 169.792L145.124 169.048C144.876 168.552 144.38 168.304 143.883 168.056C144.628 168.304 147.855 169.048 147.855 168.8C147.855 168.552 145.124 167.311 144.876 166.815C145.869 167.063 147.855 167.559 147.855 167.063C148.104 166.815 146.862 166.071 146.862 165.823C148.848 166.319 150.835 167.559 152.573 167.807C152.324 167.559 152.324 167.311 152.324 167.063C153.317 167.311 153.814 166.815 153.566 166.567C153.317 166.319 152.324 165.823 152.821 165.575C152.076 165.079 151.331 164.831 150.586 164.335C149.842 164.335 149.593 164.831 148.6 164.831C148.104 164.583 148.104 164.335 147.607 164.087C147.111 163.839 145.869 163.343 145.373 163.095C145.621 163.095 146.117 163.095 146.366 163.343C145.869 162.847 145.124 162.599 144.628 162.351C146.117 162.599 147.359 163.095 148.848 163.343C149.842 163.591 150.09 163.591 150.586 163.343L150.338 163.095C150.835 162.847 151.579 163.343 151.579 162.847C151.331 162.351 149.593 161.855 148.848 161.358C149.842 161.606 151.331 161.855 151.828 161.855C152.324 161.855 153.069 162.103 153.566 162.103C153.069 161.855 153.317 161.855 153.317 161.606C153.317 161.358 153.566 161.11 152.821 160.862C154.062 161.11 155.552 161.358 153.814 160.614C153.566 160.366 153.069 160.366 152.821 160.118C152.324 160.118 152.076 159.87 151.579 159.622C149.345 158.878 147.111 158.382 145.124 157.39C143.138 156.646 140.904 155.406 138.669 155.157C137.428 154.909 136.931 155.406 135.442 155.157C133.704 154.909 130.973 153.669 129.235 153.173C126.256 152.181 122.78 151.437 120.049 150.197C118.311 149.453 117.07 148.708 115.084 147.964C112.849 147.22 111.111 147.22 109.125 146.476C107.387 145.98 107.139 145.236 105.898 144.74C104.656 144.244 103.663 143.996 102.422 143.748C99.9392 143.252 97.7047 142.259 95.9668 141.019C95.4703 140.771 95.4703 140.275 94.7255 140.027C93.7324 139.531 92.2428 139.283 91.0014 139.035C88.767 138.291 86.5326 137.299 84.2981 136.554C83.3051 136.306 82.312 136.058 81.3189 135.81C79.0845 135.066 77.3466 134.074 75.1121 133.33C70.8915 132.09 67.1675 130.353 62.9469 128.865C58.2297 127.129 54.0091 125.393 49.292 123.408C48.0506 122.912 46.3127 121.92 44.8231 121.672C42.3404 120.928 42.8369 121.672 40.3542 119.936C37.1267 117.951 35.8854 117.703 32.1613 116.463C30.6717 115.967 29.6786 115.471 28.189 114.975C26.6994 114.479 24.2167 114.231 23.7201 113.239C21.9822 113.487 19.7478 113.239 17.5134 112.743C17.2651 111.999 16.5203 111.006 16.0237 110.262C13.0445 109.022 9.07217 108.526 6.34119 106.542C5.34811 105.798 4.85156 105.053 3.85849 104.557C0.13443 102.077 -6.3206 100.093 -10.5412 98.1083C-12.2791 97.1161 -14.2652 96.124 -16.2514 95.3798C-16.748 95.1318 -17.4928 94.3877 -18.2376 94.1396C-19.7272 93.3955 -21.2168 93.3955 -22.4582 92.6514C-24.4443 91.9073 -26.1822 90.171 -27.9201 89.4269C-29.1615 88.9308 -30.1546 88.6828 -31.3959 88.1867C-32.1407 87.9386 -32.389 87.4426 -33.1338 87.1945C-38.3475 84.9622 -42.5681 83.2259 -46.2922 80.7455C-47.2852 80.9935 -49.5197 80.7455 -51.2576 80.4975C-51.7541 79.7533 -52.2506 79.0092 -53.2437 78.0171C-53.7403 77.521 -54.2368 77.2729 -54.4851 77.0249C-56.9678 76.2808 -59.4505 75.2886 -61.9332 73.8004C-63.6711 72.8082 -63.9194 72.0641 -65.409 71.0719C-65.9055 71.0719 -66.1538 71.32 -66.8986 71.568C-67.8917 71.0719 -68.8848 70.3278 -69.8779 69.8317C-71.1192 69.0876 -72.3606 68.5915 -73.6019 67.8474C-76.0846 66.6072 -78.5673 65.367 -81.05 64.3749C-82.0431 63.8788 -83.0362 63.3827 -84.2775 62.8866C-85.2706 62.3905 -86.2637 62.3905 -87.2568 61.8945C-88.7464 61.3984 -88.9947 60.6543 -89.9878 59.6621C-90.7326 58.918 -96.4428 57.1817 -97.1876 57.1817C-96.1945 57.4297 -98.1807 54.4533 -98.6772 53.9572C-100.167 52.4689 -102.401 51.4768 -104.387 50.2366C-105.381 50.7327 -106.125 50.9807 -106.622 51.7248C-106.374 51.4768 -107.118 50.4846 -107.367 49.9885C-107.863 48.9964 -108.36 48.5003 -110.098 47.5081C-111.836 46.516 -113.573 45.2758 -115.311 44.5317C-115.56 44.2836 -115.808 44.5317 -116.304 44.2836C-119.035 43.2915 -120.525 42.5473 -123.008 40.8111C-125.739 38.8267 -129.463 37.0905 -132.442 35.3542L-139.89 30.8895C-141.38 29.8973 -143.366 28.6571 -144.359 28.6571C-145.6 28.6571 -143.614 29.8973 -142.621 30.3934C-142.621 30.6414 -143.118 30.3934 -143.118 30.6414C-143.366 30.8895 -142.869 31.1375 -142.869 31.3855C-142.869 31.8816 -143.614 31.6336 -144.607 31.1375C-144.607 31.3855 -144.856 31.8816 -144.607 32.3777C-144.111 32.8738 -140.635 35.1061 -139.89 35.6022C-140.883 35.1061 -142.125 34.6101 -143.118 34.114C-143.366 33.8659 -144.607 33.3699 -144.856 33.1218C-145.352 32.8738 -146.097 33.1218 -145.6 33.6179C-145.352 33.8659 -144.359 34.362 -144.111 34.6101L-142.373 35.6022C-141.38 36.0983 -140.138 36.5944 -139.145 37.3385C-136.663 38.8267 -133.683 40.315 -131.201 41.8032C-132.939 41.0591 -134.676 40.0669 -136.663 39.0748C-138.897 38.0826 -141.132 36.8424 -143.118 35.6022C-143.614 35.3542 -144.607 34.8581 -145.104 34.6101C-146.345 34.114 -144.856 35.8503 -145.104 35.8503H-145.352C-145.849 35.8503 -146.593 35.6022 -147.338 35.6022C-147.835 35.3542 -149.821 34.8581 -149.821 35.1061C-149.821 35.1061 -149.324 35.3542 -149.076 35.8503C-148.58 36.0983 -148.083 36.5944 -148.083 36.5944C-147.587 36.8424 -146.345 37.5865 -146.842 37.8346C-144.111 39.5709 -141.38 41.3071 -138.401 42.7954C-136.663 43.7875 -134.925 44.7797 -133.187 45.7719C-132.69 46.0199 -132.194 46.516 -131.697 46.764C-133.435 45.7719 -135.173 44.7797 -136.911 44.0356C-137.407 43.7875 -138.152 43.2915 -138.649 43.0434C-138.401 43.2915 -138.401 43.2915 -138.401 43.2915C-139.145 42.7954 -139.642 42.2993 -140.387 42.0513C-141.132 41.5552 -141.38 41.3071 -142.125 41.3071C-142.373 41.0591 -142.621 41.0591 -142.869 41.0591C-143.118 41.0591 -143.366 40.563 -143.862 40.563C-144.111 40.563 -144.111 40.563 -144.359 40.563C-145.352 40.0669 -146.345 39.3228 -147.338 39.0748C-148.083 38.8267 -147.835 39.3228 -148.083 39.5709C-148.828 39.0748 -149.821 38.8267 -150.566 38.5787C-148.828 39.5709 -146.593 40.8111 -144.856 41.8032C-145.104 41.3071 -145.6 41.0591 -146.097 40.8111C-146.842 40.563 -147.835 39.8189 -148.331 39.5709C-148.58 39.5709 -148.828 39.5709 -149.076 39.3228C-148.828 39.5709 -149.324 40.0669 -149.324 40.0669C-149.324 40.0669 -149.324 40.315 -149.076 40.563L-148.58 41.0591C-148.828 41.3071 -148.083 42.0513 -147.338 42.5473C-148.083 42.2993 -149.324 41.8032 -150.069 41.3071C-150.318 41.0591 -150.566 41.0591 -150.814 40.8111C-151.062 40.563 -151.559 40.563 -151.807 40.315C-152.055 40.0669 -152.8 39.8189 -153.048 39.5709C-152.304 40.563 -151.807 41.3071 -151.807 41.8032C-151.807 42.5473 -151.559 42.7954 -149.821 43.7875C-150.069 44.0356 -150.814 44.0356 -151.062 44.2836C-150.069 45.0277 -149.076 45.7719 -148.083 46.516C-148.58 46.2679 -150.566 46.2679 -150.814 46.2679C-151.559 46.0199 -152.304 45.7719 -153.048 45.5238C-151.559 46.516 -150.069 47.5081 -148.58 48.2523C-147.835 48.7483 -146.842 49.2444 -146.345 49.7405C-146.842 49.4925 -150.566 47.5081 -150.814 47.5081C-151.062 47.5081 -150.566 48.0042 -150.566 48.2523C-150.566 48.5003 -150.566 48.5003 -150.318 48.7483C-149.821 49.2444 -148.331 50.2366 -147.338 50.7327C-148.58 49.9885 -151.311 48.2523 -151.807 48.7483C-152.304 49.2444 -148.828 50.9807 -147.835 51.4768C-146.593 52.2209 -144.856 52.965 -143.862 53.9572C-146.345 52.717 -148.828 51.2287 -151.062 49.9885C-152.055 49.4925 -152.304 49.4925 -152.552 49.7405C-152.552 49.9885 -152.552 50.2366 -151.807 50.9807C-150.814 51.9729 -149.076 52.717 -147.835 53.4611C-149.324 52.717 -151.559 51.4768 -152.8 51.4768C-153.297 51.4768 -153.297 51.7248 -153.793 51.7248C-154.042 51.7248 -154.29 51.7248 -154.538 51.7248C-155.035 51.9729 -154.786 51.9729 -154.042 52.4689C-153.545 52.965 -153.048 53.2131 -152.552 53.7091C-154.538 52.965 -157.766 51.2287 -159.255 51.2287C-158.262 51.9729 -157.269 52.717 -156.524 53.4611C-157.269 53.4611 -156.524 53.9572 -156.028 54.7013C-156.276 54.7013 -156.773 54.4533 -156.773 54.4533C-157.021 54.4533 -157.021 54.9493 -157.269 55.1974C-157.517 55.1974 -156.773 55.6935 -156.276 55.9415C-157.021 55.9415 -159.007 55.1974 -159.007 55.9415L-158.759 56.1895L-152.304 59.9101C-149.324 61.6464 -146.345 63.3827 -143.366 65.367C-140.387 67.1033 -137.407 68.8396 -134.18 70.5759C-132.939 71.32 -131.697 72.0641 -130.456 72.5602C-128.47 73.8004 -127.725 74.5445 -126.235 75.7847C-124.001 77.521 -121.766 78.2651 -119.532 79.0092C-119.035 79.7533 -118.291 80.0014 -117.298 80.7455C-114.567 82.2337 -112.084 83.722 -109.601 85.4582C-109.105 84.9622 -108.112 84.9622 -107.863 84.4661C-106.87 85.4582 -105.877 86.6984 -105.629 87.4426C-102.65 88.9308 -99.422 90.6671 -96.1945 92.1553C-95.4497 92.6514 -95.698 92.4034 -94.7049 92.8994C-92.7187 93.6436 -89.4912 94.1396 -87.5051 95.6279C-86.512 96.372 -86.2637 97.3642 -86.0154 98.1083C-84.0293 98.8524 -81.7948 99.8446 -79.8087 100.837C-78.5673 101.333 -77.0777 101.829 -75.8363 102.325C-74.3467 102.821 -73.6019 103.317 -72.3606 104.061C-69.6296 105.798 -66.6503 107.286 -63.9194 109.022C-62.678 109.766 -60.4436 110.51 -58.9539 111.254C-58.9539 111.254 -55.7264 112.991 -55.4782 112.991C-54.2368 113.239 -53.7403 112.991 -53.492 112.247C-52.0024 113.487 -51.2576 114.479 -49.5197 115.471C-48.5266 115.967 -45.5473 117.951 -44.306 118.448C-43.3129 118.944 -42.5681 118.944 -41.575 119.192C-40.3337 119.688 -39.0923 120.68 -37.851 121.176C-34.6234 122.912 -31.1477 124.152 -27.6719 125.641C-26.4305 126.137 -25.4374 126.881 -24.1961 127.377C-20.9686 128.617 -18.4859 128.617 -15.5066 129.857C-12.2791 131.098 -6.56886 135.066 -5.57579 133.578C-4.33443 134.818 -3.34135 136.306 -1.60345 137.547C0.134425 137.795 2.8654 138.787 4.35503 139.779L4.10675 140.027C7.58253 140.771 11.3066 140.523 15.0307 143.252C16.272 143.996 21.4857 148.956 23.4719 147.716C27.4442 149.453 31.1682 150.941 35.3888 152.429C37.1267 153.173 38.6163 153.669 40.3542 153.917C40.6025 153.917 41.5956 154.165 42.5887 154.165C43.0852 154.165 43.5818 154.413 43.83 154.413C44.0783 154.413 44.3266 154.413 44.3266 154.413C47.0576 156.15 49.292 157.638 51.7747 159.374C52.7678 159.87 53.0161 160.366 53.5126 160.862C53.7609 161.11 55.0022 162.351 55.747 162.351C57.2366 162.351 59.4711 162.351 61.7055 163.343C62.4503 163.591 63.4434 164.335 64.1882 164.583C64.6848 164.583 64.933 164.335 65.1813 164.335C65.6778 164.087 66.4227 164.087 66.9192 163.839C67.4157 164.335 67.9123 164.583 68.4088 165.079C69.8985 166.071 72.6294 166.815 74.3673 167.311C76.3535 168.056 78.5879 169.296 80.8224 169.792C81.8154 170.04 82.5603 169.792 82.8085 169.544C84.7947 170.784 86.7808 172.272 89.5118 173.264C91.0014 173.76 93.2359 173.76 94.4772 174.257C95.222 174.505 95.7186 175.001 96.7117 175.497C97.953 175.993 99.9392 176.489 101.181 176.985C102.422 177.481 103.663 177.977 104.905 178.473C106.146 178.969 107.139 179.713 108.629 179.961C108.877 179.713 109.373 179.465 109.87 179.217C110.367 179.713 111.111 180.458 112.353 180.954C113.842 181.698 115.332 181.698 116.822 182.194C117.318 182.442 118.063 182.69 118.559 182.938C119.801 183.434 121.042 183.93 122.284 184.426C123.277 184.922 124.518 185.17 125.511 185.17C126.256 185.666 126.008 186.162 126.752 186.659C127.497 186.659 128.49 186.659 128.987 186.907C129.483 187.155 130.228 187.651 130.725 187.899C132.711 188.891 136.435 189.387 134.201 187.899C134.945 188.395 136.187 188.891 137.18 189.635C138.173 190.131 137.925 190.131 138.918 190.379C139.911 190.627 140.904 190.875 141.897 191.123C143.138 191.371 143.387 190.875 144.131 190.875C142.393 189.883 139.662 189.139 137.676 188.395C139.166 188.643 141.649 189.387 143.387 189.635C144.628 189.883 144.38 189.883 144.876 189.883C145.621 189.883 146.862 190.131 147.111 189.883C147.359 188.643 146.614 187.899 145.373 187.651Z" fill="#F4557B"/>
</g>
<defs>
<clipPath id="clip0_473_13">
<rect width="163" height="270" fill="white"/>
</clipPath>
</defs>
</svg>
