<svg width="1606" height="646" viewBox="0 0 1606 646" fill="none" xmlns="http://www.w3.org/2000/svg">
<g clip-path="url(#clip0_459_14)">
<path d="M880.391 342.163C961.017 382.476 1052.16 357.937 1133.37 333.399C1131.62 329.893 1129.87 326.972 1127.53 323.467C1094.23 357.353 1074.95 402.924 1074.36 450.833C1077.28 449.08 1080.2 447.327 1083.13 445.575C1057.42 433.89 1029.96 430.968 1002.5 436.227C995.488 437.395 997.825 447.327 1004.25 447.327C1022.36 449.08 1039.89 457.844 1051.58 471.866C1065.6 488.225 1068.52 509.258 1069.1 530.291C1069.69 568.851 1066.77 620.265 1027.62 640.714C1007.76 651.23 984.972 645.972 964.523 638.961C946.411 632.534 928.884 624.355 912.525 613.838C880.391 593.39 850.594 565.346 831.314 532.628C828.393 527.954 823.719 518.021 831.898 515.1C837.741 513.348 845.336 515.685 851.179 516.269C864.616 517.437 878.054 518.606 891.492 519.774C918.367 522.111 945.243 524.448 972.118 526.785C979.129 527.369 979.129 517.437 973.871 515.685C937.063 502.247 900.255 488.809 862.864 474.787C855.853 472.45 852.931 483.551 859.942 485.888C896.75 499.326 933.558 512.763 970.95 526.785C971.534 523.28 972.118 519.19 972.702 515.685C944.074 513.348 915.446 510.426 886.818 508.089C872.796 506.921 858.774 505.752 845.336 504.584C834.82 503.415 823.135 503.415 818.461 514.516C814.371 524.448 819.629 534.38 824.887 543.144C830.73 552.492 837.741 561.256 844.752 570.02C858.774 586.963 875.717 602.153 893.829 615.007C911.94 627.86 931.805 638.377 952.254 646.556C974.455 655.32 1000.16 662.915 1023.53 655.904C1070.86 641.298 1081.37 586.379 1081.96 543.728C1082.54 517.437 1080.79 489.978 1064.43 468.36C1050.41 449.664 1028.79 438.564 1006 436.227C1006.59 439.732 1007.17 443.822 1007.76 447.327C1031.71 442.653 1056.83 445.575 1079.62 455.507C1083.71 457.26 1088.38 455.507 1088.38 450.249C1088.97 405.846 1107.08 363.195 1138.04 331.062C1142.13 326.972 1138.04 319.961 1132.2 321.13C1053.91 344.5 965.691 369.622 887.986 331.062C879.807 328.725 873.964 338.657 880.391 342.163Z" fill="#272727"/>
<path d="M1093.06 385.397C1143.89 412.272 1202.31 420.452 1258.4 409.351C1256.06 406.43 1254.31 403.509 1251.97 400.587C1230.94 437.979 1217.5 478.293 1212.25 520.943C1214.58 519.19 1216.92 517.437 1219.84 515.1C1211.66 512.763 1202.9 510.426 1194.72 508.089C1191.21 506.921 1187.71 509.842 1187.12 513.932C1185.95 551.908 1183.62 595.142 1155.57 623.771C1143.3 636.04 1126.36 644.804 1108.83 644.219C1089.55 643.635 1074.36 630.782 1060.34 619.097C1054.5 614.423 1046.32 622.602 1052.16 627.276C1067.94 640.714 1084.29 653.567 1105.91 655.32C1125.19 657.073 1144.47 648.893 1159.08 636.624C1194.13 606.243 1197.64 556.582 1198.81 513.932C1196.47 515.685 1194.13 517.437 1191.21 519.774C1199.39 522.111 1208.16 524.448 1216.33 526.785C1220.42 527.954 1223.35 525.033 1223.93 520.943C1229.19 480.63 1242.04 441.485 1262.49 406.43C1265.41 401.756 1260.74 397.082 1256.06 397.666C1202.9 408.183 1147.39 400.003 1099.49 374.88C1092.47 371.959 1086.63 381.891 1093.06 385.397Z" fill="#272727"/>
<path d="M1228.6 402.924C1226.85 389.487 1224.51 376.633 1222.76 363.195C1219.26 364.948 1216.33 366.701 1212.83 369.038C1253.14 409.351 1310.98 430.384 1368.24 425.126C1366.49 422.789 1364.73 420.452 1362.4 417.53C1357.72 440.9 1353.05 464.27 1348.37 488.225C1347.21 494.651 1355.39 498.157 1358.89 492.899C1367.07 479.461 1375.83 466.023 1384.01 452.585C1381.09 453.17 1378.17 453.17 1374.67 453.754C1423.16 491.73 1485.67 484.719 1542.93 477.124C1541.18 473.618 1539.42 470.697 1537.09 467.192C1515.47 494.651 1498.53 525.032 1488.01 558.335C1490.35 557.166 1492.68 555.413 1495.02 554.245C1482.75 551.324 1469.9 547.818 1457.63 544.897C1452.95 543.728 1448.28 548.987 1451.2 553.661C1473.4 589.3 1465.22 640.129 1430.17 664.668C1395.7 688.622 1347.21 683.364 1320.33 650.646C1305.72 632.534 1298.13 608.58 1302.22 585.21C1303.39 577.615 1294.04 575.278 1291.12 582.289C1281.19 605.659 1269.5 633.703 1243.79 643.051C1216.92 652.983 1188.87 639.545 1177.19 613.838C1174.27 606.827 1164.34 612.67 1167.26 619.681C1180.11 648.893 1214 664.668 1244.38 654.736C1275.93 644.803 1289.95 613.254 1301.63 585.21C1298.13 584.041 1294.04 582.873 1290.53 582.289C1282.94 629.029 1313.32 678.69 1360.64 689.206C1407.97 699.723 1457.04 672.847 1471.07 626.107C1478.66 600.4 1475.16 571.188 1461.13 548.402C1458.8 551.324 1457.04 554.245 1454.71 557.166C1466.98 560.087 1479.83 563.593 1492.1 566.514C1495.02 567.098 1498.53 565.346 1499.11 562.424C1509.04 530.875 1524.82 501.662 1545.27 475.955C1548.77 471.281 1545.27 465.439 1539.42 466.023C1487.43 473.034 1427.25 480.629 1382.84 445.574C1379.92 443.237 1375.83 443.237 1373.5 446.743C1365.32 460.181 1356.55 473.618 1348.37 487.056C1351.88 488.809 1355.39 489.977 1358.89 491.73C1363.56 468.36 1368.24 444.99 1372.91 421.036C1373.5 417.53 1371.16 413.441 1367.07 413.441C1313.32 418.699 1258.4 399.419 1219.84 360.858C1215.17 356.184 1209.32 360.858 1209.91 366.701C1211.66 380.139 1214 392.992 1215.75 406.43C1218.09 413.441 1229.77 410.519 1228.6 402.924Z" fill="#272727"/>
<path d="M1604.31 463.893C1538.29 443.445 1460.58 452.209 1410.34 498.948C1378.79 528.745 1360.09 570.227 1351.33 612.877C1342.57 655.527 1343.15 699.346 1343.15 742.58C1334.97 723.884 1312.18 713.368 1292.9 719.795C1273.62 726.221 1261.35 747.838 1265.44 767.703C1232.73 646.763 1108.87 556.789 983.252 563.8C934.175 566.721 884.514 583.665 850.628 618.719C816.741 654.359 802.135 710.447 823.168 754.265C848.291 806.848 910.805 828.465 966.893 844.24C1035.83 864.104 1104.78 883.384 1173.72 903.249C1138.08 915.518 1120.55 964.011 1139.83 996.729C1156.19 1023.02 1193.58 1032.37 1221.63 1020.1C1198.26 1035.87 1175.47 1052.82 1157.36 1074.43C1135.16 1101.31 1120.55 1136.36 1127.56 1170.83C1135.74 1212.9 1173.13 1243.28 1211.11 1263.73C1301.08 1312.81 1408 1329.17 1508.49 1309.3L1771.4 581.328C1725.25 530.498 1669.74 484.342 1604.31 463.893ZM977.994 660.201C959.298 659.033 938.265 655.527 923.659 643.258C896.783 620.472 928.917 588.923 952.287 581.328C970.399 575.485 992.016 577.238 1010.13 579.575C1014.22 580.159 1018.89 580.159 1022.98 580.743C1041.68 582.496 1062.13 586.002 1077.32 597.102C1090.75 607.034 1099.52 622.809 1086.66 636.831C1073.81 651.437 1052.78 655.527 1034.67 657.28C1016.55 659.617 996.69 661.37 977.994 660.201ZM1115.88 662.538C1115.88 663.122 1115.88 664.291 1115.29 664.875C1115.29 666.044 1114.71 666.628 1114.12 667.212C1113.54 670.718 1112.37 673.639 1110.62 676.56C1109.45 678.897 1107.7 680.65 1105.94 682.987C1104.78 684.74 1102.44 685.908 1100.69 687.077C1097.18 689.414 1093.09 691.166 1089 692.335C1085.5 693.503 1081.41 694.672 1077.32 694.088C1072.06 693.503 1067.38 690.582 1065.63 685.324C1064.46 680.066 1066.22 673.639 1069.14 668.965C1076.73 657.28 1090.17 652.606 1103.61 652.022C1104.19 652.022 1104.19 652.022 1104.78 652.022C1104.78 652.022 1104.78 652.022 1105.36 652.022C1106.53 652.022 1107.11 652.022 1108.28 652.022C1109.45 652.022 1110.03 652.606 1110.62 653.19C1111.2 653.774 1111.79 654.359 1112.37 654.943C1112.96 655.527 1113.54 656.111 1113.54 657.28C1113.54 657.864 1114.12 658.448 1114.12 659.033V659.617C1114.12 660.201 1114.12 660.785 1114.12 661.37C1115.88 662.538 1115.88 662.538 1115.88 662.538ZM1307.51 783.478C1304.01 786.983 1298.75 788.152 1294.07 786.399C1289.4 784.646 1285.89 780.556 1283.56 775.883C1280.64 769.456 1279.47 763.029 1279.47 756.018C1278.88 754.265 1278.88 753.097 1278.88 751.344C1278.3 744.917 1281.22 738.491 1287.65 736.154C1294.07 733.817 1300.5 737.322 1304 742.58C1305.17 744.333 1305.17 746.086 1304.59 747.254C1304.59 747.254 1304.59 747.839 1305.17 747.839C1306.93 751.344 1308.09 754.265 1309.26 757.771C1311.02 766.534 1313.35 776.467 1307.51 783.478Z" fill="#A834D8"/>
<path d="M1638.78 203.903C1624.76 182.286 1595.54 175.859 1571.01 181.702C1557.57 184.623 1545.3 190.465 1533.61 197.476C1545.3 160.669 1548.8 120.94 1542.38 82.3793C1540.04 65.4361 1534.78 48.4928 1522.51 36.8078C1509.08 23.9544 1488.63 20.4489 1471.1 25.7071C1453.57 30.9654 1438.38 43.8188 1428.45 59.0093C1417.93 74.1998 1412.09 92.3115 1407.42 109.839C1393.39 167.68 1396.32 230.194 1413.84 286.866C1420.85 308.484 1429.62 330.101 1443.06 348.213C1456.49 366.324 1474.61 382.099 1496.22 389.11C1534.2 401.964 1578.02 386.773 1605.48 358.145C1632.94 329.517 1645.79 288.619 1647.54 248.89C1648.13 233.116 1646.96 216.757 1638.78 203.903Z" fill="#E80BEE"/>
<path d="M1428.45 504.207C1442.47 553.868 1485.71 594.766 1536.54 605.867C1563.41 611.709 1594.38 609.372 1615.41 591.26C1631.77 577.238 1640.53 555.621 1646.38 534.004C1659.81 484.927 1663.9 433.513 1658.06 383.268C1656.31 368.661 1653.39 353.471 1643.45 342.954C1634.11 333.606 1620.67 329.517 1607.23 327.764C1565.75 321.337 1521.93 329.517 1484.54 349.381C1451.24 367.493 1431.37 403.132 1424.94 440.524C1422.02 461.557 1422.61 483.759 1428.45 504.207Z" fill="#E80BEE"/>
<path d="M1458.83 560.295C1441.89 572.564 1430.79 592.429 1429.03 613.462C1426.7 639.753 1437.8 665.46 1454.74 685.908C1471.68 706.357 1493.3 721.548 1514.92 736.154C1501.48 734.401 1488.63 746.086 1487.46 759.524C1486.29 772.962 1493.3 785.815 1504.4 793.995C1514.92 802.174 1528.36 805.68 1541.79 808.017C1586.78 815.612 1634.11 808.601 1674.42 787.568C1683.18 782.894 1691.36 777.636 1697.79 770.04C1703.63 762.445 1707.14 751.929 1704.22 742.581C1701.29 733.233 1691.36 726.222 1682.01 727.974C1707.72 680.066 1720.57 625.147 1718.82 570.227C1718.24 552.7 1716.48 535.172 1708.31 519.397C1700.13 504.207 1685.52 491.354 1667.99 489.601C1646.96 487.848 1628.85 502.454 1614.83 518.229C1586.2 550.947 1566.92 591.844 1561.66 635.079C1565.16 606.451 1553.48 574.901 1534.2 554.452C1514.92 535.756 1478.11 546.273 1458.83 560.295Z" fill="#E80BEE"/>
<path d="M1378.21 552.115C1380.54 563.8 1389.31 574.317 1400.41 578.406C1405.67 580.159 1412.68 580.743 1416.77 576.654C1420.27 573.148 1420.27 567.306 1419.69 562.632C1418.52 553.868 1415.6 545.104 1409.17 539.262C1403.33 533.419 1393.98 531.082 1385.8 532.835C1377.62 534.003 1377.04 545.104 1378.21 552.115Z" fill="#E80BEE"/>
<path d="M1392.23 525.824C1395.15 528.161 1399.24 529.33 1402.16 527.577C1405.08 525.824 1405.66 521.15 1405.66 517.645C1405.08 513.555 1403.33 509.465 1400.41 506.544C1386.97 494.275 1383.46 518.229 1392.23 525.824Z" fill="#E80BEE"/>
<path d="M1355.42 351.134C1351.91 362.235 1354.84 375.088 1361.26 385.02C1367.69 393.784 1377.62 400.795 1388.72 401.379C1399.82 401.964 1411.51 396.705 1416.18 386.773C1419.1 380.346 1419.69 372.751 1417.93 365.74C1416.18 356.392 1412.09 348.213 1405.67 341.786C1401.58 337.696 1396.32 334.775 1390.47 333.022C1386.38 331.854 1381.71 328.932 1377.62 329.517C1367.1 330.685 1358.34 342.37 1355.42 351.134Z" fill="#E80BEE"/>
<path d="M1339.06 418.907C1335.55 420.659 1332.63 422.996 1330.88 427.086C1328.54 432.929 1331.47 439.355 1334.97 444.614C1339.64 449.872 1345.49 454.546 1352.5 455.714C1359.51 457.467 1367.1 455.714 1372.36 451.625C1377.62 447.535 1381.13 439.94 1379.37 432.929C1378.21 427.086 1373.53 422.412 1368.27 419.491C1360.09 414.817 1347.82 414.817 1339.06 418.907Z" fill="#E80BEE"/>
<path d="M1348.99 310.236C1348.41 313.158 1348.99 316.079 1350.75 317.832C1351.91 319.584 1354.25 320.169 1356.59 320.169C1358.92 320.169 1360.68 319 1361.85 317.247C1363.6 314.326 1363.6 310.821 1361.85 307.899C1360.68 305.562 1356.59 302.057 1353.67 302.641C1350.75 303.81 1349.58 307.899 1348.99 310.236Z" fill="#E80BEE"/>
<path d="M1613.66 191.634C1602.56 175.275 1584.44 166.511 1565.16 164.758C1542.38 162.421 1520.18 171.185 1500.9 182.87C1503.82 185.207 1506.74 187.544 1509.66 189.297C1520.18 154.826 1524.27 118.018 1520.18 81.7951C1516.67 51.9984 1507.91 19.8647 1475.77 9.93242C1447.15 1.16869 1417.93 15.1907 1399.82 37.3921C1378.79 63.0991 1370.61 97.5698 1366.52 129.703C1361.85 164.174 1362.43 199.813 1368.27 234.284C1374.12 267.586 1384.05 302.057 1401.57 330.685C1417.35 355.808 1440.72 378.009 1469.93 386.189C1497.98 393.784 1528.94 387.942 1554.06 373.335C1583.86 355.808 1603.73 327.18 1614.24 295.046C1619.5 278.687 1623.01 261.16 1623.59 243.632C1624.76 226.105 1623.59 207.409 1613.66 191.634C1609.57 185.207 1599.64 191.05 1603.73 197.476C1618.33 221.431 1613.07 256.486 1606.06 282.192C1599.05 309.068 1585.03 334.191 1564 352.302C1544.13 369.246 1517.26 379.762 1490.38 378.009C1462.92 376.841 1438.97 361.066 1421.44 340.033C1402.16 316.663 1391.64 286.866 1384.63 257.654C1377.04 227.273 1373.53 196.308 1374.7 164.758C1375.87 134.377 1380.54 102.244 1391.64 73.6156C1401.58 49.0771 1420.86 23.9544 1448.9 19.8647C1464.67 17.5277 1481.03 22.2017 1491.55 33.8866C1502.07 46.1559 1504.99 63.0991 1507.32 78.2896C1512 114.513 1508.49 150.736 1497.39 185.791C1495.64 190.465 1501.48 195.139 1506.16 192.218C1522.51 182.286 1541.21 174.691 1560.49 175.275C1576.85 175.859 1593.79 182.286 1603.14 196.892C1607.81 203.903 1617.75 198.061 1613.66 191.634Z" fill="#221738"/>
<path d="M1536.54 593.597C1534.2 593.597 1532.45 593.597 1530.11 593.597C1529.52 593.597 1528.36 593.597 1527.77 594.181C1527.19 594.181 1526.6 594.765 1526.02 595.35C1525.44 595.934 1524.85 596.518 1524.85 597.102C1524.27 597.687 1524.27 598.271 1524.27 599.439C1524.27 600.024 1524.27 600.608 1524.27 601.192C1524.27 602.361 1524.85 602.945 1526.02 603.529C1526.6 604.113 1526.6 604.113 1527.19 604.698C1528.36 605.282 1528.94 605.282 1530.11 605.282C1532.45 605.282 1534.2 605.282 1536.54 605.282C1537.12 605.282 1538.29 605.282 1538.87 604.698C1539.46 604.698 1540.04 604.113 1540.63 603.529C1541.21 602.945 1541.79 602.361 1541.79 601.776C1542.38 601.192 1542.38 600.608 1542.38 599.439C1542.38 598.855 1542.38 598.271 1542.38 597.687C1542.38 596.518 1541.79 595.934 1540.63 595.35C1539.46 594.765 1538.29 593.597 1536.54 593.597Z" fill="#221738"/>
<path d="M1433.71 546.857C1410.92 520.566 1398.07 487.848 1399.24 452.793C1400.41 420.075 1412.09 386.773 1434.88 362.819C1440.14 357.56 1431.96 349.381 1426.7 354.639C1401.58 380.93 1388.72 417.154 1387.55 452.793C1386.39 490.769 1400.41 526.409 1425.53 555.037C1430.79 560.879 1438.97 552.115 1433.71 546.857Z" fill="#221738"/>
<path d="M1594.38 328.347C1621.84 338.864 1623 368.661 1624.17 393.783C1625.93 422.996 1624.76 451.624 1620.08 480.252C1618.92 487.847 1630.02 490.769 1631.18 483.173C1636.44 449.871 1638.2 415.985 1634.69 382.098C1633.52 368.661 1631.77 355.223 1626.51 342.369C1620.67 329.516 1610.15 321.337 1597.3 316.663C1590.29 314.326 1587.37 326.011 1594.38 328.347Z" fill="#221738"/>
<path d="M1467.6 769.456C1462.92 761.277 1460.58 751.929 1465.26 743.749C1469.35 736.154 1476.36 732.064 1484.54 732.648C1490.97 733.233 1491.55 724.469 1487.46 721.548C1447.73 694.672 1396.32 655.528 1405.08 600.608C1408.59 578.991 1422.02 559.711 1441.3 549.778C1457.08 541.599 1481.03 535.172 1496.22 547.441C1506.74 555.621 1514.34 569.643 1519.01 581.912C1524.27 595.934 1526.6 611.125 1524.85 626.315C1524.27 632.742 1535.37 634.495 1536.54 628.068C1540.63 598.855 1549.97 571.396 1565.16 546.273C1578.6 524.071 1597.88 496.028 1624.17 488.432C1653.97 480.253 1674.42 507.713 1680.26 533.419C1686.69 562.048 1683.77 593.597 1679.09 622.225C1673.25 654.943 1662.73 687.077 1646.96 716.289C1644.62 720.963 1648.71 725.637 1653.39 725.053C1660.98 723.885 1667.99 730.311 1669.16 737.322C1670.91 745.502 1666.24 753.681 1660.98 759.524C1655.72 764.782 1663.9 773.546 1669.16 767.703C1678.51 757.771 1684.35 743.165 1679.09 729.727C1674.42 718.042 1662.73 711.031 1650.47 712.784C1652.8 715.705 1655.14 718.626 1656.89 721.548C1672.67 691.751 1683.77 660.202 1689.61 627.484C1695.45 595.934 1698.37 561.463 1691.36 529.914C1685.52 503.038 1666.24 476.163 1636.44 474.995C1605.48 473.826 1582.11 501.286 1565.75 523.487C1544.13 553.284 1530.69 588.339 1525.44 624.562C1529.53 625.147 1533.03 625.731 1537.12 626.315C1540.63 596.518 1529.53 566.137 1510.25 543.936C1494.47 525.824 1469.93 526.408 1448.9 534.004C1425.53 542.183 1407.42 559.711 1398.65 582.496C1388.14 609.372 1394.56 638.584 1408.59 662.539C1426.11 691.751 1454.74 712.2 1482.2 731.48C1483.37 727.974 1483.95 724.469 1485.12 720.379C1472.85 719.211 1461.17 726.222 1455.33 736.738C1448.9 749.007 1451.24 763.029 1457.66 774.714C1461.75 782.31 1471.69 776.467 1467.6 769.456Z" fill="#221738"/>
<path d="M1499.73 401.963C1501.48 437.602 1507.91 472.657 1519.59 505.959C1521.93 512.97 1533.03 510.049 1530.69 503.038C1519.59 470.32 1513.17 436.434 1511.41 401.963C1510.83 394.368 1499.73 394.368 1499.73 401.963Z" fill="#221738"/>
<path d="M1503.82 181.117C1485.12 192.218 1470.52 209.161 1462.92 229.61C1461.75 232.531 1464.09 236.036 1467.01 236.621C1470.52 237.789 1472.85 235.452 1474.02 232.531C1480.45 215.588 1493.89 200.397 1509.66 191.049C1516.09 187.544 1510.83 177.611 1503.82 181.117Z" fill="#221738"/>
<path d="M1579.19 301.472C1570.42 316.079 1556.99 327.764 1541.8 335.943C1538.87 337.112 1538.29 341.201 1539.46 344.123C1541.21 347.044 1544.72 347.628 1547.64 346.46C1564.58 337.696 1579.19 324.258 1589.12 307.899C1590.87 304.978 1589.7 301.472 1586.78 299.72C1584.45 297.967 1580.94 299.135 1579.19 301.472Z" fill="#221738"/>
<path d="M1444.23 22.2013C1475.78 11.6848 1516.09 0.584019 1538.87 32.7177C1559.91 61.9302 1552.9 99.9064 1545.89 132.624C1544.72 137.883 1549.97 141.388 1554.65 139.051C1573.34 130.872 1594.96 132.04 1612.49 141.972C1631.77 153.073 1641.7 173.522 1645.21 194.555C1652.8 240.71 1637.03 290.372 1607.82 326.011C1603.14 331.853 1611.32 340.033 1616 334.19C1642.29 301.472 1658.06 261.159 1658.65 219.093C1659.23 180.533 1645.21 140.22 1606.65 126.198C1587.95 119.187 1567.5 120.355 1549.39 128.535C1552.31 130.872 1555.23 132.624 1558.15 134.961C1565.75 97.5694 1572.76 54.9192 1547.64 22.7855C1520.76 -11.1009 1477.53 -1.75298 1441.89 9.932C1434.29 13.4375 1437.21 24.5382 1444.23 22.2013Z" fill="#221738"/>
<path d="M1085.5 669.549C1059.21 636.831 1012.47 628.652 970.4 631.573C896.2 636.247 824.337 667.212 770.002 717.458C802.72 671.886 836.022 625.731 851.213 571.98C866.403 518.229 859.392 454.546 819.663 415.401C797.462 393.199 767.081 380.93 736.116 376.84C660.747 367.492 581.29 411.895 550.324 480.837C518.775 550.362 538.055 639.168 594.727 689.414C571.942 671.886 536.302 670.718 514.685 689.998C492.484 708.694 489.562 746.67 510.011 767.119C453.923 749.591 396.083 732.064 337.658 739.659C279.233 747.254 221.392 788.152 213.213 845.992C207.954 884.553 225.482 923.113 248.268 954.079C292.671 1013.67 359.859 1055.15 432.89 1067.42L427.048 1091.38C493.068 1111.24 558.504 1134.61 626.277 1146.88C694.05 1159.15 765.912 1160.32 830.764 1136.36C895.616 1112.41 952.872 1061.58 971.568 994.976C980.916 961.09 973.321 921.945 962.804 888.643C1004.87 865.857 1048.69 842.487 1077.9 803.927C1107.11 765.366 1115.29 706.941 1085.5 669.549Z" fill="#FF9F07"/>
<path d="M1018.31 704.02C1006.62 685.324 980.916 681.818 958.714 682.403C878.672 685.324 800.383 721.547 746.632 780.556C753.058 767.703 752.474 751.928 745.463 739.659C738.452 727.39 725.014 718.042 710.992 716.873C736.699 661.954 761.822 607.619 787.529 552.699C796.293 533.419 805.641 513.555 807.394 492.522C809.146 471.489 801.551 448.119 784.024 437.018C768.833 427.086 748.969 427.67 731.441 430.007C694.049 435.265 657.826 448.703 628.029 472.073C598.817 495.443 577.199 529.914 572.525 566.721C568.436 601.776 579.536 637.415 600.569 665.459C621.602 693.503 649.646 716.873 682.949 727.39C665.421 732.064 651.399 746.67 647.894 764.197C644.388 781.725 651.399 801.005 666.005 812.106C649.646 805.095 633.287 797.5 615.176 797.5C597.648 797.5 578.368 805.679 571.941 822.622C565.514 839.566 573.694 858.846 585.963 872.283C526.37 835.476 456.26 816.78 386.15 818.533C366.87 819.117 347.005 820.87 328.894 827.881C310.782 834.891 293.839 845.992 282.738 861.767C263.458 890.395 267.547 930.708 286.828 959.337C306.108 987.965 337.657 1006.08 370.96 1016.01C401.925 1024.77 434.058 1026.53 465.608 1028.28C470.282 1032.95 477.293 1036.46 483.72 1037.04C496.573 1038.21 508.842 1029.45 512.932 1017.76C549.74 1077.35 626.861 1104.81 696.386 1094.3C736.115 1088.46 774.676 1071.51 802.72 1043.47C830.764 1014.84 847.707 974.527 843.617 934.798C839.527 895.069 812.652 857.677 775.26 843.655C848.291 845.992 921.322 824.959 982.084 784.062C995.522 775.298 1008.96 764.782 1017.14 750.76C1024.15 736.153 1026.49 717.457 1018.31 704.02Z" fill="#E9DAC4"/>
<path d="M365.702 692.919C357.522 688.245 349.927 682.403 344.085 674.807C338.242 667.212 335.321 657.864 336.49 648.516C338.242 634.494 349.927 622.809 363.949 619.304C377.387 615.798 392.577 619.304 404.262 627.483C415.947 635.663 424.127 647.348 429.969 660.785C434.643 670.718 437.565 681.818 439.902 692.335C441.07 697.593 442.239 698.762 437.565 701.683C433.475 703.436 427.632 704.02 422.958 704.604C403.094 705.773 382.645 702.267 365.702 692.919Z" fill="#FF9F07"/>
<path d="M446.328 659.616C446.912 664.29 448.665 669.549 452.755 671.301C457.429 673.638 463.271 670.133 467.361 666.627C474.372 659.616 479.046 650.853 481.383 640.92C482.551 636.246 482.551 632.157 481.383 627.483C480.214 622.809 477.877 618.719 473.788 616.382C466.192 611.708 452.171 612.877 448.665 622.225C444.575 632.741 445.16 647.931 446.328 659.616Z" fill="#FF9F07"/>
<path d="M927.75 483.174C918.986 486.095 910.222 489.016 902.043 493.69C893.863 498.364 886.852 504.791 883.347 513.555C879.841 522.319 880.426 532.835 886.268 539.846C890.942 545.104 897.953 548.026 904.38 550.363C926.581 556.789 950.535 556.205 972.737 548.61C983.838 544.52 994.354 538.678 1000.78 528.745C1008.38 517.06 1008.38 501.286 1000.78 489.601C993.186 477.916 980.916 474.41 968.063 472.657C955.209 471.489 940.603 479.668 927.75 483.174Z" fill="#FF9F07"/>
<path d="M881.594 444.029C879.841 450.455 878.672 457.466 881.594 462.725C885.099 469.151 893.279 472.073 900.289 470.904C907.3 469.736 913.727 464.477 917.233 458.635C921.322 452.792 923.659 445.781 925.412 438.77C927.165 432.928 928.333 426.501 927.165 420.074C925.996 414.232 921.907 407.805 915.48 406.637C896.784 401.963 885.683 430.591 881.594 444.029Z" fill="#FF9F07"/>
<path d="M533.965 546.273C456.844 554.452 377.386 539.846 307.861 504.791C324.219 531.082 331.815 563.216 329.478 594.181C344.668 599.44 359.274 604.698 374.465 609.956C337.073 610.54 301.434 633.326 282.738 666.044C264.042 698.762 263.458 740.244 278.064 774.714C292.67 809.185 321.298 837.229 355.769 852.419C386.15 866.441 421.789 869.947 453.923 861.183C483.135 853.004 508.258 834.308 529.291 813.275C557.335 785.231 580.705 747.839 578.368 707.526C547.987 701.099 515.269 694.088 484.888 687.661C510.011 680.066 534.549 672.471 559.672 664.876C534.549 632.742 520.527 584.249 533.965 546.273Z" fill="#EA6D07"/>
<path d="M538.056 622.225C602.323 651.438 673.601 663.123 744.296 657.28C738.453 688.829 742.543 720.963 755.396 750.76C736.116 747.839 716.836 744.917 697.556 741.996C727.937 751.928 753.059 775.883 763.576 806.264C774.092 836.06 770.587 871.115 753.059 897.991C732.611 930.124 694.634 948.82 657.242 951.157C619.266 954.079 581.29 941.809 548.572 922.529C522.281 906.754 498.327 885.721 487.81 857.093C477.294 830.218 480.799 798.668 496.574 774.13C512.349 750.176 539.808 733.817 568.437 732.064C545.651 729.143 523.449 722.716 502.416 714.536C524.034 690.582 539.224 654.359 538.056 622.225Z" fill="#EA6D07"/>
<path d="M539.223 520.566C462.102 528.745 382.644 514.139 313.119 479.084C329.478 505.375 337.073 537.509 334.736 568.474C349.927 573.733 364.533 578.991 379.723 584.249C342.331 584.833 306.692 607.619 287.996 640.337C269.884 673.055 268.716 714.537 283.322 749.007C297.928 783.478 326.557 811.522 361.027 826.712C391.408 840.734 427.047 844.24 459.181 835.476C488.394 827.297 513.516 808.601 534.549 787.568C562.593 759.524 585.963 722.132 583.626 681.819C553.245 675.392 520.527 668.381 490.146 661.954C515.269 654.359 539.807 646.764 564.93 639.168C539.807 607.035 525.785 558.542 539.223 520.566Z" fill="#FFC612"/>
<path d="M543.313 596.518C607.581 625.731 678.859 637.416 749.553 631.573C743.711 663.122 747.8 695.256 760.654 725.053C741.374 722.132 722.093 719.21 702.813 716.289C733.194 726.221 758.317 750.176 768.833 780.557C779.35 810.353 775.844 845.408 758.317 872.284C737.868 904.417 699.892 923.113 662.5 925.45C624.524 928.372 586.548 916.102 553.83 896.822C527.538 881.047 503.584 860.014 493.068 831.386C482.551 804.511 486.057 772.961 501.831 748.423C517.606 724.469 545.066 708.11 573.694 706.357C550.908 703.436 528.707 697.009 507.674 688.829C529.291 664.291 544.482 628.652 543.313 596.518Z" fill="#FFC612"/>
<path d="M550.325 465.647C490.731 471.489 429.385 464.478 372.713 444.614C356.354 438.771 340.579 432.345 325.389 424.749C323.052 423.581 319.546 425.918 321.299 428.839C337.658 455.13 344.669 486.096 342.332 517.061C342.332 518.229 343.501 519.398 344.669 519.982C359.86 525.24 374.466 530.499 389.656 535.757C389.656 534.004 390.241 531.667 390.241 529.914C350.512 529.914 313.12 555.037 295.008 590.676C275.143 629.821 278.649 678.314 301.435 716.29C323.052 752.513 361.028 778.804 402.51 788.152C425.296 792.826 449.25 792.826 471.451 786.4C493.068 780.557 512.349 768.872 529.876 754.85C562.594 727.975 593.559 690.583 598.233 646.764C598.817 641.506 598.817 635.663 598.817 630.405C598.817 629.237 598.233 628.068 596.48 627.484C565.515 621.057 533.966 614.046 503.001 607.619C503.001 609.372 503.001 611.125 503.001 613.462C528.123 605.867 552.662 598.271 577.785 590.676C580.122 590.092 580.706 587.755 578.953 586.002C553.83 555.037 540.393 509.466 553.246 470.321C554.415 466.815 548.572 465.063 547.404 468.568C533.382 509.466 548.572 556.79 574.279 589.508C574.863 587.755 574.863 586.002 575.448 584.834C550.325 592.429 525.786 600.024 500.664 607.619C498.327 608.204 497.742 612.878 500.664 613.462C531.629 619.889 563.178 626.9 594.143 633.326C593.559 632.158 592.975 631.574 591.806 630.405C594.143 673.055 568.437 710.447 538.64 738.491C523.449 753.097 505.922 765.951 486.057 774.715C465.609 783.478 443.407 786.984 421.206 785.231C379.724 781.726 339.995 760.108 314.288 727.39C288.581 694.673 279.233 650.27 292.087 610.541C303.772 573.149 336.49 543.936 375.05 537.51C379.724 536.925 384.398 536.341 389.656 536.341C393.162 536.341 393.746 531.667 390.241 530.499C375.05 525.24 360.444 519.982 345.253 514.724C345.838 515.892 346.422 516.477 347.59 517.645C349.927 486.096 342.332 453.962 325.973 426.502C324.805 427.671 323.052 429.423 321.883 430.592C376.219 458.052 436.396 473.242 497.158 474.411C514.686 474.995 531.629 474.411 549.156 472.658C553.83 470.905 553.83 465.063 550.325 465.647Z" fill="white"/>
<path d="M557.336 548.026C557.336 546.858 557.336 545.689 557.336 544.521C555.583 545.105 554.415 546.273 552.662 546.858C602.907 569.643 657.827 581.913 712.746 583.665C728.521 584.25 744.296 583.665 760.07 581.913C758.902 580.744 758.318 579.576 757.149 578.407C751.307 610.541 755.396 643.843 768.25 674.224C769.418 673.055 770.587 671.303 771.755 670.134C752.475 666.629 733.195 664.292 713.915 661.37C710.409 660.786 708.656 666.044 712.162 667.213C744.296 677.729 770.003 704.605 778.766 737.323C786.946 768.872 779.935 803.927 758.902 829.05C737.869 853.588 706.904 867.61 674.77 870.532C639.715 873.453 604.66 863.521 573.695 846.577C542.73 829.634 512.933 805.096 503.585 770.041C502.416 766.535 497.158 767.704 497.742 771.794C506.506 803.927 532.213 828.466 559.673 845.409C591.222 864.689 627.446 877.543 664.838 876.958C698.724 876.374 733.195 863.521 757.733 838.982C781.687 814.444 792.204 779.973 786.946 746.671C781.103 707.526 751.307 674.224 713.915 661.955C713.33 663.707 712.746 665.46 712.162 667.797C731.442 670.718 750.722 673.64 770.003 676.561C772.924 677.145 774.092 674.808 773.508 672.471C761.239 643.843 757.733 611.709 762.992 581.328C763.576 579.576 762.407 577.239 760.07 577.823C706.319 582.497 651.4 576.654 599.402 560.295C584.211 555.621 569.605 549.779 555.583 543.352C553.83 542.768 550.909 543.352 550.909 545.689C550.909 546.858 550.909 548.026 550.909 549.195C551.493 552.116 557.336 552.116 557.336 548.026Z" fill="white"/>
<path d="M541.561 595.35C538.64 602.361 535.134 608.788 531.044 615.215C530.46 616.383 531.044 618.72 532.213 619.304C533.381 619.889 535.134 619.889 536.303 618.136C540.392 611.709 543.898 605.282 546.819 598.271C547.403 597.103 547.403 595.35 545.651 594.182C543.898 593.597 542.145 593.597 541.561 595.35Z" fill="white"/>
<path d="M696.387 867.61C692.882 886.306 694.05 905.586 703.982 922.529C712.746 937.136 726.184 948.821 740.79 956.416C758.902 965.764 778.766 969.854 798.046 972.775C819.079 975.696 840.112 976.865 861.73 975.696C881.594 975.112 901.459 972.775 920.739 967.517C937.682 962.843 954.041 955.832 966.31 942.978C990.264 917.855 994.354 879.879 982.669 847.746C967.479 807.432 932.424 779.973 895.032 761.277C895.616 762.445 896.2 763.614 896.2 764.782C900.874 741.996 914.312 720.963 934.176 708.11C936.513 706.357 935.929 702.852 932.424 702.852C904.964 703.436 878.089 695.841 854.719 681.234C833.101 667.213 813.237 647.932 802.136 625.147C800.968 623.394 798.046 623.394 796.878 625.147C788.114 639.753 777.598 653.191 765.329 664.876C762.407 667.797 766.497 671.887 769.418 668.965C781.687 656.696 792.788 642.674 801.552 628.068C799.799 628.068 798.046 628.068 796.294 628.068C805.642 646.764 820.248 663.123 836.607 675.976C853.55 689.414 872.83 699.93 893.863 704.604C906.133 707.526 918.402 708.694 931.255 708.694C930.671 706.941 930.087 705.189 929.503 703.436C908.47 716.874 893.863 739.075 889.189 763.614C889.189 764.782 889.189 766.535 890.358 767.119C921.907 782.894 952.288 804.511 969.231 836.645C985.006 865.857 986.759 902.081 967.479 930.709C947.614 960.506 908.47 966.348 875.752 969.854C855.887 971.606 835.438 971.606 815.574 969.854C796.294 968.101 777.014 965.764 758.318 959.337C740.206 953.495 723.263 943.562 711.578 927.788C698.724 911.429 695.803 890.396 699.893 870.531C702.814 865.273 696.971 864.104 696.387 867.61Z" fill="white"/>
<path d="M484.305 643.259C449.25 640.922 414.78 636.248 380.893 628.652C378.556 628.068 376.803 629.821 377.388 632.158C380.309 647.933 384.399 666.628 399.589 675.392C411.858 682.987 429.97 679.482 434.644 664.291C435.813 660.786 429.97 659.033 428.802 662.539C424.712 676.561 407.184 675.392 398.421 667.213C387.904 657.865 385.567 643.259 383.23 630.405C382.062 631.574 380.893 632.742 379.725 633.911C414.195 641.506 449.835 646.18 484.889 648.517C488.395 649.685 488.395 643.843 484.305 643.259Z" fill="white"/>
<path d="M580.122 448.703C569.021 469.736 567.852 494.859 576.616 517.06C577.785 520.566 583.627 518.813 582.459 515.308C574.279 494.859 575.448 470.905 585.38 451.625C587.133 448.119 581.874 445.198 580.122 448.703Z" fill="white"/>
<path d="M542.729 521.15C518.191 525.24 493.068 523.487 469.698 517.061C466.192 515.892 464.44 521.735 467.945 522.903C493.068 529.914 518.775 531.083 544.482 526.993C547.987 526.409 546.235 520.566 542.729 521.15Z" fill="white"/>
</g>
<defs>
<clipPath id="clip0_459_14">
<rect width="1606" height="646" fill="white"/>
</clipPath>
</defs>
</svg>
