<svg width="298" height="77" viewBox="0 0 298 77" fill="none" xmlns="http://www.w3.org/2000/svg">
<path d="M263.946 42.3147C271.12 43.4353 278.354 44.3596 285.784 45.3439C285.92 45.6003 286.389 46.1733 286.994 47.0027C283.476 46.5706 280.35 46.2588 277.224 45.9468C277.104 46.3396 277.24 46.596 277.18 46.7923C280.262 47.9499 283.628 47.4763 286.71 48.6339C286.726 49.2831 286.803 49.736 286.955 50.6417C284.282 50.2535 281.549 50.0617 279.072 49.7336C280.07 50.6832 281.445 51.1036 281.87 52.5222C282.295 53.9408 284.679 53.167 284.728 55.1147C285.59 55.8078 287.052 54.537 287.734 55.8193C288.896 55.5305 289.621 55.9672 290.227 56.7967C290.063 58.0351 288.191 58.5363 289.205 60.1351C290.247 60.2391 291.349 60.1467 292.528 60.5072C293.646 61.064 295.169 59.597 295.806 61.7249C295.49 62.0576 294.977 62.3302 294.344 62.9956C295.386 63.0995 296.035 63.0834 296.82 63.3236C296.973 64.2293 296.869 65.2714 297.158 66.4335C294.773 67.2075 292.417 66.4865 289.94 66.1584C287.403 66.0267 284.987 65.5022 282.57 64.9777C281.331 64.8137 280.033 64.846 278.795 64.682C277.36 64.4579 276.121 64.2937 274.627 64.266C273.328 64.2983 271.833 64.2706 270.459 63.8501C267.06 63.0253 263.437 63.6352 260.039 62.8103C258.015 62.406 255.751 62.7871 253.667 62.5792C251.583 62.3712 249.318 62.7524 247.475 61.7589C247.475 61.7589 247.278 61.6989 247.022 61.8352C244.425 61.8999 241.828 61.9645 239.291 61.8328C237.796 61.805 236.362 61.5809 234.867 61.5531C233.372 61.5254 231.833 62.3433 230.442 61.2735C230.246 61.2135 229.989 61.3497 229.793 61.2897C226.351 61.3104 222.908 61.3312 219.662 61.412C218.363 61.4443 217.109 60.6311 215.494 60.9961C214.135 61.2248 212.717 61.6499 211.266 60.7766C211.266 60.7766 211.069 60.7165 210.813 60.8528C206.737 61.5389 202.357 60.4137 198.281 61.0999C195.111 61.6336 191.969 60.6724 188.799 61.2061C185.629 61.7398 182.263 62.2133 179.137 61.9013C173.474 61.4577 168.056 63.0218 162.59 62.6382C156.082 62.1506 149.742 63.218 143.386 63.6361C137.03 64.0542 130.614 64.6687 124.258 65.0868C117.842 65.7013 111.153 65.8029 104.813 66.8702C99.5756 67.8452 94.3217 68.1708 89.0077 68.6929C87.4528 68.8615 86.1104 69.7396 84.6156 69.7118C83.1208 69.6841 81.7022 70.1092 80.2836 70.5343C77.6427 71.4445 75.0458 71.5092 72.3288 71.9666C71.1666 72.2554 69.8081 72.4841 68.5859 72.9693C67.4238 73.2581 65.9128 72.5811 64.843 73.972C64.783 74.1684 64.3902 74.0482 64.1938 73.9881C61.0678 73.6761 58.1867 75.372 55.137 75.5129C53.6421 75.4851 52.3598 76.1667 50.9412 76.5918C50.2758 75.9588 49.5504 75.5221 49.0813 74.9491C49.0051 74.4963 48.9289 74.0434 48.9127 73.3942C49.8785 73.0453 50.8442 72.6964 51.81 72.3476C53.6814 71.8462 55.2964 71.4812 57.1078 71.1763C58.7228 70.8112 60.6866 71.4119 62.1491 70.1412C62.4056 70.0049 62.7983 70.1252 63.0548 69.9888C65.7718 69.5314 68.6252 69.3303 71.0096 68.5564C72.881 68.055 74.8287 68.0066 76.3074 67.3851C77.9824 66.8237 79.8701 66.9715 81.3487 66.3501C84.7589 65.0308 88.414 65.7195 91.704 64.793C96.8655 63.3653 102.076 63.8851 107.117 62.8501C112.415 61.6788 117.608 61.5495 122.922 61.0274C128.236 60.5053 133.414 59.7268 138.744 59.8539C143.425 59.9972 148.09 59.4912 152.694 59.1817C157.299 58.8721 161.888 57.9134 166.508 58.2531C172.231 58.5004 177.982 57.2529 183.705 57.5001C187.54 57.5995 191.299 57.246 195.195 57.149C195.647 57.0727 196.1 56.9966 196.81 56.784C196.477 56.4675 196.477 56.4674 196.281 56.4074C190.454 57.2021 184.775 56.1093 179.084 57.1604C174.752 57.9829 170.508 57.1141 166.296 57.5438C161.888 57.9134 157.556 58.7359 153.328 58.5163C148.254 58.2529 143.076 59.0314 138.079 59.2208C133.021 59.6066 127.964 59.9924 122.906 60.3782C117.849 60.764 112.459 60.8332 107.477 61.6718C102.24 62.6468 96.9094 62.5197 91.6116 63.691C88.6381 64.2847 85.7847 64.4857 82.8713 64.883C81.5128 65.1117 80.3506 65.4005 79.1284 65.8857C77.9663 66.1745 76.4553 65.4975 75.3855 66.8884C75.3255 67.0848 74.9327 66.9646 74.7363 66.9045C72.0193 67.3619 69.1058 67.7593 66.3888 68.2167C65.0302 68.4454 64.0807 69.4435 62.6459 69.2194C61.6039 69.1154 60.109 69.0877 59.3558 70.1459C55.5806 69.8501 51.9301 71.9549 47.7021 71.7353C48.0787 71.2063 48.0625 70.557 48.5153 70.4808C49.994 69.8593 51.609 69.4942 53.1639 69.3256C54.7188 69.1569 56.3939 68.5956 57.7524 68.3669C59.171 67.9418 60.8784 68.6787 62.1445 67.348C62.2046 67.1516 62.5974 67.2718 62.7938 67.3318C65.5108 66.8744 68.5606 66.7335 71.2014 65.8232C73.3293 65.1855 75.5334 65.0007 77.994 64.6796C77.4649 64.303 77.2685 64.243 77.0722 64.1829C76.8758 64.1228 76.6193 64.2591 76.423 64.199C72.5877 64.0996 69.0573 65.8116 65.4184 65.7723C63.8196 66.7865 62.1284 66.6987 60.3771 66.8073C59.0186 67.036 58.129 67.8377 56.6342 67.81C55.5922 67.706 54.0973 67.6783 53.3441 68.7365C53.3441 68.7365 53.1478 68.6763 53.0877 68.8727C50.3706 69.3302 47.4572 69.7275 44.7402 70.1849C43.1252 70.5499 41.7066 70.9751 40.0916 71.3401C38.5367 71.5087 37.0418 71.4811 35.6994 72.359C35.443 72.4953 35.0502 72.3751 34.401 72.3912C34.8377 71.6658 35.1542 71.3331 35.7873 70.6677C35.182 69.8382 34.5004 68.556 33.6225 67.2136C31.7233 69.2098 29.7871 67.1143 27.8556 67.812C27.4305 66.3934 27.0054 64.9748 26.444 63.2997C28.4518 63.0548 30.2031 62.9463 31.9544 62.8377C32.0145 62.6413 32.0745 62.4449 32.0745 62.4449C31.0926 62.1445 29.9143 61.7842 28.6759 61.6201C28.7198 60.7745 28.9601 59.9889 29.004 59.1433C26.6797 59.7209 24.1267 58.9399 22.0312 60.876C21.8787 59.9704 21.8625 59.3211 21.8464 58.6719C23.265 58.2468 24.6836 57.8217 26.1622 57.2002C24.3948 56.6596 24.3948 56.6596 22.5395 57.8101C22.1306 57.0407 21.7216 56.2714 21.449 55.7585C21.7655 55.4258 21.8256 55.2294 22.0821 55.093C25.3282 55.0122 28.2093 53.3164 31.5317 53.6884C32.9942 52.4177 34.958 53.0185 36.6331 52.4571C38.3082 51.8956 39.9231 51.5306 41.6744 51.422C42.9729 51.3897 43.9826 50.1952 45.4173 50.4193C46.4593 50.5233 47.8941 50.7475 48.7073 49.493C48.7073 49.493 48.9038 49.553 48.9638 49.3566C51.9373 48.7628 55.0472 48.4256 58.0207 47.8318C64.104 46.9008 69.9909 45.9097 76.0904 45.6279C81.1156 43.9437 86.3857 44.2672 91.5033 43.685C96.6209 43.1028 101.875 42.7771 106.932 42.3914C112.246 41.8693 117.484 40.8944 122.754 41.2179C129.519 41.5691 136.235 39.9727 143.06 40.1275C148.783 40.3748 154.337 39.0673 160 39.511C164.877 39.7143 169.466 38.7555 174.147 38.8988C177.077 39.1506 179.93 38.9497 182.587 38.6886C183.04 38.6124 183.296 38.4761 184.458 38.1873C183.416 38.0833 183.024 37.9632 182.827 37.9032C179.385 37.9239 176.018 38.3975 172.696 38.0255C168.981 37.5333 165.358 38.1432 161.856 38.3603C158.549 38.6375 155.151 37.8127 151.724 38.4826C148.358 38.9562 144.735 39.5662 141.353 39.3905C136.143 38.8706 131.041 40.102 125.848 40.2313C109.737 40.2427 93.8114 42.4582 77.7933 43.5717C75.1363 43.8327 72.3591 44.4866 69.7022 44.7476C66.9851 45.205 64.0555 44.9531 61.2784 45.6069C59.407 46.1083 57.6557 46.2168 55.9806 46.7782C54.2455 47.536 52.3578 47.3882 50.6828 47.9496C48.9476 48.7074 46.8637 48.4994 45.385 49.1209C43.6498 49.8787 41.6259 49.4744 40.0872 50.2922C38.1557 50.99 36.2681 50.842 34.3966 51.3434C30.8501 52.4061 27.2112 52.3668 23.5885 52.9767C21.7771 53.2816 20.042 54.0395 18.1544 53.8916C18.0181 53.6351 17.6854 53.3186 17.3527 53.0021C17.4127 52.8057 17.4728 52.6093 17.6692 52.6694C18.635 52.3205 19.4043 51.9116 20.31 51.7591C21.2157 51.6066 22.2577 51.7107 23.4198 51.4219C24.3255 51.2694 25.155 50.6641 25.788 49.9987C24.0367 50.1073 22.2854 50.2158 20.2777 50.4607C20.578 49.4788 20.8183 48.6932 21.1788 47.5149C18.9146 47.8961 16.9507 47.2954 15.1116 49.0951C15.0192 47.9931 15.0631 47.1475 14.9869 46.6947C13.7323 45.8814 12.8705 45.1883 11.7523 44.6314C12.2652 44.3588 12.7782 44.0861 13.804 43.5408C13.0185 43.3005 12.4293 43.1204 12.0966 42.8038C11.7639 42.4873 11.4913 41.9744 11.2186 41.4615C9.99642 41.9467 8.98674 43.1412 7.5358 42.2678C7.59588 42.0714 7.4596 41.8149 7.51967 41.6185C8.03258 41.3459 8.60555 40.8769 9.63138 40.3317C10.5371 40.1792 12.0319 40.2069 13.3905 39.9782C13.4505 39.7818 13.5106 39.5854 13.5106 39.5854L13.3743 39.329C10.9738 39.4538 8.51317 39.7748 5.85619 40.0358C5.70371 39.1302 5.49115 38.4209 5.33867 37.5152C4.41682 37.0185 3.49496 36.5217 2.57311 36.025C2.82957 35.8887 2.88964 35.6923 3.26625 35.1632C2.61702 35.1794 1.83147 34.9391 1.18225 34.9553C1.4387 34.819 1.55886 34.4262 1.81532 34.2898C1.58661 32.9313 1.69058 31.8893 1.91471 30.4546C2.21507 29.4727 1.33715 28.1302 0.912048 26.7116C1.48504 26.2426 2.25439 25.8338 3.40036 24.8958C4.81896 24.4707 7.39973 23.7567 9.78409 22.9827C9.93198 21.0951 9.93198 21.0951 9.11411 19.5564C9.79108 18.0454 11.4661 17.4839 12.961 17.5117C15.5579 17.447 18.1987 16.5368 20.7194 16.0193C22.8473 15.3816 25.0514 15.1969 27.0591 14.952C28.4177 14.7233 29.5637 13.7852 31.0585 13.8129C32.5534 13.8407 33.7756 13.3555 35.1942 12.9304C37.7749 12.2165 40.6283 12.0156 43.1489 11.4981C44.3111 11.2093 45.4732 10.9204 46.439 10.5716C47.6011 10.2828 48.9157 10.8998 49.9254 9.70529C50.2419 9.3726 51.0275 9.61292 51.4803 9.53668C53.8808 9.41194 56.4177 9.54357 58.5456 8.90592C60.93 8.13196 63.3305 8.00722 65.5346 7.82241C67.9952 7.5013 70.2756 7.76935 72.5999 7.19178C77.0521 5.97655 81.5366 6.05976 86.0049 5.49375C90.4733 4.92775 95.0178 4.81467 99.4261 4.44505C104.091 3.93913 108.696 3.62958 113.497 3.38011C117.648 3.14681 121.68 3.30623 125.636 3.01285C129.591 2.71947 133.727 1.83699 137.698 2.19284C143.361 2.63651 148.975 1.13252 154.698 1.3798C159.772 1.64325 164.89 1.06108 169.947 0.675293C172.576 1.90909 175.261 0.153107 177.89 1.3869C178.087 1.44698 178.343 1.31071 178.539 1.37078C181.982 1.35003 185.348 0.876425 188.671 1.24845C190.951 1.51648 193.275 0.938857 195.496 1.40328C197.776 1.67131 200.04 1.2902 202.321 1.55823C204.208 1.70612 205.899 1.79391 207.847 1.74541C209.598 1.63684 211.486 1.78478 213.314 2.12905C216.772 2.75753 220.395 2.14762 223.733 3.16886C225.697 3.76959 227.765 3.32823 229.909 3.33981C230.951 3.44378 231.993 3.54779 233.035 3.65178C234.077 3.75576 234.907 3.15041 235.905 4.1C236.041 4.35646 236.81 3.94762 237.203 4.06777C239.091 4.21566 240.842 4.10707 242.73 4.25496C244.617 4.40284 246.248 4.68699 248.076 5.03127C249.511 5.2554 251.006 5.28321 252.44 5.50733C253.875 5.73146 255.747 5.23008 256.805 5.98329C258.256 6.85663 259.658 5.78233 260.913 6.59561C261.638 7.03229 262.8 6.74353 263.449 6.72737C264.568 7.28419 265.49 7.78086 266.744 8.59414C267.109 10.2091 267.61 12.0806 268.384 14.4649C269.11 14.9016 270.108 15.8512 271.499 16.921C271.499 16.921 271.575 17.3738 271.651 17.8267C272.18 18.2033 273.162 18.5036 273.631 19.0766C274.297 19.7097 274.389 20.8118 274.798 21.5811C274.285 21.8538 273.772 22.1264 273.199 22.5954C273.821 24.0741 274.639 25.6128 275.26 27.0915C274.747 27.3641 274.234 27.6367 273.781 27.713C274.583 28.6025 274.752 30.1574 276.699 30.1089C276.535 31.3473 276.431 32.3893 276.404 33.8841C276.933 34.2607 278.231 34.2284 278.656 35.647C278.945 36.8091 279.747 37.6987 280.292 38.7245C280.897 39.554 282.512 39.1888 282.228 40.82C281.579 40.8361 280.673 40.9887 280.22 41.0649C279.587 41.7303 279.211 42.2594 278.894 42.5921C278.049 42.5482 277.263 42.3078 276.417 42.2639C275.572 42.22 274.726 42.1762 273.881 42.1323C273.957 42.5851 274.033 43.038 273.989 43.8836C272.494 43.8558 271.256 43.6917 269.821 43.4676C268.386 43.2434 267.148 43.0795 265.713 42.8554C263.809 42.0582 263.749 42.2546 263.946 42.3147C263.264 41.0324 262.178 41.774 261.333 41.7301C261.333 41.7301 261.273 41.9265 261.153 42.3192C262.058 42.1667 262.964 42.0143 263.946 42.3147ZM189.019 38.7234C187.388 38.4392 185.5 38.2913 183.962 39.1091C185.713 39.0006 187.268 38.832 189.019 38.7234ZM196.69 38.9222C198.517 39.2665 200.208 39.3543 201.747 38.5364C200.192 38.705 198.441 38.8137 196.69 38.9222ZM207.999 39.1603C206.564 38.9362 204.933 38.652 203.591 39.5299C205.146 39.3613 206.444 39.329 207.999 39.1603ZM190.71 38.8112C190.65 39.0076 190.786 39.2641 190.786 39.2641C191.436 39.2479 192.341 39.0954 192.991 39.0792C193.64 39.0631 194.546 38.9106 195.255 38.698C195.315 38.5017 195.119 38.4416 195.179 38.2452C193.564 38.6102 192.265 38.6426 190.71 38.8112ZM209.69 39.2481C210.672 39.5485 211.851 39.9089 213.449 38.8946C211.698 39.0032 210.792 39.1557 209.69 39.2481ZM253.51 40.6256C253.57 40.4292 253.57 40.4293 253.433 40.1728C252.528 40.3253 251.682 40.2814 250.776 40.4339C250.716 40.6303 250.716 40.6302 250.853 40.8866C251.698 40.9305 252.604 40.778 253.51 40.6256ZM285.206 61.2742C285.146 61.4706 285.282 61.727 285.222 61.9234C286.128 61.7709 286.777 61.7548 287.683 61.6023C287.743 61.4059 287.547 61.3458 287.607 61.1494C286.761 61.1055 285.855 61.258 285.206 61.2742ZM284.164 61.1702C284.224 60.9738 284.088 60.7174 284.148 60.521C283.242 60.6734 282.533 60.886 281.687 60.8421C281.627 61.0385 281.824 61.0986 281.764 61.295C282.609 61.3389 283.318 61.1263 284.164 61.1702ZM260.291 41.6261C260.351 41.4297 260.215 41.1732 260.275 40.9769C259.369 41.1293 258.72 41.1455 257.814 41.298C257.754 41.4944 257.95 41.5545 257.89 41.7508C258.539 41.7347 259.445 41.5821 260.291 41.6261ZM293.875 62.4226C293.935 62.2262 293.935 62.2262 293.798 61.9697C292.893 62.1222 292.047 62.0783 291.142 62.2307C291.081 62.4271 291.081 62.4271 291.218 62.6836C292.123 62.5311 293.029 62.3786 293.875 62.4226ZM256.772 41.1941C256.832 40.9977 256.696 40.7411 256.756 40.5447C255.85 40.6972 255.201 40.7134 254.295 40.8659C254.235 41.0622 254.432 41.1223 254.371 41.3187C255.217 41.3626 256.123 41.2102 256.772 41.1941ZM288.528 61.6462C288.468 61.8426 288.605 62.0991 288.545 62.2954C289.194 62.2793 289.707 62.0066 290.356 61.9904C290.416 61.7941 290.22 61.734 290.28 61.5376C289.631 61.5537 289.178 61.6301 288.528 61.6462ZM287.858 58.2199C287.919 58.0235 287.782 57.767 287.842 57.5706C287.193 57.5867 286.68 57.8594 286.031 57.8756C285.971 58.072 286.167 58.132 286.107 58.3284C286.756 58.3123 287.406 58.2961 287.858 58.2199ZM280.842 60.7981C280.902 60.6018 280.765 60.3453 280.826 60.1489C280.176 60.1651 279.663 60.4378 279.014 60.4539L279.15 60.7103C279.543 60.8305 280.193 60.8143 280.842 60.7981ZM275.495 60.0218C275.435 60.2182 275.572 60.4746 275.512 60.671C276.161 60.6549 276.674 60.3823 277.323 60.3661C277.383 60.1697 277.187 60.1097 277.247 59.9133C276.794 59.9895 276.145 60.0057 275.495 60.0218ZM248.103 40.0456C248.043 40.242 248.18 40.4985 248.119 40.6949C248.769 40.6787 249.282 40.4061 249.931 40.3899L249.795 40.1335C249.402 40.0134 248.753 40.0294 248.103 40.0456ZM274.001 59.9941C274.061 59.7977 273.924 59.5413 273.984 59.3449C273.335 59.3611 272.822 59.6336 272.173 59.6498C272.113 59.8462 272.309 59.9063 272.249 60.1026C272.702 60.0264 273.351 60.0103 274.001 59.9941ZM226.706 57.3389C226.646 57.5353 226.783 57.7917 226.783 57.7917C227.039 57.6554 227.492 57.5791 227.748 57.4428L227.612 57.1864C227.356 57.3227 227.099 57.459 226.706 57.3389ZM244.781 39.6737C244.721 39.8701 244.857 40.1265 244.797 40.3229C245.25 40.2466 245.506 40.1103 245.959 40.0341L245.823 39.7776C245.43 39.6574 245.234 39.5974 244.781 39.6737ZM270.482 59.562C270.542 59.3656 270.406 59.1091 270.406 59.1091C270.149 59.2454 269.696 59.3217 269.44 59.458L269.576 59.7145C269.833 59.5782 270.225 59.6983 270.482 59.562ZM26.0283 49.2131L25.9683 49.4094C26.1646 49.4695 26.4211 49.3332 26.6175 49.3933L26.6775 49.197C26.4811 49.1369 26.2247 49.2732 26.0283 49.2131ZM223.837 38.6361L224.033 38.6961C224.093 38.4997 223.957 38.2432 224.017 38.0468L223.821 37.9867C223.761 38.1831 223.897 38.4397 223.837 38.6361ZM219.849 37.6309L219.653 37.5709C219.593 37.7672 219.729 38.0237 219.669 38.2201L219.865 38.2801C219.926 38.0837 219.986 37.8874 219.849 37.6309ZM220.983 57.0916L220.787 57.0315C220.727 57.2279 220.863 57.4844 220.803 57.6807L221 57.7408C220.863 57.4844 220.923 57.288 220.983 57.0916ZM216.772 39.2667L216.575 39.2066C216.515 39.403 216.652 39.6594 216.592 39.8558L216.788 39.9159C216.652 39.6594 216.712 39.4631 216.772 39.2667ZM214.627 57.5097L214.824 57.5698C214.884 57.3734 214.748 57.1169 214.808 56.9206L214.611 56.8605C214.551 57.0569 214.688 57.3133 214.627 57.5097ZM232.353 38.8787L232.293 39.0751C232.49 39.1352 232.746 38.9988 232.942 39.0589L233.002 38.8626C232.806 38.8025 232.61 38.7424 232.353 38.8787ZM207.666 57.0983L207.606 57.2948C207.803 57.3549 208.059 57.2185 208.255 57.2785L208.315 57.0822C208.119 57.0221 207.863 57.1584 207.666 57.0983ZM237.17 39.2784L237.23 39.0821C237.034 39.022 236.778 39.1583 236.581 39.0982L236.521 39.2947C236.718 39.3547 236.974 39.2184 237.17 39.2784ZM201.49 56.9273L201.43 57.1237C201.627 57.1838 201.883 57.0474 202.08 57.1075L202.14 56.9111C201.943 56.8511 201.747 56.7909 201.49 56.9273Z" fill="#E90FEB"/>
</svg>
