<svg width="40" height="41" viewBox="0 0 40 41" fill="none" xmlns="http://www.w3.org/2000/svg">
<path fill-rule="evenodd" clip-rule="evenodd" d="M39.5357 20.7093C39.5357 31.6267 30.6853 40.4771 19.7678 40.4771C8.85037 40.4771 0 31.6267 0 20.7093C0 9.7918 8.85037 0.941406 19.7678 0.941406C30.6853 0.941406 39.5357 9.7918 39.5357 20.7093ZM30.0564 17.8193C31.6517 17.8193 32.9464 19.114 32.9464 20.7093C32.9464 21.8885 32.2297 22.9058 31.2817 23.3682C31.328 23.6456 31.3511 23.9231 31.3511 24.2236C31.3511 28.6627 26.1953 32.2464 19.8141 32.2464C13.4329 32.2464 8.27704 28.6627 8.27704 24.2236C8.27704 23.9231 8.30016 23.6225 8.3464 23.3451C7.32911 22.8827 6.6355 21.8885 6.6355 20.7093C6.6355 19.114 7.93023 17.8193 9.52553 17.8193C10.2885 17.8193 11.0052 18.143 11.5139 18.6285C13.5022 17.1719 16.2535 16.2703 19.3285 16.1778L20.7851 9.2879C20.8314 9.1492 20.9007 9.0336 21.0163 8.9642C21.1319 8.8949 21.2706 8.8718 21.4094 8.8949L26.1953 9.9122C26.5189 9.2186 27.2126 8.7562 28.0218 8.7562C29.1547 8.7562 30.0795 9.681 30.0795 10.8139C30.0795 11.9468 29.1547 12.8716 28.0218 12.8716C26.912 12.8716 26.0103 11.993 25.9641 10.9063L21.6868 10.0047L20.369 16.1778C23.3746 16.2934 26.1028 17.2182 28.068 18.6285C28.5767 18.1199 29.2703 17.8193 30.0564 17.8193ZM15.2362 20.7093C14.1034 20.7093 13.1785 21.6342 13.1785 22.7671C13.1785 23.9 14.1034 24.8248 15.2362 24.8248C16.3691 24.8248 17.294 23.9 17.294 22.7671C17.294 21.6342 16.3691 20.7093 15.2362 20.7093ZM19.7909 29.7031C20.577 29.7031 23.259 29.6107 24.6693 28.2003C24.8774 27.9922 24.8774 27.6686 24.7156 27.4374C24.5075 27.2293 24.1607 27.2293 23.9526 27.4374C23.0509 28.3159 21.1782 28.6396 19.8141 28.6396C18.45 28.6396 16.5541 28.3159 15.6755 27.4374C15.4674 27.2293 15.1206 27.2293 14.9126 27.4374C14.7045 27.6454 14.7045 27.9922 14.9126 28.2003C16.2998 29.5875 19.0049 29.7031 19.7909 29.7031ZM22.2417 22.7671C22.2417 23.9 23.1665 24.8248 24.2994 24.8248C25.4323 24.8248 26.3571 23.9 26.3571 22.7671C26.3571 21.6342 25.4323 20.7093 24.2994 20.7093C23.1665 20.7093 22.2417 21.6342 22.2417 22.7671Z" fill="white"/>
</svg>
