<svg width="42" height="42" viewBox="0 0 42 42" fill="none" xmlns="http://www.w3.org/2000/svg">
<path fill-rule="evenodd" clip-rule="evenodd" d="M20.9 41.3002C32.272 41.3002 41.491 32.0811 41.491 20.7087C41.491 9.3363 32.272 0.117188 20.9 0.117188C9.52698 0.117188 0.307983 9.3363 0.307983 20.7087C0.307983 32.0811 9.52698 41.3002 20.9 41.3002ZM31.287 16.9041C31.287 16.6721 31.287 16.4421 31.271 16.2122C32.318 15.4546 33.223 14.5168 33.941 13.4402C32.966 13.8736 31.929 14.1576 30.869 14.2826C31.985 13.614 32.821 12.5618 33.221 11.3231C32.17 11.9462 31.021 12.3859 29.823 12.6222C27.797 10.468 24.407 10.3642 22.252 12.3902C20.861 13.6967 20.272 15.6442 20.704 17.5028C16.4 17.2877 12.392 15.2554 9.67499 11.9123C8.25499 14.3579 8.97998 17.4859 11.331 19.0573C10.479 19.0319 9.64598 18.8019 8.90298 18.3876V18.4554C8.90298 21.0028 10.699 23.1962 13.195 23.7006C12.408 23.9157 11.581 23.9474 10.779 23.7927C11.481 25.9724 13.489 27.4654 15.778 27.5088C13.883 28.9976 11.542 29.8061 9.13298 29.804C8.70698 29.8029 8.28198 29.7775 7.85898 29.7266C10.307 31.297 13.154 32.1298 16.061 32.1256V32.1298C25.904 32.1298 31.287 23.975 31.287 16.9041Z" fill="white"/>
</svg>
