<svg width="42" height="42" viewBox="0 0 42 42" fill="none" xmlns="http://www.w3.org/2000/svg">
<path fill-rule="evenodd" clip-rule="evenodd" d="M21.083 41.3002C32.455 41.3002 41.674 32.0811 41.674 20.7087C41.674 9.3363 32.455 0.117188 21.083 0.117188C9.70996 0.117188 0.490967 9.3363 0.490967 20.7087C0.490967 32.0811 9.70996 41.3002 21.083 41.3002ZM32.948 12.8191C33.741 13.6171 33.998 15.4343 33.998 15.4343C33.998 15.4343 34.261 17.5706 34.261 19.7019V21.6992C34.261 23.8356 33.998 25.9668 33.998 25.9668C33.998 25.9668 33.741 27.784 32.948 28.5819C32.044 29.5282 31.043 29.626 30.477 29.6813C30.415 29.6874 30.358 29.6929 30.307 29.699C26.621 29.9616 21.082 29.9719 21.082 29.9719C21.082 29.9719 14.231 29.9101 12.12 29.7093C12.017 29.6895 11.892 29.6743 11.75 29.657C11.082 29.5755 10.04 29.4484 9.21097 28.5819C8.42397 27.784 8.16597 25.9668 8.16597 25.9668C8.16597 25.9668 7.90398 23.8305 7.90398 21.6992V19.7019C7.90398 17.5706 8.17097 15.4343 8.17097 15.4343C8.17097 15.4343 8.42396 13.6171 9.21696 12.8191C10.121 11.8729 11.122 11.7751 11.687 11.7198C11.75 11.7137 11.806 11.7082 11.857 11.7021C15.543 11.4344 21.077 11.4344 21.077 11.4344H21.088C21.088 11.4344 26.621 11.4344 30.307 11.7021C30.358 11.7082 30.415 11.7137 30.477 11.7198C31.043 11.7751 32.044 11.8729 32.948 12.8191ZM18.359 16.7161V24.1239L25.479 20.4329L18.359 16.7161Z" fill="white"/>
</svg>
