<svg width="503" height="346" viewBox="0 0 503 346" fill="none" xmlns="http://www.w3.org/2000/svg">
<path d="M246.784 53.3322C246.954 52.3552 247.124 51.3782 247.294 50.4012C247.04 48.0082 248.512 47.2579 250.906 47.0033C251.458 45.7573 252.336 44.5679 252.945 42.9963C253.271 43.0529 253.214 43.3786 253.54 43.4353C255.451 42.0903 256.981 41.0143 258.949 39.3437C259.6 39.457 260.577 39.627 261.498 40.1227C263.565 39.8114 266.015 39.2311 268.79 38.7075C272.245 41.9929 275.699 45.2783 279.48 48.6204L279.097 48.8894C280.018 49.3851 281.32 49.6118 282.241 50.1075C285.157 52.6283 288.074 55.149 290.934 57.9954C295.79 62.8668 300.972 67.795 305.772 72.9921C310.841 78.5716 316.674 83.6131 321.686 89.5182C325.891 94.2763 330.039 99.3601 334.683 103.524C336.948 105.931 338.775 108.933 341.04 111.34C346.165 116.594 350.851 122.443 355.594 127.965C358.667 131.52 361.413 135.018 364.16 138.515C370.574 146.007 376.987 153.498 383.401 160.989C388.951 167.659 394.94 173.734 400.546 180.078C405.827 186.366 411.108 192.653 416.772 198.671C422.647 205.398 428.466 212.45 434.342 219.177C436.607 221.584 438.433 224.586 441.463 226.455C442.978 227.39 444.323 229.302 445.725 230.888C451.657 237.289 457.264 243.633 463.253 249.708C464.98 251.351 466.382 252.937 465.928 255.542C465.546 255.811 465.164 256.08 464.13 256.236C464.427 260.314 467.783 262.24 470.643 265.086C470.359 266.715 469.693 268.612 469.41 270.24C465.813 271.628 462.599 272.746 459.71 273.921C458.719 275.762 458.266 278.367 456.354 279.712C454.06 281.326 453.606 283.931 451.256 285.871C450.01 285.319 448.438 284.709 446.541 284.044C445.394 284.851 444.133 286.309 442.93 287.442C441.684 286.889 440.381 286.663 439.135 286.11C439.078 286.436 438.696 286.705 438.639 287.031C436.685 286.691 435.779 284.184 433.273 285.09C434.618 287.002 436.02 288.588 437.364 290.5C435.339 292.496 433.017 290.414 430.893 291.051C430.058 293.926 428.684 296.035 424.875 296.715C423.94 298.23 422.949 300.07 421.957 301.911C418.559 298.3 415.43 295.071 412.033 291.46C412.132 292.819 412.231 294.179 412.329 295.538C411.182 296.345 410.035 297.152 408.563 297.902C408.931 299.644 409.299 301.386 409.667 303.127C408.959 303.34 408.251 303.552 407.543 303.764C407.543 303.764 407.543 303.764 407.599 303.439C407.33 303.056 407.005 303 406.736 302.617C406.736 302.617 406.679 302.943 406.353 302.886C406.679 302.943 406.948 303.325 407.274 303.382C407.854 305.832 410.346 306.936 411.748 308.522C412.88 309.726 413.744 310.547 412.809 312.062C410.246 313.294 410.162 309.924 408.533 309.641C408.321 308.933 408.548 307.63 407.188 307.729C406.919 307.347 406.268 307.233 405.999 306.851C405.787 306.143 406.013 304.84 404.328 304.883C404.328 304.883 404.328 304.883 404.385 304.557C404.116 304.175 403.79 304.118 403.521 303.736C403.521 303.736 403.465 304.061 403.139 304.005C403.465 304.061 403.734 304.444 404.059 304.5C404.272 305.208 404.045 306.511 405.73 306.469C405.999 306.851 406.65 306.964 406.919 307.347C407.132 308.055 406.905 309.357 408.264 309.258C409.015 310.731 408.136 311.92 406.607 312.996C403.195 311.396 401.425 308.068 398.834 305.604C398.452 305.873 398.126 305.817 397.744 306.085C398.225 307.176 398.706 308.266 399.457 309.739C398.749 309.951 398.31 310.546 397.658 310.433C396.356 310.206 395.11 309.654 393.807 309.427C394.019 310.135 394.232 310.843 394.331 312.202C394.925 312.641 395.846 313.137 397.035 314.015C397.077 315.7 396.681 317.98 396.723 319.665C395.689 319.82 394.981 320.033 394.273 320.245C393.735 319.48 393.466 319.098 392.928 318.333C392.22 318.546 391.512 318.758 390.804 318.97C386.543 314.538 382.338 309.78 378.076 305.347C374.409 301.354 371.011 297.743 367.287 294.075C362.431 289.203 357.957 284.063 353.158 278.866C349.491 274.872 346.149 270.936 342.539 266.617C338.391 261.533 334.242 256.449 329.655 251.96C326.795 249.113 324.431 245.347 321.628 242.175C318.286 238.238 314.563 234.57 310.896 230.577C309.763 229.373 308.956 228.226 308.149 227.079C306.676 227.829 305.26 228.254 303.405 229.273C304.481 230.803 305.444 232.983 306.902 234.244C311.22 238.35 314.774 242.995 318.71 247.371C324.373 253.389 329.654 259.677 335.318 265.695C339.579 270.128 343.402 275.155 347.281 279.856C352.293 285.762 356.923 291.936 362.699 297.303C365.828 300.532 368.901 304.086 372.03 307.315C377.155 312.569 381.954 317.766 387.08 323.019C388.212 324.223 389.288 325.753 390.364 327.282C390.194 328.259 389.699 329.179 389.415 330.808C388.226 329.93 387.306 329.434 386.442 328.613C386.442 328.613 386.442 328.613 386.499 328.287C386.23 327.905 385.904 327.848 385.635 327.465C385.635 327.465 385.578 327.791 385.253 327.735C385.578 327.791 385.847 328.174 386.173 328.23C386.442 328.613 386.329 329.264 386.541 329.972C385.068 330.722 383.865 331.855 382.01 332.874C379.15 330.028 376.941 327.295 374.024 324.774C371.702 322.692 369.38 320.61 367.384 318.585C365.388 316.56 363.335 314.861 361.664 312.893C356.921 307.37 351.739 302.442 346.614 297.188C343.216 293.577 339.875 289.64 336.477 286.029C330.006 278.863 324.244 271.486 317.774 264.32C311.034 256.772 304.352 248.899 297.613 241.351C295.347 238.943 293.082 236.536 290.873 233.803C290.491 234.072 290.052 234.667 289.287 235.205C287.985 234.978 286.356 234.695 284.671 234.737C283.666 238.588 281.258 240.854 277.449 241.533C276.897 242.779 276.344 244.025 275.792 245.271C270.85 244.746 266.631 241.999 261.519 242.452C261.944 243.868 262.043 245.227 262.468 246.643C261.108 246.742 259.749 246.841 258.007 247.209C257.186 248.073 255.656 249.149 253.688 250.819C258.346 252.972 263.019 253.114 267.677 255.267C265.822 256.286 264.35 257.036 262.566 255.719C262.07 256.64 261.574 257.56 261.135 258.155C256.633 257.036 252.456 255.973 248.01 254.529C247.627 254.798 247.514 255.449 246.693 256.312C248.533 257.304 250.374 258.295 251.946 258.904C251.28 260.802 250.728 262.048 250.501 263.35C247.442 265.502 244.738 263.69 242.189 262.911C240.617 262.301 238.989 262.018 237.361 261.735C235.407 261.395 233.566 260.403 231.612 260.063C230.04 259.454 228.794 258.902 227.109 258.944C224.716 259.199 222.72 257.174 220.709 257.159C215.06 256.847 210.628 253.392 205.247 253.462C203.888 253.561 202.755 252.357 201.453 252.131C195.973 250.842 190.819 249.609 185.226 248.971C182.62 248.518 180.015 248.065 177.523 246.96C176.277 246.408 175.187 246.889 173.827 246.988C171.718 245.614 169.381 245.543 166.833 244.764C165.587 244.212 164.496 244.693 163.137 244.792C160.702 243.362 157.884 242.2 155.052 243.049C152.942 241.676 150.606 241.605 148.057 240.826C146.811 240.273 145.721 240.755 144.362 240.854C142.252 239.48 139.916 239.409 137.367 238.63C136.121 238.077 135.031 238.559 133.671 238.658C131.562 237.284 129.225 237.213 126.676 236.434C125.43 235.882 124.34 236.363 122.981 236.462C120.545 235.031 117.728 233.87 114.896 234.719C112.786 233.346 110.45 233.275 107.901 232.496C106.655 231.943 105.565 232.425 104.205 232.523C103.936 232.141 103.993 231.815 103.667 231.759C92.0566 229.067 80.7715 226.432 69.1041 224.066C66.1731 223.556 63.4121 222.069 60.1977 223.188C59.7731 221.772 58.6261 222.579 57.9747 222.465C57.5501 221.049 56.403 221.856 55.7517 221.743C54.7324 219.888 53.4153 221.672 52.4383 221.502C52.0137 220.086 50.8667 220.893 48.587 220.496C48.2047 220.765 48.4737 221.147 48.4737 221.147C48.856 220.878 49.564 220.666 49.9464 220.397C49.295 220.284 48.6437 220.17 48.587 220.496C50.2577 222.464 51.4613 221.332 52.4383 221.502C53.4577 223.357 54.7747 221.573 55.7517 221.743C56.1764 223.159 57.3234 222.352 57.9747 222.465C58.3994 223.881 59.5464 223.074 60.1977 223.188C61.5427 225.099 64.1058 223.868 65.5074 225.454C69.3165 224.775 72.3465 226.644 75.8721 227.593C79.3978 228.542 82.7112 228.783 86.2369 229.732C91.3909 230.965 96.6583 231.546 101.699 233.429C102.35 233.543 103.441 233.062 104.474 232.906C106.584 234.28 108.92 234.351 111.469 235.13C112.715 235.682 113.805 235.201 115.165 235.102C117.6 236.532 120.418 237.694 123.25 236.844C125.359 238.218 127.696 238.289 130.244 239.068C131.49 239.62 132.581 239.139 133.94 239.04C136.05 240.414 138.386 240.485 140.935 241.264C142.181 241.816 143.271 241.335 144.631 241.236C146.74 242.61 149.077 242.681 151.625 243.46C152.871 244.012 153.962 243.531 155.321 243.432C157.756 244.862 160.574 246.024 163.406 245.174C165.516 246.548 167.852 246.619 170.401 247.398C171.647 247.95 172.737 247.469 174.096 247.37C175.017 247.866 175.824 249.013 176.475 249.126C180.114 249.424 183.314 250.316 186.783 251.591C188.029 252.143 189.601 252.752 191.286 252.71C194.004 252.512 196.27 254.92 198.988 254.722C201.325 254.793 203.647 256.874 206.309 257.002C211.633 257.258 215.909 259.679 220.681 261.181C221.332 261.294 222.04 261.082 222.04 261.082C223.555 262.016 224.744 262.894 226.259 263.829C226.146 264.481 225.976 265.458 225.48 266.378C231.88 268.163 238.011 269.565 244.411 271.35C244.624 272.058 244.779 273.092 244.666 273.743C244.17 274.663 243.406 275.201 242.641 275.739C240.729 277.084 238.492 278.373 234.853 278.075C223.299 275.058 210.768 271.87 198.293 268.357C192.545 266.686 186.739 265.34 180.934 263.994C176.431 262.875 172.197 262.139 167.638 261.345C163.348 260.934 159.341 258.895 155.05 258.484C151.794 257.917 148.211 257.293 144.686 256.344C136.714 253.951 128.516 252.859 120.105 251.06C113.322 249.544 106.866 248.085 100.027 246.895C90.639 244.926 81.2513 242.957 72.2459 240.719C63.8918 238.594 55.4244 237.12 46.6881 235.265C40.8827 233.919 35.3463 232.955 29.4843 231.935C27.2046 231.539 25.0383 230.49 22.8719 229.442C21.9516 228.947 21.4703 227.856 20.6633 226.709C22.844 225.747 24.0621 222.603 27.0354 224.798C27.5311 223.878 28.0268 222.958 28.5791 221.712C24.9968 221.088 21.6834 220.847 18.4834 219.955C15.2834 219.063 12.2534 217.193 8.78438 215.918C9.28007 214.998 9.77575 214.078 10.3281 212.832C12.8768 213.611 15.4821 214.064 17.6485 215.112C22.9015 217.704 28.5512 218.016 34.0876 218.98C36.3672 219.376 38.4769 220.75 40.9833 219.844C41.4079 221.26 42.5549 220.453 43.2063 220.566C43.6309 221.982 44.778 221.175 47.0576 221.572C47.44 221.303 47.171 220.921 47.171 220.921C46.7886 221.19 46.0806 221.402 45.6983 221.671C46.3496 221.784 47.001 221.898 47.0576 221.572C45.0613 219.547 44.1833 220.736 43.2063 220.566C42.7816 219.15 41.6346 219.957 40.9833 219.844C39.695 217.607 36.9763 217.805 34.8099 216.757C33.2383 216.148 31.6666 215.538 30.3216 213.627C31.412 213.145 32.12 212.933 32.828 212.721C32.828 212.721 32.828 212.721 32.7713 213.046C33.0403 213.429 33.366 213.485 33.635 213.868C33.635 213.868 33.6916 213.542 34.0173 213.599C33.6916 213.542 33.4226 213.16 33.097 213.103C31.2563 212.112 29.7413 211.177 28.1696 210.568C28.184 208.557 28.1417 206.872 28.3684 205.57C27.2357 204.366 26.0464 203.488 24.8571 202.61C25.6218 202.072 26.0608 201.477 26.3865 201.534C27.3635 201.704 28.6661 201.931 29.6431 202.101C32.6596 198.264 32.6596 198.264 35.2226 197.032C33.9766 196.48 32.4616 195.545 30.6209 194.554C32.0936 193.803 32.8016 193.591 33.5097 193.379C33.5097 193.379 33.5096 193.379 33.453 193.704C33.722 194.087 34.0477 194.143 34.3166 194.526C34.3166 194.526 34.3733 194.2 34.699 194.257C34.3733 194.2 34.1043 193.818 33.7787 193.761C33.793 191.75 31.839 191.41 30.6497 190.532C33.2127 189.301 35.7191 188.395 37.8998 187.432C40.3351 188.862 42.5015 189.91 45.2768 189.387C45.8292 188.141 45.9992 187.164 46.5516 185.918C47.9676 185.493 49.3269 185.394 50.743 184.97C52.527 186.287 56.265 187.944 57.95 187.901C57.95 187.901 57.95 187.901 57.8933 188.227C58.1623 188.609 58.488 188.666 58.757 189.048C58.757 189.048 58.8136 188.723 59.1393 188.779C58.8136 188.723 58.5446 188.34 58.219 188.284C56.2226 186.259 53.7307 185.154 51.012 185.352C49.0156 183.327 46.3536 183.199 43.8616 182.094C43.6493 181.386 43.437 180.678 43.2813 179.645C44.485 178.512 45.6743 179.39 47.0337 179.291C48.0674 179.135 49.2711 178.003 49.9791 177.79C53.5048 178.739 56.0534 179.519 58.9278 180.354C58.9278 180.354 58.9278 180.354 58.8711 180.68C59.1401 181.062 59.4658 181.119 59.7348 181.501C59.7348 181.501 59.7914 181.176 60.1171 181.232C59.7914 181.176 59.5224 180.793 59.1968 180.737C59.6925 179.816 60.2448 178.57 60.7405 177.65C58.0362 175.837 54.2838 176.191 52.1885 172.806C52.3585 171.829 52.8542 170.909 53.4066 169.663C55.5729 170.711 57.7392 171.759 59.9623 172.482C60.6136 172.595 61.3216 172.383 61.9729 172.496C61.9729 172.496 61.9729 172.496 61.9163 172.822C62.1853 173.204 62.5109 173.261 62.7799 173.643C62.7799 173.643 62.8366 173.317 63.1623 173.374C62.8366 173.317 62.5676 172.935 62.2419 172.878C62.0296 172.17 62.0863 171.845 61.605 170.754C62.6387 170.599 63.021 170.33 63.729 170.117C63.729 170.117 63.729 170.117 63.6723 170.443C63.9413 170.825 64.267 170.882 64.536 171.264C64.536 171.264 64.5927 170.939 64.9183 170.995C64.5927 170.939 64.3237 170.556 63.998 170.5C62.8653 169.296 61.7893 167.767 60.3877 166.18C62.1294 165.812 63.2197 165.331 64.6358 164.907C64.5935 163.222 63.8998 161.423 66.1372 160.135C66.7885 160.248 67.7089 160.744 68.3602 160.857C69.1249 160.319 69.5639 159.725 70.3286 159.187C72.0136 159.144 73.2452 161.707 75.157 160.362C75.157 160.362 75.1569 160.362 75.1003 160.688C75.3693 161.07 75.6949 161.127 75.9639 161.509C75.9639 161.509 76.0206 161.184 76.3463 161.24C76.0206 161.184 75.7516 160.801 75.4259 160.745C75.2703 159.711 74.8456 158.295 74.69 157.261C73.345 155.35 69.7483 156.737 69.3947 152.985C70.6973 153.211 71.3487 153.325 72.3257 153.495C72.5524 152.192 72.8357 150.564 73.0624 149.261C74.4785 148.836 75.5121 148.681 76.5458 148.525C77.5372 146.684 78.1462 145.113 79.1376 143.272C79.7323 143.711 80.0579 143.768 80.6526 144.207C80.7659 143.555 80.8793 142.904 81.0493 141.927C83.06 141.941 85.0284 140.271 87.5204 141.375C88.115 141.814 89.531 141.39 89.9701 140.795C92.1085 138.147 94.6005 139.252 96.4411 140.244C102.345 142.949 108.59 143.7 115.047 145.159C121.178 146.561 127.096 147.256 133.227 148.658C141.907 150.84 150.643 152.696 159.705 154.608C167.465 156.294 174.899 157.923 182.658 159.609C189.766 161.181 196.817 163.079 204.308 164.383C210.495 165.46 216.244 167.131 222.432 168.208C226.34 168.888 229.866 169.837 234.099 170.574C234.17 168.237 231.735 166.807 230.333 165.221C223.325 157.291 215.17 150.168 207.779 142.506C202.654 137.253 197.529 131.999 192.403 126.745C191.002 125.159 188.835 124.111 187.108 122.468C187.604 121.548 188.043 120.953 188.482 120.359C189.19 120.146 189.898 119.934 190.223 119.991C191.413 120.869 192.545 122.072 193.735 122.95C195.462 124.593 197.189 126.236 198.534 128.147C199.936 129.733 201.281 131.645 203.943 131.773C204.594 131.886 205.458 132.708 206.378 133.203C206.662 131.575 206.945 129.947 207.342 127.667C223.043 143.485 238.476 158.921 254.177 174.739C256.131 175.079 258.793 175.207 261.399 175.66C261.399 175.66 261.399 175.66 261.342 175.986C261.611 176.368 261.937 176.425 262.206 176.807C262.206 176.807 262.262 176.481 262.588 176.538C262.262 176.481 261.993 176.099 261.668 176.042C252.295 164.345 241.719 153.781 231.029 143.868C225.847 138.94 221.104 133.417 215.979 128.163C213.657 126.082 211.335 124 209.013 121.918C209.127 121.267 209.566 120.672 209.622 120.347C209.622 120.347 209.353 119.964 209.41 119.639C208.334 118.109 206.876 116.849 206.564 114.781C206.041 112.006 206.041 112.006 203.181 109.16C203.62 108.565 204.059 107.97 204.498 107.376C205.036 108.14 205.956 108.636 206.551 109.075C208.519 107.404 210.162 105.677 211.748 104.275C210.941 103.128 209.808 101.925 208.463 100.013C209.497 99.8574 210.205 99.6451 210.913 99.4327C210.955 101.118 211.819 101.939 213.83 101.953C213.83 101.953 213.83 101.953 213.773 102.279C214.042 102.661 214.368 102.718 214.637 103.1C214.637 103.1 214.693 102.775 215.019 102.832C214.693 102.775 214.424 102.392 214.099 102.336C214.056 100.651 212.867 99.7728 211.182 99.8151C210.375 98.6681 209.894 97.5777 209.087 96.4307C211.324 95.1424 213.122 94.4487 214.652 93.3727C216.436 94.6898 217.951 95.6245 219.735 96.9415C220.174 96.3469 220.556 96.0779 220.995 95.4832C221.972 95.6532 222.949 95.8233 224.252 96.0499C224.592 94.0959 224.55 92.4109 224.89 90.4569C223.162 88.8142 221.817 86.9025 219.495 84.8207C221.18 84.7784 221.888 84.5661 222.483 85.0052C223.729 85.5575 224.593 86.3789 225.782 87.2569C225.626 86.2232 225.796 85.2462 225.697 83.8869C226.405 83.6745 227.439 83.5189 228.147 83.3066C229.874 84.9493 231.927 86.6486 233.655 88.2914C234.037 88.0224 234.476 87.4277 234.858 87.1587C235.835 87.3287 236.43 87.7677 237.407 87.9377C237.676 88.3201 238.327 88.4334 238.596 88.8158C238.596 88.8158 238.596 88.8158 238.54 89.1414C238.809 89.5238 239.134 89.5804 239.403 89.9628C239.403 89.9628 239.46 89.6372 239.786 89.6938C239.46 89.6372 239.191 89.2548 238.865 89.1981C238.54 89.1414 237.945 88.7024 237.676 88.3201C236.289 84.7234 233.259 82.854 230.399 80.0075C230.186 79.2995 230.087 77.9402 229.776 75.8728C233.457 77.8556 236.218 79.3427 239.248 81.2121C239.305 80.8864 239.475 79.9094 240.028 78.6634C240.028 78.6634 239.49 77.8987 238.895 77.4597C239.334 76.865 240.099 76.327 240.594 75.4067C240.594 75.4067 240.594 75.4067 240.538 75.7323C240.807 76.1147 241.132 76.1714 241.401 76.5537C241.401 76.5537 241.458 76.228 241.784 76.2847C241.458 76.228 241.189 75.8457 240.863 75.789C240.056 74.642 238.924 73.4383 238.117 72.2913C238.556 71.6966 238.995 71.1019 239.108 70.4506C240.142 70.2949 240.85 70.0827 241.883 69.927C241.883 69.927 241.883 69.927 241.827 70.2527C242.096 70.635 242.421 70.6917 242.69 71.074C242.69 71.074 242.747 70.7484 243.073 70.805C242.747 70.7484 242.478 70.366 242.152 70.3093C241.402 68.8366 242.28 67.6473 243.809 66.5713C244.73 67.067 245.65 67.5627 246.839 68.4407C246.953 67.7894 247.123 66.8124 247.236 66.161C249.417 65.1984 250.478 68.7385 252.447 67.0678C252.447 67.0678 252.447 67.0678 252.39 67.3935C252.659 67.7758 252.985 67.8325 253.254 68.2148C253.254 68.2148 253.311 67.8891 253.636 67.9458C253.311 67.8891 253.042 67.5068 252.716 67.4502C252.504 66.7422 252.348 65.7085 252.079 65.3261C250.026 63.6267 248.299 61.984 246.515 60.667C247.01 59.7467 247.449 59.152 247.832 58.883C245.326 52.0719 246.19 52.8932 246.784 53.3322C247.053 53.7146 247.705 53.828 247.974 54.2103C248.243 54.5926 248.894 54.706 249.163 55.0883C249.163 55.0883 249.163 55.0883 249.106 55.414C249.375 55.7963 249.701 55.853 249.97 56.2354C249.97 56.2354 250.027 55.9097 250.352 55.9663C250.027 55.9097 249.758 55.5273 249.432 55.4706C249.106 55.414 248.512 54.975 248.243 54.5926C247.705 53.8279 247.379 53.7712 246.784 53.3322ZM371.066 312.851C371.392 312.908 371.392 312.908 371.066 312.851C370.797 312.469 370.528 312.086 370.202 312.03C370.202 312.03 370.146 312.355 369.82 312.299C370.471 312.412 370.74 312.794 371.066 312.851C371.392 312.908 371.392 312.908 371.066 312.851C371.335 313.233 371.661 313.29 371.93 313.672C371.93 313.672 371.986 313.347 372.312 313.403C372.043 313.021 371.717 312.964 371.066 312.851ZM375.597 317.666C375.653 317.34 375.653 317.34 375.597 317.666C375.328 317.284 375.059 316.901 374.733 316.845C374.733 316.845 374.676 317.17 374.351 317.114C374.676 317.17 375.328 317.284 375.597 317.666C375.653 317.34 375.653 317.34 375.597 317.666C375.866 318.048 376.191 318.105 376.46 318.487C376.46 318.487 376.517 318.162 376.843 318.218C376.248 317.779 375.979 317.397 375.597 317.666ZM379.858 322.098C379.589 321.716 379.32 321.334 378.995 321.277C378.995 321.277 378.938 321.603 378.612 321.546C379.207 321.985 379.533 322.042 379.858 322.098C380.127 322.481 380.453 322.537 380.722 322.92C380.722 322.92 380.779 322.594 381.104 322.651C380.51 322.212 380.184 322.155 379.858 322.098ZM382.718 324.945C382.449 324.562 382.18 324.18 381.855 324.123C381.855 324.123 381.798 324.449 381.472 324.392C381.798 324.449 382.393 324.888 382.718 324.945C382.987 325.327 383.313 325.384 383.582 325.766C383.582 325.766 383.639 325.44 383.964 325.497C383.37 325.058 383.044 325.001 382.718 324.945ZM359.74 300.814C359.471 300.432 359.202 300.049 358.876 299.993C358.876 299.993 358.819 300.318 358.494 300.262C359.088 300.701 359.414 300.757 359.74 300.814C360.009 301.196 360.334 301.253 360.603 301.636C360.603 301.636 360.66 301.31 360.986 301.366C360.717 300.984 360.391 300.928 359.74 300.814ZM364.27 305.629C364.001 305.247 363.732 304.864 363.406 304.808C363.406 304.808 363.35 305.133 363.024 305.077C363.35 305.133 363.675 305.19 364.27 305.629C364.539 306.011 364.865 306.068 365.134 306.45C365.134 306.45 365.19 306.125 365.516 306.181C364.921 305.742 364.653 305.36 364.27 305.629ZM366.804 308.419C367.187 308.15 366.861 308.093 366.804 308.419C366.535 308.036 366.267 307.654 365.941 307.597C365.941 307.597 365.884 307.923 365.558 307.866C366.21 307.98 366.535 308.036 366.804 308.419C366.861 308.093 366.861 308.093 366.804 308.419C367.073 308.801 367.399 308.858 367.668 309.24C367.668 309.24 367.725 308.914 368.05 308.971C367.838 308.263 367.512 308.206 366.804 308.419ZM290.123 232.33C290.392 232.713 290.661 233.095 290.987 233.152C290.987 233.152 291.043 232.826 291.369 232.883C290.718 232.769 290.449 232.387 290.123 232.33C289.472 232.217 289.203 231.835 287.843 231.934C288.169 231.99 288.551 231.721 288.877 231.778C288.665 231.07 288.452 230.362 287.858 229.923C287.532 229.866 287.475 230.192 287.15 230.135C287.362 230.843 287.574 231.551 288.495 232.047C289.203 231.835 289.797 232.274 290.123 232.33ZM238.886 162.347C239.155 162.73 239.424 163.112 239.75 163.169C239.75 163.169 239.806 162.843 240.132 162.9C239.481 162.786 239.212 162.404 238.886 162.347C238.617 161.965 238.291 161.908 238.022 161.526C238.022 161.526 237.966 161.852 237.64 161.795C238.235 162.234 238.56 162.291 238.886 162.347ZM236.026 159.501C236.295 159.883 236.564 160.266 236.89 160.322C236.89 160.322 236.946 159.997 237.272 160.053C236.946 159.997 236.352 159.558 236.026 159.501C235.757 159.119 235.431 159.062 235.162 158.68C235.162 158.68 235.106 159.005 234.78 158.949C235.375 159.388 235.644 159.77 236.026 159.501ZM233.492 156.711C233.109 156.98 233.109 156.98 233.492 156.711C233.761 157.094 234.03 157.476 234.355 157.533C234.355 157.533 234.412 157.207 234.738 157.264C234.086 157.15 233.761 157.094 233.492 156.711C233.109 156.98 233.435 157.037 233.492 156.711C233.223 156.329 232.897 156.272 232.628 155.89C232.628 155.89 232.571 156.216 232.246 156.159C232.458 156.867 232.784 156.924 233.492 156.711ZM228.904 152.222C229.173 152.605 229.442 152.987 229.768 153.044C229.768 153.044 229.825 152.718 230.151 152.775C229.825 152.718 229.23 152.279 228.904 152.222C228.635 151.84 228.31 151.783 228.041 151.401C228.041 151.401 227.984 151.727 227.659 151.67C228.253 152.109 228.579 152.166 228.904 152.222ZM36.993 192.643C37.262 193.025 37.531 193.407 37.8567 193.464C37.8567 193.464 37.9134 193.138 38.239 193.195C37.9134 193.138 37.3187 192.699 36.993 192.643C36.724 192.26 36.3984 192.204 36.1294 191.821C36.1294 191.821 36.0727 192.147 35.747 192.09C36.3417 192.529 36.6674 192.586 36.993 192.643ZM223.51 146.586C223.454 146.912 223.454 146.912 223.51 146.586C223.779 146.968 224.048 147.351 224.374 147.407C224.374 147.407 224.431 147.082 224.756 147.138C224.105 147.025 223.779 146.968 223.51 146.586C223.454 146.912 223.454 146.912 223.51 146.586C223.241 146.204 222.916 146.147 222.647 145.765C222.647 145.765 222.59 146.09 222.264 146.034C222.477 146.742 222.802 146.798 223.51 146.586ZM220.594 144.065C220.863 144.448 221.132 144.83 221.457 144.887C221.457 144.887 221.514 144.561 221.84 144.618C221.245 144.179 220.919 144.122 220.594 144.065C220.325 143.683 219.999 143.626 219.73 143.244C219.73 143.244 219.673 143.57 219.348 143.513C219.942 143.952 220.268 144.009 220.594 144.065ZM217.734 141.219C218.003 141.601 218.272 141.984 218.597 142.04C218.597 142.04 218.654 141.715 218.98 141.771C218.654 141.715 218.385 141.332 217.734 141.219C217.465 140.837 217.139 140.78 216.87 140.398C216.87 140.398 216.813 140.723 216.488 140.667C217.082 141.106 217.351 141.488 217.734 141.219ZM215.199 138.429C214.817 138.698 215.143 138.755 215.199 138.429C215.468 138.812 215.737 139.194 216.063 139.251C216.063 139.251 216.12 138.925 216.445 138.982C215.794 138.868 215.468 138.812 215.199 138.429C215.143 138.755 215.143 138.755 215.199 138.429C214.93 138.047 214.605 137.99 214.336 137.608C214.336 137.608 214.279 137.934 213.953 137.877C214.222 138.259 214.491 138.641 215.199 138.429ZM210.612 133.94C210.881 134.322 211.15 134.705 211.476 134.761C211.476 134.761 211.532 134.436 211.858 134.492C211.532 134.436 211.263 134.053 210.612 133.94C210.343 133.558 210.017 133.501 209.748 133.119C209.748 133.119 209.692 133.444 209.366 133.388C209.961 133.827 210.286 133.883 210.612 133.94ZM226.674 84.0569C226.943 84.4392 227.212 84.8216 227.538 84.8782C227.538 84.8782 227.595 84.5525 227.92 84.6092C227.651 84.2269 227.326 84.1702 226.674 84.0569C226.405 83.6745 226.08 83.6178 225.811 83.2355C225.811 83.2355 225.754 83.5612 225.428 83.5045C226.023 83.9435 226.349 84.0002 226.674 84.0569ZM354.133 294.47C353.864 294.088 353.595 293.705 353.269 293.649C353.269 293.649 353.213 293.974 352.887 293.918C353.213 293.974 353.864 294.088 354.133 294.47C354.671 295.235 354.119 296.481 355.86 296.113L355.804 296.438C356.073 296.821 356.398 296.877 356.667 297.26C356.667 297.26 356.724 296.934 357.05 296.991C356.724 296.934 356.455 296.552 356.129 296.495C355.322 295.348 355.549 294.045 354.133 294.47ZM348.257 287.744C348.526 288.126 348.795 288.508 349.121 288.565C349.121 288.565 349.178 288.239 349.503 288.296C348.909 287.857 348.583 287.8 348.257 287.744C347.719 286.979 348.272 285.733 346.53 286.101C346.318 285.393 346.544 284.09 345.185 284.189C344.973 283.481 345.199 282.178 343.458 282.546L343.514 282.221C343.245 281.838 342.92 281.782 342.651 281.399C342.651 281.399 342.594 281.725 342.268 281.668C342.594 281.725 342.863 282.107 343.189 282.164C343.401 282.872 343.174 284.175 344.534 284.076C344.746 284.784 344.519 286.086 345.879 285.987C347.125 286.54 346.516 288.111 348.257 287.744ZM339.692 277.194C339.309 277.463 339.309 277.463 339.692 277.194C339.961 277.576 340.23 277.958 340.555 278.015C340.555 278.015 340.612 277.689 340.938 277.746C340.286 277.633 339.961 277.576 339.692 277.194C339.154 276.429 339.706 275.183 337.964 275.551C337.752 274.843 337.979 273.54 336.237 273.908L336.294 273.582C336.025 273.2 335.699 273.143 335.43 272.761C335.43 272.761 335.373 273.087 335.048 273.03C335.373 273.087 335.642 273.469 335.968 273.526C336.18 274.234 335.954 275.536 337.313 275.437C338.177 276.259 337.95 277.562 339.692 277.194ZM332.089 268.824C332.358 269.207 332.627 269.589 332.953 269.646C332.953 269.646 333.009 269.32 333.335 269.377C333.009 269.32 332.74 268.938 332.089 268.824C331.551 268.06 332.103 266.814 330.361 267.182C330.149 266.474 330.376 265.171 328.634 265.539L328.691 265.213C328.422 264.831 328.096 264.774 327.827 264.392C327.827 264.392 327.771 264.718 327.445 264.661C327.771 264.718 328.04 265.1 328.365 265.157C328.578 265.865 328.351 267.167 329.71 267.068C330.899 267.946 330.673 269.249 332.089 268.824ZM324.812 260.512C325.081 260.894 325.35 261.277 325.675 261.333C325.675 261.333 325.732 261.008 326.058 261.064C325.789 260.682 325.137 260.569 324.812 260.512C324.274 259.747 324.826 258.501 323.084 258.869C322.872 258.161 323.099 256.858 321.357 257.226L321.414 256.901C321.145 256.518 320.819 256.462 320.55 256.079C320.55 256.079 320.493 256.405 320.168 256.348C320.493 256.405 320.762 256.787 321.088 256.844C321.3 257.552 321.074 258.855 322.433 258.756C323.679 259.308 323.07 260.88 324.812 260.512ZM319.262 253.842C318.879 254.111 318.879 254.111 319.262 253.842C319.531 254.224 319.8 254.607 320.125 254.663C320.125 254.663 320.182 254.338 320.508 254.394C319.856 254.281 319.531 254.224 319.262 253.842C318.724 253.077 319.276 251.831 317.534 252.199C317.322 251.491 317.549 250.189 315.807 250.557L315.864 250.231C315.595 249.849 315.269 249.792 315 249.41C315 249.41 314.943 249.735 314.618 249.679C314.943 249.735 315.212 250.118 315.538 250.174C315.75 250.882 315.524 252.185 316.883 252.086C317.747 252.907 317.52 254.21 319.262 253.842ZM311.659 245.473C311.928 245.855 312.197 246.237 312.522 246.294C312.522 246.294 312.579 245.968 312.905 246.025C312.579 245.968 312.31 245.586 311.659 245.473C311.121 244.708 311.673 243.462 309.931 243.83C309.719 243.122 309.946 241.819 308.204 242.187L308.261 241.862C307.992 241.479 307.666 241.423 307.397 241.04C307.397 241.04 307.34 241.366 307.015 241.309C307.34 241.366 307.609 241.748 307.935 241.805C308.147 242.513 307.921 243.816 309.28 243.717C310.469 244.595 310.243 245.897 311.659 245.473ZM304.381 237.16C304.65 237.543 304.919 237.925 305.245 237.982C305.245 237.982 305.302 237.656 305.627 237.713C305.033 237.274 304.707 237.217 304.381 237.16C303.843 236.396 304.396 235.15 302.654 235.518L302.711 235.192C302.442 234.81 302.116 234.753 301.847 234.371C301.847 234.371 301.79 234.696 301.465 234.64C301.79 234.696 302.059 235.079 302.385 235.135C303.249 235.957 302.64 237.528 304.381 237.16ZM188.17 255.188C187.307 254.366 186.981 254.31 186.981 254.31C186.599 254.579 185.891 254.791 185.508 255.06C186.16 255.173 186.811 255.287 185.239 254.678C184.815 253.262 183.668 254.069 183.016 253.955C182.592 252.539 181.445 253.346 180.793 253.233C180.369 251.817 179.222 252.624 178.57 252.511C176.461 251.137 174.124 251.066 171.576 250.287C170.33 249.734 169.239 250.216 167.88 250.315C167.611 249.932 167.342 249.55 166.691 249.437C162.188 248.318 157.629 247.524 153.069 246.731C149.218 245.725 145.366 244.719 141.515 243.714C140.864 243.6 139.773 244.082 138.74 244.237C136.63 242.863 134.294 242.792 131.745 242.013C130.499 241.461 129.409 241.942 128.049 242.041C127.78 241.659 127.511 241.277 126.86 241.163C122.357 240.044 117.798 239.251 113.239 238.457C109.387 237.452 105.536 236.446 101.685 235.44C101.033 235.327 99.9429 235.808 98.9092 235.964C98.4846 234.548 97.3375 235.355 96.6862 235.241C96.2616 233.825 95.1145 234.632 94.4632 234.519C92.7359 232.876 90.7252 232.862 88.6011 233.499C88.1765 232.083 87.0295 232.89 86.3782 232.777C85.9535 231.361 84.8065 232.168 84.1551 232.054C83.7305 230.638 82.5835 231.445 81.9321 231.332C80.2048 229.689 78.1941 229.675 76.0701 230.312C75.6454 228.896 74.4984 229.703 73.8471 229.589C73.4224 228.173 72.2754 228.98 71.6241 228.867C71.1994 227.451 70.0524 228.258 69.4011 228.145C67.6737 226.502 65.6631 226.487 63.539 227.124C63.27 226.742 63.001 226.36 62.3497 226.246C53.939 224.447 45.8539 222.705 37.4432 220.906C36.4662 220.736 35.4325 220.891 34.3422 221.373L34.3989 221.047C34.1299 220.665 33.8042 220.608 33.5352 220.226C33.5352 220.226 33.4785 220.551 33.1529 220.495C33.4785 220.551 33.7475 220.934 34.0732 220.99C35.6449 221.599 37.3722 223.242 39.0572 223.2C42.7529 223.172 45.7829 225.041 49.4786 225.013C52.792 225.254 56.3176 226.203 59.8433 227.152C61.0893 227.705 62.1797 227.223 63.539 227.124C65.2664 228.767 67.277 228.781 69.4011 228.145C69.8257 229.561 70.9727 228.754 71.6241 228.867C72.0487 230.283 73.1958 229.476 73.8471 229.589C74.2717 231.005 75.4188 230.198 76.0701 230.312C77.7974 231.954 79.8081 231.969 81.9321 231.332C82.3568 232.748 83.5038 231.941 84.1551 232.054C84.5798 233.47 85.7268 232.663 86.3782 232.777C86.8028 234.193 87.9498 233.386 88.6011 233.499C90.3285 235.142 92.3392 235.156 94.4632 234.519C94.8878 235.935 96.0349 235.128 96.6862 235.241C97.1108 236.657 98.2579 235.85 98.9092 235.964C98.8525 236.289 98.8525 236.289 99.1782 236.346C107.745 239.179 116.708 239.732 125.331 242.239C125.982 242.353 127.072 241.871 128.106 241.716C130.216 243.089 132.552 243.16 135.101 243.939C136.347 244.492 137.437 244.011 138.796 243.912C139.065 244.294 139.334 244.676 139.986 244.79C144.488 245.909 149.048 246.702 153.607 247.496C157.459 248.501 161.31 249.507 165.161 250.513C165.813 250.626 166.903 250.145 167.937 249.989C170.046 251.363 172.383 251.434 174.931 252.213C176.177 252.765 177.268 252.284 178.627 252.185C179.052 253.601 180.199 252.794 180.85 252.907C181.275 254.323 182.422 253.516 183.073 253.63C183.059 255.64 184.262 254.508 188.17 255.188ZM243.148 166.78C243.091 167.106 243.091 167.106 243.148 166.78C243.417 167.162 243.686 167.545 244.011 167.601C244.011 167.601 244.068 167.276 244.394 167.332C243.742 167.219 243.417 167.162 243.148 166.78C242.61 166.015 243.162 164.769 241.42 165.137L241.477 164.812C241.208 164.429 240.882 164.373 240.613 163.99C240.613 163.99 240.557 164.316 240.231 164.259C240.557 164.316 240.826 164.698 241.151 164.755C241.958 165.902 241.406 167.148 243.148 166.78ZM231.262 88.546C230.879 88.815 231.205 88.8716 231.262 88.546C231.531 88.9283 231.8 89.3106 232.125 89.3673C232.125 89.3673 232.182 89.0417 232.508 89.0983C231.856 88.985 231.531 88.9283 231.262 88.546C230.724 87.7813 231.276 86.5353 229.534 86.9033L229.591 86.5776C229.322 86.1953 228.996 86.1386 228.727 85.7562C228.727 85.7562 228.671 86.0819 228.345 86.0253C228.671 86.0819 228.94 86.4642 229.265 86.5209C229.747 87.6113 229.52 88.9139 231.262 88.546ZM243.852 68.2563L244.177 68.313C244.234 67.9873 243.965 67.605 244.022 67.2793L243.696 67.2226C243.639 67.5483 243.583 67.874 243.852 68.2563ZM239.163 85.5591L239.22 85.2334C238.894 85.1768 238.512 85.4457 238.186 85.3891L238.129 85.7147C238.455 85.7714 238.837 85.5024 239.163 85.5591ZM232.493 91.109L232.437 91.4347C232.762 91.4914 233.145 91.2224 233.47 91.279L233.527 90.9534C233.201 90.8967 232.876 90.84 232.493 91.109ZM206.775 130.924L206.718 131.249C207.044 131.306 207.426 131.037 207.752 131.094L207.809 130.768C207.483 130.711 207.157 130.655 206.775 130.924ZM213.529 136.461L213.585 136.135C213.26 136.078 212.877 136.347 212.552 136.291L212.495 136.616C212.821 136.673 213.203 136.404 213.529 136.461ZM225.068 149.206L225.011 149.531C225.337 149.588 225.719 149.319 226.045 149.376L226.101 149.05C225.776 148.993 225.45 148.937 225.068 149.206ZM40.2497 193.209L39.9241 193.153C39.8674 193.478 40.1364 193.861 40.0797 194.186L40.4054 194.243C40.1364 193.861 40.193 193.535 40.2497 193.209ZM231.821 154.743L231.878 154.417C231.552 154.361 231.17 154.63 230.844 154.573L230.787 154.899C231.113 154.955 231.495 154.686 231.821 154.743ZM30.7032 221.075L30.6465 221.4C30.9722 221.457 31.3545 221.188 31.6802 221.245L31.7368 220.919C31.4112 220.863 31.0855 220.806 30.7032 221.075ZM299.752 230.986L299.808 230.66C299.483 230.604 299.101 230.873 298.775 230.816L298.718 231.142C299.044 231.198 299.369 231.255 299.752 230.986ZM189.261 254.706L188.935 254.65C188.878 254.975 189.147 255.358 189.091 255.683L189.416 255.74C189.473 255.414 189.53 255.089 189.261 254.706ZM191.639 256.463L191.965 256.519C192.022 256.194 191.753 255.811 191.809 255.486L191.484 255.429C191.427 255.755 191.37 256.08 191.639 256.463ZM300.828 232.516L300.502 232.459C300.445 232.785 300.714 233.167 300.658 233.493L300.983 233.549C301.04 233.224 300.771 232.841 300.828 232.516ZM194.627 256.647L194.684 256.321C194.358 256.265 193.976 256.534 193.65 256.477L193.593 256.803C193.919 256.859 194.245 256.916 194.627 256.647ZM196.312 256.605L195.986 256.548C195.93 256.874 196.199 257.256 196.142 257.582L196.468 257.638C196.524 257.313 196.255 256.93 196.312 256.605ZM198.691 258.361L199.016 258.417C199.073 258.092 198.804 257.709 198.861 257.384L198.535 257.327C198.478 257.653 198.422 257.978 198.691 258.361ZM201.353 258.488L201.409 258.163C201.084 258.106 200.701 258.375 200.376 258.318L200.319 258.644C200.645 258.701 201.027 258.432 201.353 258.488ZM203.901 259.267L203.958 258.942C203.632 258.885 203.25 259.154 202.924 259.097L202.868 259.423C203.25 259.154 203.576 259.211 203.901 259.267ZM362.118 302.57L361.793 302.514C361.736 302.839 362.005 303.222 361.948 303.547L362.274 303.604C362.331 303.278 362.062 302.896 362.118 302.57ZM357.149 298.35L357.092 298.676C357.418 298.732 357.8 298.463 358.126 298.52L358.182 298.194C357.857 298.138 357.474 298.407 357.149 298.35ZM351.981 291.411L351.655 291.355C351.599 291.68 351.868 292.063 351.811 292.388L352.137 292.445C352.193 292.119 351.924 291.737 351.981 291.411ZM349.871 290.038L349.815 290.363C350.14 290.42 350.523 290.151 350.848 290.208L350.905 289.882C350.579 289.825 350.254 289.769 349.871 290.038ZM384.389 326.913L384.332 327.239C384.658 327.295 385.04 327.026 385.366 327.083L385.423 326.757C385.04 327.026 384.715 326.97 384.389 326.913ZM377.706 319.04L377.381 318.983C377.324 319.309 377.593 319.691 377.536 320.017L377.862 320.073C377.919 319.748 377.975 319.422 377.706 319.04ZM341.518 280.196L341.844 280.252C341.9 279.927 341.631 279.544 341.688 279.219L341.362 279.162C341.306 279.488 341.575 279.87 341.518 280.196ZM334.241 271.883L334.566 271.94C334.623 271.614 334.354 271.232 334.411 270.906L334.085 270.849C334.028 271.175 334.297 271.557 334.241 271.883ZM374.039 315.046L374.096 314.721C373.77 314.664 373.388 314.933 373.062 314.876L373.006 315.202C373.331 315.259 373.657 315.315 374.039 315.046ZM327.403 262.976L327.459 262.65C327.134 262.594 326.751 262.863 326.426 262.806L326.369 263.132C326.695 263.188 327.077 262.919 327.403 262.976ZM314.575 247.994L314.632 247.668C314.306 247.611 313.924 247.88 313.598 247.824L313.542 248.149C313.867 248.206 314.25 247.937 314.575 247.994ZM224.787 264.58L224.843 264.254C224.518 264.197 224.135 264.466 223.81 264.409L223.753 264.735C224.079 264.792 224.404 264.849 224.787 264.58ZM221.969 263.418L221.643 263.361C221.587 263.687 221.856 264.069 221.799 264.395L222.125 264.452C222.181 264.126 222.238 263.8 221.969 263.418ZM218.981 263.234L218.925 263.559C219.25 263.616 219.633 263.347 219.958 263.404L220.015 263.078C219.689 263.021 219.307 263.29 218.981 263.234ZM217.466 262.299L217.141 262.242C217.084 262.568 217.353 262.95 217.296 263.276L217.622 263.333C217.679 263.007 217.41 262.625 217.466 262.299ZM215.073 262.554L215.399 262.61C215.456 262.285 215.187 261.902 215.243 261.577L214.917 261.52C214.861 261.846 214.804 262.171 215.073 262.554ZM213.233 261.562L213.289 261.237C212.964 261.18 212.581 261.449 212.256 261.392L212.199 261.718C212.524 261.775 212.907 261.506 213.233 261.562ZM210.415 260.401L210.089 260.344C210.032 260.67 210.301 261.052 210.245 261.378L210.57 261.435C210.627 261.109 210.358 260.727 210.415 260.401ZM305.995 239.454L305.939 239.78C306.264 239.837 306.647 239.568 306.972 239.624L307.029 239.299C306.703 239.242 306.321 239.511 305.995 239.454ZM207.965 260.981L208.291 261.038C208.347 260.712 208.078 260.33 208.135 260.004L207.809 259.948C207.753 260.273 207.696 260.599 207.965 260.981ZM369.778 310.614L369.834 310.288C369.509 310.231 369.127 310.5 368.801 310.444L368.744 310.769C369.07 310.826 369.452 310.557 369.778 310.614ZM205.416 260.202L205.742 260.259C205.799 259.933 205.53 259.551 205.586 259.225L205.261 259.168C205.53 259.551 205.473 259.876 205.416 260.202Z" fill="#292929"/>
<g clip-path="url(#clip0_481_19)">
<path d="M226.705 118.25C230.062 116.542 233.592 115.182 236.544 112.838C239.958 110.089 241.55 105.778 240.595 101.466C239.698 97.4729 236.63 94.3477 234.171 91.2514C229.367 85.1746 224.564 79.0978 219.731 73.021C214.349 66.2787 209.14 59.218 203.353 52.765C199.793 48.8296 193.254 52.0416 193.167 56.9899C193.022 68.1017 191.807 79.2714 191.025 90.3544C190.649 95.8524 190.186 101.35 190.071 106.849C189.955 112.289 189.752 118.105 191.199 123.372C190.852 123.777 190.476 124.153 190.042 124.5C188.826 125.513 188.711 127.596 189.463 128.899C190.331 130.374 191.951 130.866 193.572 130.577C194.064 130.49 194.266 130.432 194.295 130.403C194.787 130.432 195.395 130.577 195.858 130.606C197.044 130.693 198.202 130.577 199.359 130.317C201.182 129.911 203.005 129.275 204.771 128.667C208.822 127.307 212.67 125.224 216.49 123.401C219.934 121.78 223.319 119.986 226.705 118.25ZM228.412 102.971C228.412 102.942 228.441 102.942 228.441 102.913C228.644 102.797 228.875 102.682 228.557 102.884C228.528 102.913 228.47 102.942 228.412 102.971ZM228.325 104.765C228.268 104.794 228.239 104.649 228.181 104.476C228.296 104.649 228.354 104.765 228.325 104.765ZM199.591 116.427C199.301 116.6 199.041 116.774 198.752 116.948C199.359 114.199 199.736 111.363 200.141 108.585C200.98 102.768 201.443 96.9231 201.935 91.0778C202.398 85.5797 202.89 80.0817 203.353 74.5836C203.411 73.9181 203.468 73.2525 203.526 72.6159C204.684 74.0917 205.841 75.5675 206.999 77.0433C211.484 82.8596 215.998 88.6181 220.512 94.4055C222.712 97.2124 224.969 100.019 227.139 102.855C227.168 102.884 227.168 102.884 227.197 102.913C227.226 102.942 227.226 102.971 227.255 103.029C227.342 103.202 227.457 103.347 227.573 103.492C222.191 106.559 216.172 108.585 210.558 111.16C206.912 112.781 203.005 114.285 199.591 116.427Z" fill="url(#paint0_linear_481_19)"/>
<path d="M251.475 128.204C251.794 127.452 251.417 126.613 250.549 126.584C248.9 126.526 247.656 127.221 246.122 127.799C244.53 128.407 243.026 129.188 241.463 129.941C238.483 131.416 235.618 133.066 232.811 134.831C230.004 136.596 227.197 138.361 224.39 140.155C221.525 141.979 218.429 143.888 216.172 146.406C214.609 148.171 216.085 151.181 218.545 150.486C221.815 149.56 224.853 147.679 227.747 145.885C230.554 144.149 233.39 142.384 236.197 140.618C239.032 138.853 241.752 136.972 244.386 134.947C245.746 133.905 247.135 132.892 248.408 131.706C249.594 130.606 250.81 129.738 251.475 128.204Z" fill="url(#paint1_linear_481_19)"/>
<path d="M261.69 141.631C261.632 141.631 261.603 141.631 261.545 141.631C260.156 141.139 258.738 141.834 257.407 142.297C255.932 142.789 254.629 143.599 253.298 144.409C250.896 145.943 248.379 147.476 246.411 149.589C245.485 150.573 245.138 152.222 245.919 153.438C246.643 154.566 248.147 155.347 249.507 154.884C252.343 153.929 254.803 152.309 257.292 150.66C258.594 149.82 259.867 148.923 260.909 147.795C261.343 147.303 261.864 146.898 262.269 146.377C262.703 145.885 262.992 145.364 263.166 144.699C263.253 143.946 263.282 143.801 263.224 144.264C263.282 144.12 263.339 144.004 263.368 143.859C263.831 142.731 262.703 141.689 261.69 141.631Z" fill="url(#paint2_linear_481_19)"/>
</g>
<defs>
<linearGradient id="paint0_linear_481_19" x1="214.93" y1="51.0044" x2="214.93" y2="130.656" gradientUnits="userSpaceOnUse">
<stop stop-color="#E80BEE"/>
<stop offset="1" stop-color="#FFC612"/>
</linearGradient>
<linearGradient id="paint1_linear_481_19" x1="233.558" y1="126.581" x2="233.558" y2="150.588" gradientUnits="userSpaceOnUse">
<stop stop-color="#E80BEE"/>
<stop offset="1" stop-color="#FFC612"/>
</linearGradient>
<linearGradient id="paint2_linear_481_19" x1="254.481" y1="141.462" x2="254.481" y2="155.02" gradientUnits="userSpaceOnUse">
<stop stop-color="#E80BEE"/>
<stop offset="1" stop-color="#FFC612"/>
</linearGradient>
<clipPath id="clip0_481_19">
<rect width="74.4841" height="104" fill="white" transform="translate(189 51)"/>
</clipPath>
</defs>
</svg>
