<svg width="162" height="164" viewBox="0 0 162 164" fill="none" xmlns="http://www.w3.org/2000/svg">
<g clip-path="url(#clip0_11_14514)">
<path d="M128.814 34.7676C115.714 28.8636 93.8814 21.2103 79.69 20.7729C62.2237 19.8983 49.124 24.4903 34.7143 34.5489C29.6927 38.0476 25.5445 42.4209 22.0512 47.2316C8.95147 65.3809 5.23988 90.0903 12.0081 111.301C18.9946 132.73 36.4609 150.224 57.6388 157.44C64.1887 159.626 71.1752 160.938 78.1617 161.594C88.6415 162.688 99.3396 162.906 109.164 158.752C115.496 156.128 120.954 151.754 126.412 147.6C131.652 143.445 137.111 139.072 141.477 134.042C154.14 119.173 158.07 98.3996 156.542 78.9383C154.795 58.8209 147.372 46.5756 128.814 34.7676Z" fill="#FFC907"/>
<path d="M107.199 32.1437C84.7116 6.12235 43.6658 10.7143 20.3046 33.4557C-5.67654 58.3837 -5.67654 100.586 13.7547 129.45C34.9326 160.501 76.6334 171.653 111.348 158.533C141.914 146.944 163.31 112.613 162.218 80.2504C160.69 44.389 130.561 3.49835 93.0081 -0.000320334C87.5499 -0.437654 85.5849 6.34101 89.5148 9.62101C100.213 18.149 113.094 22.9597 123.574 31.925C134.491 41.765 141.259 54.0103 144.752 68.2237C150.865 92.4957 141.259 118.736 122.264 135.136C99.3396 154.816 62.8787 153.941 39.0809 136.448C13.5364 118.08 4.36658 80.6877 19.6496 52.917C26.8545 39.797 39.7359 29.957 54.1456 25.8023C71.8302 20.5543 88.8599 25.365 103.488 36.2983C105.89 38.2663 109.164 34.549 107.199 32.1437Z" fill="black"/>
<path d="M46.9407 79.8132C46.504 81.9999 47.5957 77.8452 47.5957 77.8452C47.814 76.7519 47.3773 75.6586 47.3773 74.5652C47.3773 72.5972 47.5957 70.6292 48.469 68.8799C50.4339 64.7252 53.9272 63.4132 57.4205 61.0079C61.3504 58.3839 58.9488 50.9492 54.3638 50.9492C46.7223 51.1679 40.8275 56.8532 37.7709 63.6319C36.4609 66.6932 35.5876 70.1919 35.8059 73.4719C35.8059 75.2212 36.0242 76.9706 36.6792 78.7199C37.5525 80.9066 38.8625 81.5626 40.6091 82.8746C43.2291 84.6239 46.504 82.6559 46.9407 79.8132Z" fill="black"/>
<path d="M98.6847 93.8074C100.431 89.8714 98.6847 85.2794 99.9947 81.1247C101.523 76.5327 106.545 74.7834 107.636 70.4101C108.291 68.0047 107.418 64.5061 104.58 63.8501C90.8249 60.3514 79.9084 90.9647 93.8815 95.7754C95.8464 96.6501 97.8114 95.7754 98.6847 93.8074Z" fill="black"/>
<path d="M28.6011 101.68C30.7844 100.805 34.2777 116.549 36.6793 118.954C39.5176 121.797 43.0108 122.453 46.9408 122.453C49.9974 122.453 53.9273 121.141 56.9839 121.797C63.9704 123.109 62.6604 126.826 65.717 130.106C68.992 133.605 71.3936 136.01 76.6335 136.229C82.7467 136.448 87.3316 132.73 92.5715 130.544C99.3397 127.701 106.763 129.013 113.749 126.608C122.046 123.546 127.504 115.674 123.793 107.146C121.609 101.898 113.968 105.616 115.714 110.864C118.771 119.829 100.65 119.392 96.5014 120.266C91.6982 121.141 87.1133 125.733 82.7467 126.17C79.0351 125.296 75.1052 124.421 71.3936 123.546C70.7386 122.672 70.3019 121.797 69.647 120.704C68.5553 119.829 67.9003 118.298 67.027 117.424C64.4071 115.018 61.5688 113.925 58.0755 113.706C52.1807 113.05 44.9758 117.424 41.2642 109.552C39.7359 106.272 40.8276 102.336 38.8626 99.0558C35.5877 93.8078 29.9111 92.0585 25.3262 95.9945C21.8329 98.3998 25.1079 102.992 28.6011 101.68Z" fill="black"/>
<path d="M117.679 43.5146C117.679 43.7332 117.679 43.9519 117.679 43.9519C117.679 47.6692 123.356 47.6692 123.356 43.9519C123.356 43.7332 123.356 43.5146 123.356 43.5146C123.356 39.7972 117.679 39.7972 117.679 43.5146Z" fill="white"/>
<path d="M125.539 54.0107C129.469 58.6027 131.871 64.0694 132.744 69.9734C133.399 73.472 138.857 71.9414 138.202 68.4427C137.11 61.4454 134.054 55.3227 129.469 50.0747C127.067 47.232 123.137 51.3867 125.539 54.0107Z" fill="white"/>
<path d="M135.146 85.2792C134.927 88.7779 134.709 92.0579 134.491 95.5565C134.272 99.2739 139.949 99.2739 140.167 95.5565C140.385 92.0579 140.604 88.7779 140.822 85.2792C141.04 81.5619 135.364 81.5619 135.146 85.2792Z" fill="white"/>
<path d="M134.49 108.677C138.202 108.677 138.202 102.991 134.49 102.991C130.779 102.991 130.779 108.677 134.49 108.677Z" fill="white"/>
</g>
<defs>
<clipPath id="clip0_11_14514">
<rect width="162" height="164" fill="white"/>
</clipPath>
</defs>
</svg>
