<svg width="259" height="187" viewBox="0 0 259 187" fill="none" xmlns="http://www.w3.org/2000/svg">
<g clip-path="url(#clip0_11_14530)">
<path fill-rule="evenodd" clip-rule="evenodd" d="M24.1796 49.1144C24.0441 48.3409 22.9177 48.7376 22.4632 48.4186C22.84 47.1566 23.4103 45.8608 22.3657 44.4493C25.4978 40.7115 28.6778 34.9721 35.7271 36.5274C37.9361 34.3465 42.916 35.4671 44.4771 33.0011C45.6134 33.7986 46.2035 34.8911 47.3538 33.4937C47.9538 35.7804 49.6165 33.8945 50.5016 35.5333C51.8892 35.4895 51.9131 34.4887 53.1073 34.4788C53.2428 35.2523 52.6966 35.5473 53.0255 36.287C53.48 36.606 54.4469 36.4366 55.2204 36.301C55.8204 38.5877 57.7641 39.443 59.4706 38.9447C59.5723 39.5249 59.026 39.8199 58.412 39.7282C58.6153 40.8884 59.1376 41.5942 59.4665 42.3338C60.8201 42.0966 62.3333 41.6322 63.5514 40.6215C63.6671 39.0067 62.0185 38.6976 62.5887 37.4018C64.3051 38.0977 66.1472 38.3729 66.9066 40.4323C70.842 40.1414 75.8219 41.262 78.1722 44.4379C79.2408 44.8486 79.9903 45.7139 81.5374 45.4428C81.4795 46.2502 79.9903 45.7139 79.8986 46.3279C79.9085 47.5221 80.7159 47.5799 81.3638 47.865C81.1465 48.8997 79.8408 47.1353 79.6234 48.17C79.8705 50.7178 83.9455 47.8113 85.3091 48.7683C87.1074 47.656 86.5991 44.7553 88.3635 43.4496C89.5238 43.2463 90.6841 43.043 91.651 42.8736C90.1998 39.1415 93.5352 36.5639 93.4476 33.7889C93.4278 31.4005 89.985 28.8147 92.808 26.7255C96.502 28.4701 103.083 31.9014 100.096 37.6069C102.012 42.8521 96.8483 42.9595 94.9004 45.4933C96.1243 49.0659 94.4277 50.7583 93.379 52.7359C95.7152 58.1068 96.2631 65.7841 101.311 67.2915C105.077 66.0337 108.601 66.8114 112.232 64.7801C113.107 65.2247 113.663 66.1238 114.664 66.1478C116.077 73.0756 125.098 71.0963 130.295 71.1823C131.557 71.5592 132.819 71.936 134.366 71.6649C135.913 71.3939 134.961 69.3683 136.769 69.4502C137.277 72.3509 138.752 75.0821 141.005 74.2888C143.644 73.4277 141.386 69.6378 142.526 67.0462C143.106 66.9445 143.687 66.8429 144.267 66.7412C145.138 70.5749 144.926 76.1929 149.804 76.7333C150.54 79.7935 153.189 80.1266 156.032 80.4258C156.202 81.3927 157.077 81.8373 157.087 83.0314C158.054 82.862 158.339 82.2141 159.045 81.6918C164.585 80.3225 165.689 88.899 161.115 90.0989C160.308 90.041 159.172 89.2436 158.34 90.1865C159.883 93.3045 163.205 92.9219 164.781 96.2333C165.246 97.7465 164.357 99.4968 165.846 100.033C167.576 98.5341 168.035 95.464 170.834 94.3756C173.86 93.4467 177.225 94.4516 178.826 96.7623C183.352 97.5639 188.379 96.683 193.499 95.188C194.466 95.0186 194.524 94.2112 194.843 93.7567C195.138 94.3029 195.945 94.3608 196.593 94.6459C204.464 94.0641 205.178 86.7636 209.674 83.9828C214.909 80.873 225.443 78.4293 230.351 82.5523C238.836 82.0623 245.77 85.2324 245.438 95.8542C250.882 98.488 251.604 103.743 245.755 106.761C242.83 108.27 238.769 108.982 237.038 110.481C236.594 111.356 235.956 112.265 235.966 113.459C235.738 113.3 234.67 112.889 235.067 114.015C232.268 115.104 229.845 114.93 227.529 111.948C226.484 110.536 224.541 109.681 224.279 109.328C222.35 106.278 224.332 103.937 226.381 101.984C225.37 100.766 225.655 100.118 225.157 98.4111C221.14 100.51 217.567 101.734 213.178 101.706C208.208 101.779 204.117 98.9085 200.534 98.9383C198.953 99.0159 197.542 100.061 195.995 100.332C193.868 100.704 191.639 100.497 189.546 101.063C184.233 102.592 181.294 106.296 178.457 110.58C177.843 110.488 177.717 110.909 177.364 111.17C175.576 113.476 174.242 116.102 174.045 119.525C171.86 120.705 173.083 124.278 170.637 125.105C171.321 133.556 165.902 137.893 160.415 141.844C160.643 142.004 160.938 142.55 161.005 142.937C160.778 142.777 160.517 142.425 160.256 142.072C158.583 142.763 159.604 145.176 156.761 144.877C157.371 148.357 153.262 151.07 150.82 148.509C149.307 148.973 149.578 150.52 148.553 151.497C143.38 150.41 139.759 153.636 136.844 156.339C132.59 157.084 130.284 155.296 127.305 154.223C126.338 154.393 126.962 155.678 127.098 156.452C124.197 156.96 126.069 160.818 124.952 162.409C124.213 162.738 124.111 162.158 123.338 162.293C122.347 163.463 123.856 166.388 122.638 167.399C122.434 166.238 122.197 164.885 121.994 163.724C120.766 163.541 121.163 164.667 120.355 164.609C120.297 165.417 121.826 170.73 120.714 168.932C119.51 167.747 120.08 166.452 118.876 165.267C118.204 165.983 119.089 167.622 118.451 168.531C116.348 167.903 115.874 165.195 113.93 164.34C113.031 164.896 111.029 164.848 111.039 166.042C110.381 164.563 109.245 163.766 107.471 163.877C108.133 161.967 111.149 159.844 108.195 157.771C107 157.781 106.657 159.236 105.555 158.632C105.806 157.791 107.421 157.906 107.411 156.712C105.844 154.595 107.904 153.836 108.213 152.187C102.077 147.88 93.2969 147.824 85.3485 146.825C84.4634 145.186 82.6213 144.911 81.4173 143.727C80.8314 139.245 84.9089 124.977 76.8506 130.176C77.8712 132.588 75.8696 132.541 76.7307 135.18C75.3531 136.418 74.43 137.975 73.5069 139.532C72.54 139.701 72.883 138.246 72.2351 137.961C70.8814 138.198 71.2442 139.131 70.1079 138.334C69.7451 137.401 67.289 137.034 66.4378 135.588C65.8478 134.496 66.9981 133.098 65.5089 132.562C65.856 127.718 69.1237 124.753 74.5003 127C75.0127 126.512 75.5589 126.217 76.0713 125.728C76.3705 122.886 74.5623 122.804 74.6681 119.995C72.7045 116.751 69.784 114.871 66.385 113.673C64.9974 113.717 65.3941 114.843 64.4611 115.206C63.2669 115.216 62.2662 115.192 61.1976 114.781C55.9144 119.892 47.2644 116.026 42.039 120.33C41.9571 122.138 41.4208 123.628 38.8391 123.681C38.2152 122.395 39.1821 122.226 39.4333 121.385C33.0856 122.696 24.9736 125.313 16.6103 128.772C11.0544 124.364 22.406 123.172 26.7182 121.619C30.4841 120.362 32.751 117.373 35.9467 117.411C43.5166 111.7 53.3748 113.361 62.9182 112.088C64.0107 111.498 63.3868 110.212 62.8306 109.313C62.091 109.642 61.3513 109.97 60.1911 110.174C58.7936 109.023 59.5035 105.112 56.6706 106.007C56.7962 105.586 56.9218 105.166 56.7863 104.392C56.878 103.778 54.9442 104.117 55.2392 104.663C54.2285 103.445 55.9252 101.753 54.9723 99.7271C54.8029 98.7602 53.517 99.3841 52.7435 99.5196C51.5196 95.9471 47.5842 96.238 45.2438 94.2562C44.2472 90.8432 46.6595 89.8225 47.2198 87.3326C44.3332 85.6459 43.1787 90.4324 43.6431 91.9456C42.7341 91.3076 43.2605 88.6242 42.3853 88.1796C41.225 88.3829 41.2011 89.3837 39.3929 89.3019C38.721 90.0176 39.1855 91.5307 38.707 92.2125C37.9574 91.3472 38.8706 88.5961 36.9029 88.7416C35.5831 89.1721 35.1385 90.0473 35.603 91.5605C33.8865 90.8646 33.2527 88.3846 31.0916 88.5639C32.2081 86.9731 31.3809 84.5269 29.79 83.4104C28.1752 83.2947 28.1513 84.2955 26.7976 84.5326C26.5943 83.3724 27.7207 82.9757 29.1082 82.9319C29.2239 81.3171 28.9628 80.9642 29.0446 79.156C31.7858 78.8751 30.5958 75.4959 33.1097 75.0554C31.4991 71.5506 36.527 70.6697 36.5311 67.2806C35.9749 66.3814 33.9494 67.3343 34.3502 65.0716C33.3494 65.0476 33.2577 65.6616 32.2908 65.831C32.9288 64.922 33.0784 63.5006 32.1354 62.6692C31.1347 62.6452 31.0429 63.2592 30.4628 63.3609C30.0083 63.0419 29.8727 62.2684 29.2248 61.9833C30.7281 60.3247 29.1273 58.014 27.4448 57.5116C26.4779 57.681 25.0424 59.7263 25.1002 58.9189C27.9472 55.829 22.9813 52.5134 24.1796 49.1144ZM72.8485 64.1064C72.6452 62.9462 72.4419 61.7859 72.2725 60.819C71.1122 61.0223 72.1906 62.6272 71.4849 63.1494C70.3585 63.5461 70.8271 61.6702 69.7346 62.2602C69.585 63.6816 70.4023 64.9337 69.6965 65.4559C68.947 64.5907 68.961 62.3958 67.414 62.6668C66.2198 62.6767 67.071 64.1221 65.843 63.9386C65.8331 62.7445 66.1182 62.0966 65.0158 61.4925C64.2422 61.628 64.1166 62.0486 63.5704 62.3437C63.7737 63.504 64.0109 64.8576 64.5331 65.5634C63.4307 64.9593 63.0002 63.6395 61.8498 65.0369C61.6804 64.07 60.9069 64.2056 60.8969 63.0114C59.8962 62.9874 59.5772 63.442 58.8375 63.7709C58.4706 66.227 60.2069 69.3111 59.7722 71.3804C57.5434 71.173 59.6069 67.0244 57.2186 67.0443C56.7401 67.7261 56.6822 68.5335 55.9765 69.0557C54.8741 68.4516 53.6559 69.4623 53.632 70.4631C53.0659 68.3698 49.8801 69.526 48.8892 70.6961C49.1603 72.2432 50.799 71.3581 51.0701 72.9051C50.0693 72.8812 49.9776 73.4952 49.6925 74.1431C50.5676 74.5877 50.9643 75.7141 51.68 76.386C53.841 76.2067 55.2286 76.1629 56.4128 74.9588C57.8103 76.1091 59.2895 75.4513 60.1887 74.8952C60.2564 75.2819 59.8697 75.3497 59.9713 75.9298C62.553 75.8761 63.4141 78.5157 66.3148 78.0074C65.5174 79.1437 66.528 80.3619 67.9156 80.3181C68.0652 78.8967 67.1222 78.0653 68.4081 77.4413C70.3956 79.6842 69.6081 82.0147 70.7642 85.2005C71.7989 85.4179 72.5385 85.0889 73.2104 84.3733C72.7121 82.6667 71.7014 81.4486 71.3287 79.3214C71.9666 78.4124 72.798 77.4695 74.05 76.6521C72.1245 70.2128 71.9394 63.4684 77.2425 60.7454C77.3582 59.1306 77.0533 57.3902 75.5062 57.6613C74.6509 59.605 73.8633 61.9355 72.8485 64.1064Z" fill="url(#paint0_linear_11_14530)"/>
</g>
<defs>
<linearGradient id="paint0_linear_11_14530" x1="116.105" y1="20.4512" x2="141.555" y2="165.707" gradientUnits="userSpaceOnUse">
<stop stop-color="#E80BEE"/>
<stop offset="1" stop-color="#FFC612"/>
</linearGradient>
<clipPath id="clip0_11_14530">
<rect width="236.376" height="148.226" fill="white" transform="translate(0 40.7939) rotate(-9.93796)"/>
</clipPath>
</defs>
</svg>
