<svg width="108" height="120" viewBox="0 0 108 120" fill="none" xmlns="http://www.w3.org/2000/svg">
<g clip-path="url(#clip0_11_14528)">
<path d="M49.321 86.5323C48.6604 87.8534 45.798 86.7525 44.6971 86.3121C39.8531 84.1103 34.5687 83.0094 29.5045 80.8075C28.4035 80.3672 25.9815 78.8259 26.4219 77.5048C27.743 72.8809 30.3852 68.4772 31.7063 63.8534C32.3669 61.6516 40.0733 64.9543 39.1925 67.5965C37.8714 71.5598 35.8898 75.3029 34.5687 79.2662C38.3118 80.5873 42.2751 81.6883 46.0182 83.2295C47.1191 83.4497 49.9815 85.2112 49.321 86.5323ZM4.18337 90.7158C28.8439 97.3213 52.1834 106.129 75.743 115.817C80.3669 117.798 78.6054 121.321 73.9815 119.34C51.3026 109.872 28.6237 101.505 4.62373 95.1195C0.880614 94.2387 -1.10104 89.3947 4.18337 90.7158ZM63.6329 88.9543C63.4127 89.8351 62.532 90.4956 61.8714 90.936C60.9907 91.5965 59.8898 91.8167 58.7889 92.0369C57.688 92.2571 56.587 91.8167 55.7063 91.3763C55.2659 91.1562 54.8256 91.1562 54.6054 90.936C54.6054 90.936 54.6054 90.936 54.3852 90.936C53.2843 90.7158 52.1834 89.8351 52.8439 88.514C53.0641 87.6332 53.9448 86.9727 54.6054 86.5323C55.4861 85.8717 56.587 85.6516 57.688 85.4314C58.7889 85.2112 59.8898 85.6516 60.7705 86.0919C61.2109 86.3121 61.6513 86.3121 61.8714 86.5323C61.8714 86.5323 61.8714 86.5323 62.0916 86.5323C63.1925 86.7525 64.0733 87.6332 63.6329 88.9543ZM107.89 38.5323C93.1375 57.0277 79.2659 77.0644 72.6604 99.9635C76.6237 101.285 80.8072 102.606 84.7705 104.147C86.532 104.808 81.0274 110.532 78.8256 109.652C76.1834 108.771 73.5412 107.89 70.899 107.009C70.4586 108.991 70.0182 111.193 69.798 113.395C69.5779 114.275 63.8531 109.652 64.0733 107.67C64.2935 106.789 64.2935 105.908 64.5136 105.028C43.1558 97.3213 21.798 90.2754 0.220064 82.7892C-1.5414 82.1286 3.96318 76.4039 6.16502 77.2846C8.14667 77.9451 10.1283 78.6057 12.11 79.2662C26.6421 59.8901 28.6237 35.2295 27.3026 11.6699C27.3026 10.7892 32.3669 15.413 33.0274 16.9543C36.11 27.0828 39.4127 37.2112 42.4953 47.3396C51.9632 31.7066 61.4311 15.8534 70.899 0.00018657C71.3393 -0.880547 76.6237 4.62404 76.4035 5.94514C74.6421 21.1378 72.8806 36.3305 71.1191 51.5231C80.1467 43.1562 90.4953 36.5506 102.165 31.9268C103.706 31.4864 108.771 37.2112 107.89 38.5323ZM91.376 46.6791C83.2292 51.7433 75.9632 57.9084 69.5779 65.3947C68.6971 66.4956 63.8531 60.5506 63.8531 59.4497C65.3944 46.2387 66.9357 32.8075 68.4769 19.5965C60.7705 32.3672 53.0641 45.1378 45.5779 57.9084C44.9173 59.0094 40.2935 53.0644 40.0733 52.4039C37.8714 45.358 35.6696 38.3121 33.4678 31.2662C33.2476 49.1011 30.165 67.1562 20.2568 82.3488C35.4494 87.6332 50.8623 92.6974 66.0549 97.9818C70.6788 79.0461 80.1467 62.3121 91.376 46.6791ZM5.28428 113.395C5.0641 113.174 3.30263 112.074 3.52282 111.413C4.18337 109.431 5.50447 107.89 6.16502 105.908C6.3852 105.248 8.36685 105.908 8.80722 105.908C10.7889 106.349 12.5503 107.009 14.3118 107.89C16.0733 108.551 18.0549 109.652 19.5962 110.752C19.8164 110.973 21.5779 112.074 21.3577 112.734C20.6971 114.716 19.376 116.257 18.7155 118.239C18.4953 118.899 16.5136 118.239 16.0733 118.239C14.0916 117.798 12.3302 117.138 10.5687 116.257C8.80722 115.597 6.82557 114.496 5.28428 113.395Z" fill="url(#paint0_linear_11_14528)"/>
</g>
<defs>
<linearGradient id="paint0_linear_11_14528" x1="53.9349" y1="-0.0947266" x2="53.9349" y2="119.925" gradientUnits="userSpaceOnUse">
<stop stop-color="#E80BEE"/>
<stop offset="1" stop-color="#FFC612"/>
</linearGradient>
<clipPath id="clip0_11_14528">
<rect width="107.89" height="120" fill="white"/>
</clipPath>
</defs>
</svg>
