<svg width="125" height="141" viewBox="0 0 125 141" fill="none" xmlns="http://www.w3.org/2000/svg">
<g clip-path="url(#clip0_11_14477)">
<path d="M103.581 109.436C104.126 110.358 104.584 111.322 104.649 112.365C104.776 114.668 102.525 116.488 100.172 116.96C97.9487 117.479 95.6135 117.084 93.2234 117.252C86.0071 117.886 80.5903 123.894 73.8972 126.534C70.004 128.06 65.7868 128.451 61.5696 128.842C60.9606 128.917 60.3099 128.903 59.793 128.719C59.276 128.535 58.9388 128.051 58.6431 127.654C56.9108 125.362 55.7088 122.604 55.0281 119.813C54.7502 118.549 54.4723 117.285 53.7101 116.358C53.0728 115.694 52.1265 115.284 51.3095 114.92C40.0461 109.743 33.4286 98.0653 28.2787 86.7646C21.9683 72.793 16.9265 58.3267 13.1072 43.4949C12.5425 41.4004 12.0238 39.1768 12.3727 36.9708C12.7215 34.7649 14.284 32.6271 16.5032 32.3253C19.682 31.7828 22.1765 35.0015 23.8999 37.7271C26.9219 42.7357 29.9439 47.7443 32.9659 52.753C33.3031 53.2372 33.5528 53.763 34.1113 54.0348C34.7991 54.3526 35.5418 54.1074 36.2385 53.9915C39.8139 53.1533 43.6256 53.4915 46.9398 54.8176C50.1019 50.8467 55.6514 48.964 60.6634 50.021C59.2783 43.4837 57.1088 37.1039 54.1505 31.0985C52.4864 27.593 50.5178 24.1247 49.9885 20.2953C49.4593 16.4658 50.8952 12.0256 54.4007 10.3615C57.0298 9.11341 60.1865 9.65524 62.6287 11.1805C65.071 12.7058 66.9326 15.0437 68.4019 17.4604C74.8797 27.4865 76.9667 40.0265 82.6468 50.8608C83.6081 52.6596 84.6987 54.5044 86.3655 55.7535C89.6991 58.2516 94.3917 57.957 97.9511 60.0258C101.081 61.8689 102.912 65.7249 102.403 69.403C101.852 72.9934 99.0536 76.1474 95.5198 77.0732C96.1749 76.8696 97.3166 84.7038 97.3449 85.4421C97.5042 88.2659 97.0588 90.9472 96.5675 93.7578C95.9929 96.393 97.4756 98.1591 98.7741 100.442C100.276 103.38 101.949 106.452 103.581 109.436Z" fill="#4445DD"/>
<path d="M26.7894 66.2089C26.4235 75.6179 30.8191 89.854 40.0146 94.2945C47.9637 98.1454 55.1377 91.0886 56.6401 83.3952C57.2235 80.3262 52.6647 80.45 52.1361 82.9561C51.5111 85.9374 49.9548 89.8979 46.7671 90.8742C43.012 92.0125 39.5297 88.2962 37.677 85.5246C33.5467 79.5386 30.9939 72.8039 31.3615 65.4345C31.5068 62.5735 26.8841 63.694 26.7894 66.2089Z" fill="black"/>
<path d="M66.5836 55.4786C65.7471 53.9427 64.8646 52.5361 63.6315 51.2959C62.8234 50.4983 61.5354 49.8211 60.3545 50.2743C59.3029 50.7735 59.1886 52.1164 59.9968 52.914C60.8882 53.8868 61.7335 54.989 62.4036 56.1743C62.9905 57.1843 64.2324 57.9908 65.5381 57.8005C66.4977 57.5597 67.1705 56.4886 66.5836 55.4786Z" fill="black"/>
<path d="M63.294 50.8115C59.3452 46.565 51.6579 46.8853 47.924 51.2351C42.7241 57.2473 45.4733 67.1105 48.0721 73.716C50.5506 79.8418 54.4091 86.3863 61.5067 87.3124C68.8212 88.2429 73.4121 82.305 73.0325 75.3977C72.906 73.0952 68.1108 72.0426 68.2745 74.6496C68.4726 79.8174 64.782 86.2945 58.6971 82.5251C55.267 80.5022 53.371 75.6034 52.0114 72.0608C50.781 68.5641 49.564 64.4169 49.6853 60.6007C49.9404 56.6137 54.727 47.4687 59.8673 52.8677C61.65 54.8135 65.5017 53.1998 63.294 50.8115Z" fill="black"/>
<path d="M31.6959 68.1738C31.1171 60.3945 39.0161 53.9601 46.6085 56.1548C49.5439 56.9091 50.3026 53.7568 47.4133 52.8733C37.5317 50.1546 25.9786 57.035 26.8414 67.9011C26.9723 69.9866 31.864 70.5639 31.6959 68.1738Z" fill="black"/>
<path d="M75.6625 52.8865C66.6413 52.6587 54.4853 61.4362 62.5777 71.018C66.222 75.3016 72.7434 76.8235 78.0183 77.7558C83.1641 78.642 88.6975 79.6663 93.9619 78.9928C103.836 77.8494 109.311 64.7262 100.063 58.5923C93.512 54.2927 83.2771 53.9967 75.6625 52.8865C72.9812 52.4412 71.2868 56.7893 74.3142 57.2851C78.2508 57.8862 82.1873 58.4874 86.1654 59.1762C88.976 59.6676 92.091 60.1218 94.8467 61.1761C100.053 63.322 102.602 70.2737 96.8045 73.6701C91.8419 76.5628 82.4773 74.0282 77.1191 72.9207C73.4455 72.1947 68.0085 70.695 65.8646 67.3099C61.9557 61.1115 69.1968 57.1371 74.4019 57.2435C77.046 57.3843 78.7404 53.0362 75.6625 52.8865Z" fill="black"/>
<path d="M65.1272 52.4111C61.46 42.8764 57.5299 33.4665 53.8627 23.9317C53.2431 22.4003 51.6578 19.2869 52.0438 17.3855C53.3805 15.6771 54.7172 13.9686 55.9663 12.3018C57.1428 12.0655 58.1395 12.1293 59.1274 12.6268C60.2906 13.0411 61.32 13.6262 62.2575 14.4699C65.2406 17.1345 67.0534 21.858 68.7175 25.3635C73.8391 35.926 77.9417 47.5091 84.161 57.4432C85.1683 59.1127 88.2383 55.4002 87.3142 53.9059C83.3637 47.6199 80.6029 40.447 77.441 33.7865C75.7769 30.281 74.2421 26.8216 72.578 23.3161C70.581 19.1095 68.5691 13.514 64.815 10.3564C57.0527 3.73209 47.0239 12.4662 48.5356 21.306C49.6844 26.6669 52.4851 31.888 54.4688 36.7452C57.072 43.1339 59.4584 49.5181 61.974 55.9484C62.6352 57.5674 65.7884 54.0302 65.1272 52.4111Z" fill="black"/>
<path d="M28.7612 84.3863C23.3467 71.1708 17.7197 57.734 13.5737 44.0237C13.2453 43.1057 13.0046 42.1461 12.7638 41.1866C12.4071 39.5303 12.0177 37.3527 12.8746 35.7646C14.8142 32.1592 17.6947 33.4765 19.9988 35.3895C23.2404 38.1461 24.5911 42.1225 26.4261 45.7617C28.4691 49.8391 30.8626 53.75 32.555 57.9938C32.8046 58.5196 37.1865 56.4394 36.7289 55.4754C34.4584 49.7879 31.2745 44.2118 28.5658 38.7323C26.9389 35.5313 23.9957 30.9148 20.0087 30.6598C13.8989 30.2312 7.74389 36.2673 8.36251 42.0947C8.74923 46.5287 10.7001 50.8646 12.1801 54.887C16.0376 65.7274 20.2916 76.2722 24.5873 86.9047C24.8369 87.4305 29.1772 85.2627 28.7612 84.3863Z" fill="black"/>
<path d="M24.1756 85.8116C28.7475 95.6686 34.4143 107.154 43.3946 113.629C50.8374 118.902 63.2799 121.586 69.1048 112.592C70.7178 110.108 66.3369 107.893 64.8576 110.206C58.9406 119.458 45.8706 111.38 41.0021 105.422C36.046 99.5062 32.122 91.9189 28.8814 84.8663C27.7165 82.4125 22.9735 83.0533 24.1756 85.8116Z" fill="black"/>
<path d="M60.6895 108.212C69.7752 113.779 80.705 111.919 89.2413 106.149C99.7144 99.0292 102.856 87.5507 97.494 76.0286C96.9532 74.8893 92.3988 74.7963 92.7732 75.585C96.2678 82.9465 96.6863 92.1979 91.3855 98.9024C86.0386 105.736 73.471 113.42 64.9855 108.213C63.9976 107.716 59.66 107.627 60.6895 108.212Z" fill="black"/>
<path d="M59.0511 124.668C57.6366 121.688 56.2221 118.708 54.8076 115.729C53.8091 113.625 50.5665 115.165 51.565 117.268C52.9795 120.248 54.394 123.227 55.8085 126.207C56.7193 128.352 60.0495 126.771 59.0511 124.668Z" fill="black"/>
<path d="M63.6526 120.336C63.1162 118.98 62.3169 117.749 61.7805 116.393C61.4521 115.475 60.2013 115.102 59.3249 115.518C58.3609 115.975 58.1219 117.055 58.4503 117.973C58.9867 119.33 59.786 120.561 60.3224 121.917C60.6508 122.835 61.9016 123.208 62.778 122.792C63.742 122.334 64.0686 121.213 63.6526 120.336Z" fill="black"/>
<path d="M94.065 97.3073C95.9965 100.471 97.9739 103.506 99.6009 106.707C100.687 108.768 104.017 107.187 102.931 105.126C101.175 101.879 99.2851 98.8026 97.3952 95.7264C96.1754 93.8355 92.8036 95.3288 94.065 97.3073Z" fill="black"/>
<path d="M102.401 111.929C102.568 112.279 102.734 112.63 102.901 112.98C103.317 113.857 104.48 114.271 105.356 113.855C106.232 113.439 106.688 112.364 106.231 111.4C106.064 111.049 105.898 110.698 105.732 110.348C105.315 109.472 104.152 109.057 103.276 109.473C102.4 109.889 101.944 110.965 102.401 111.929Z" fill="black"/>
<path d="M56.579 16.3069C57.5058 15.5447 58.9319 15.8342 59.5188 16.8443C60.018 17.8959 61.6831 17.1055 61.1839 16.0538C60.1854 13.9505 57.204 13.3255 55.3504 14.8498C54.4235 15.6119 55.6522 17.069 56.579 16.3069Z" fill="white"/>
<path d="M72.9378 39.6825C71.3242 35.8309 69.5813 31.9333 67.9676 28.0817C67.4684 27.03 65.8033 27.8205 66.3025 28.8721C67.9162 32.7237 69.6591 36.6214 71.2727 40.473C71.7259 41.6539 73.391 40.8634 72.9378 39.6825Z" fill="white"/>
<path d="M70.0082 62.0143C70.1047 61.539 70.6305 61.2894 71.0182 61.4275C72.1858 61.6249 72.3549 59.719 71.1873 59.5216C69.7152 59.3613 68.4794 60.3775 68.1899 61.8036C68.0934 62.279 68.5599 62.8092 68.9937 62.8181C69.5567 62.873 69.9117 62.4897 70.0082 62.0143Z" fill="white"/>
<path d="M77.4921 61.0399C82.158 62.0465 86.9116 63.0115 91.5359 63.9305C92.7035 64.1279 92.8266 62.3513 91.7051 62.0246C87.0391 61.018 82.2856 60.053 77.6612 59.1341C76.406 58.9782 76.3245 60.8425 77.4921 61.0399Z" fill="white"/>
<path d="M53.3307 60.5891C53.1997 58.5036 54.1071 56.5694 55.7811 55.3452C56.7079 54.583 55.5209 53.2136 54.5941 53.9757C52.6527 55.5416 51.432 57.9467 51.5541 60.466C51.5319 61.5504 53.3501 61.7612 53.3307 60.5891Z" fill="white"/>
<path d="M37.3249 73.0195C35.6103 69.8602 35.9902 66.1361 38.2165 63.361C38.9725 62.4652 37.3889 61.3914 36.6329 62.2872C34.0055 65.5748 33.5663 70.0787 35.5721 73.8516C36.2466 74.82 37.9118 74.0296 37.3249 73.0195Z" fill="white"/>
<path d="M41.0431 60.945C42.0948 60.4458 41.3043 58.7807 40.2527 59.2799C39.1134 59.8208 39.9038 61.4859 41.0431 60.945Z" fill="white"/>
<path d="M15.9494 38.1714C17.7349 37.8608 19.4477 38.9806 19.846 40.7245C20.0824 41.901 21.9555 41.5487 21.6315 40.4138C20.9925 37.7104 18.2961 35.8761 15.5095 36.3399C14.5083 36.493 14.7313 38.3201 15.9494 38.1714Z" fill="white"/>
<path d="M22.8248 43.6061C23.8764 43.1069 23.086 41.4418 22.0343 41.941C20.9827 42.4402 21.7731 44.1053 22.8248 43.6061Z" fill="white"/>
<path d="M64.1747 22.5808C65.2264 22.0815 64.4359 20.4164 63.3842 20.9157C62.245 21.4565 63.0354 23.1216 64.1747 22.5808Z" fill="white"/>
<path d="M69.7787 107.227C74.2278 108.229 78.5414 107.362 82.1567 104.572C83.1252 103.898 81.8965 102.441 80.9697 103.203C77.8846 105.526 74.18 106.319 70.4648 105.505C69.2556 105.22 68.5695 106.942 69.7787 107.227Z" fill="white"/>
<path d="M85.4542 102.469C85.5419 102.428 85.6295 102.386 85.6295 102.386C86.6812 101.887 85.8907 100.222 84.8391 100.721C84.7514 100.763 84.6638 100.804 84.6638 100.804C83.5245 101.345 84.315 103.01 85.4542 102.469Z" fill="white"/>
<path d="M89.1378 98.4657C89.8982 97.353 90.5294 96.1943 91.2898 95.0816C91.8749 94.0521 90.4206 93.0243 89.7062 94.0078C88.9457 95.1205 88.3146 96.2792 87.5541 97.3919C86.969 98.4214 88.5526 99.4952 89.1378 98.4657Z" fill="white"/>
<path d="M94.4729 104.953C96.1131 107.504 97.7533 110.054 99.3936 112.604C100.068 113.573 101.733 112.782 101.059 111.814C99.4184 109.263 97.7782 106.713 96.138 104.163C95.5511 103.153 93.8444 103.855 94.4729 104.953Z" fill="white"/>
<path d="M40.5886 102.289C43.2318 106.726 47.1567 110.017 52.0679 111.767C53.231 112.181 53.7879 110.413 52.7123 109.957C48.3182 108.392 44.6473 105.41 42.2121 101.411C41.6669 100.489 39.9141 101.321 40.5886 102.289Z" fill="white"/>
<path d="M55.6215 112.013C56.6731 111.514 55.8827 109.849 54.831 110.348C53.6917 110.889 54.4822 112.554 55.6215 112.013Z" fill="white"/>
<path d="M59.4842 80.1112C60.8138 80.8761 62.2859 81.0363 63.7713 80.546C64.2095 80.338 64.4397 79.6918 64.2317 79.2536C63.982 78.7277 63.5067 78.6312 62.9393 78.7932C62.1089 79.08 61.1998 78.9746 60.4704 78.5692C59.4825 78.0717 58.4547 79.5261 59.4842 80.1112Z" fill="white"/>
<path d="M41.4292 86.6422C42.9579 88.279 45.51 88.6783 47.4009 87.4586C48.4109 86.8717 47.6205 85.2066 46.6104 85.7935C45.4667 86.5512 43.8193 86.4741 42.7987 85.4552C42.0365 84.5284 40.5794 85.757 41.4292 86.6422Z" fill="white"/>
<path d="M66.2652 77.4294C67.3169 76.9301 66.5264 75.265 65.4748 75.7642C64.4231 76.2635 65.2136 77.9286 66.2652 77.4294Z" fill="white"/>
</g>
<defs>
<clipPath id="clip0_11_14477">
<rect width="81.8771" height="116.995" fill="white" transform="translate(0 35.1123) rotate(-25.3944)"/>
</clipPath>
</defs>
</svg>
