<svg width="427" height="448" viewBox="0 0 427 448" fill="none" xmlns="http://www.w3.org/2000/svg">
<path d="M230.507 9.22323C225.737 7.1137 221.664 4.51398 217.352 1.61758C210.321 -3.04712 203.259 5.584 209.086 11.5834C212.028 14.607 215.008 17.4676 217.366 21.0771C219.84 24.7822 222.219 28.6025 224.635 32.2598C230.517 41.1254 235.864 47.1161 242.873 54.3882C255.065 67.0283 266.922 80.0717 279.4 92.3661C304.529 117.098 329.228 142.349 353.286 168.138C354.113 169.018 354.939 169.899 355.824 170.827C356.064 171.124 356.237 171.267 356.41 171.411C358.074 173.277 359.786 175.085 361.507 176.999C364.825 180.626 368.094 184.311 371.412 187.937C372.547 189.268 373.787 190.588 374.922 191.919C373.802 192.448 372.787 192.967 371.667 193.497C362.895 197.501 353.874 201.103 344.9 204.648C326.962 211.842 308.812 218.472 290.459 224.641C271.848 230.888 253.129 236.56 234.208 241.772C224.877 244.34 215.536 246.802 206.117 249.005C201.748 250.049 197.379 251.092 192.953 252.088C192.225 252.262 189.36 252.9 188.679 253.016C185.968 253.587 183.256 254.158 180.544 254.728C158.898 259.236 137.136 263.064 115.304 266.153C100.506 268.271 93.9989 286.794 105.848 296.913C153.128 337.296 203.934 373.311 257.68 404.373C263.25 407.632 268.915 410.775 274.58 413.918C267.19 414.497 259.799 415.077 252.399 415.551C231.895 416.922 211.304 417.929 190.828 419.032C149.55 421.161 108.203 422.552 66.8826 423.09C55.1959 423.218 43.5288 423.556 31.8519 423.789C27.0777 423.913 22.3134 424.143 17.5869 424.209C15.4107 424.252 9.40754 423.745 9.57096 420.38C9.80541 414.935 2.43828 413.492 1.09182 418.987C-1.02424 427.053 5.88449 432.686 12.3552 435.914C21.61 440.479 33.277 440.14 43.3756 441.224C66.9482 443.662 90.6133 444.815 114.278 445.969C162.183 448.17 210.082 448.031 257.88 446.254C270.065 445.762 282.932 446.322 294.901 444.095C309.333 441.479 325.417 433.234 326.57 416.59C327.095 408.566 324.04 402.628 316.973 398.711C282.194 379.394 251.994 361.832 220.095 340.333C198.695 325.889 177.896 310.485 157.671 294.39C223.514 282.59 288.536 264.858 351.02 241.034C371.918 233.086 392.614 224.679 413.397 216.635C424.995 212.156 430.955 196.874 422.902 186.402C412.174 172.35 399.732 159.308 387.971 146.15C375.267 132.015 362.315 118.063 349.028 104.514C323.993 79.0821 298.319 54.7725 270.111 32.9314C261.742 26.4766 252.741 20.0806 244.062 15.4094C239.751 13.0977 235.047 11.1414 230.507 9.22323Z" fill="url(#paint0_linear_11_14535)"/>
<defs>
<linearGradient id="paint0_linear_11_14535" x1="53.511" y1="471.218" x2="357.36" y2="104.886" gradientUnits="userSpaceOnUse">
<stop stop-color="#FFEB52"/>
<stop offset="1" stop-color="#E80BEE"/>
</linearGradient>
</defs>
</svg>
